{
.appVersion = "1141";
DisplayStrings = (

glyphs = (
{
glyphname = A;
lastChange = "2018-08-09 17:23:37 +0000";
layers = (
{
layerId = "BADA37E3-C95E-4946-BA48-1F986F6D85A7";
paths = (
{
closed = 1;
nodes = (
"71 0 LINE",
"149 245 LINE",
"377 245 LINE",
"457 0 LINE",
"517 0 LINE",
"289 700 LINE",
"236 700 LINE",
"12 0 LINE"
);
},
{
closed = 1;
nodes = (
"262 613 LINE",
"362 300 LINE",
"165 300 LINE"
);
}
);
width = 527;
},
{
layerId = "77B00D75-0619-4FB7-8D17-EB9FCD2DF18B";
paths = (
{
closed = 1;
nodes = (
"31 0 LINE",
"130 281 LINE",
"398 281 LINE",
"496 0 LINE",
"517 0 LINE",
"271 700 LINE",
"257 700 LINE",
"12 0 LINE"
);
},
{
closed = 1;
nodes = (
"264 660 LINE",
"391 300 LINE",
"137 300 LINE"
);
}
);
width = 527;
},
{
layerId = "8A94633D-DA21-409C-A8B7-00A83612E8B2";
paths = (
{
closed = 1;
nodes = (
"145 0 LINE",
"184 183 LINE",
"345 183 LINE",
"386 0 LINE",
"517 0 LINE",
"340 700 LINE",
"185 700 LINE",
"21 0 LINE"
);
},
{
closed = 1;
nodes = (
"262 516 LINE",
"319 300 LINE",
"210 300 LINE"
);
}
);
width = 527;
}
);
leftKerningGroup = A;
rightKerningGroup = A;
unicode = 0041;
},
{
glyphname = Aacute;
lastChange = "2018-08-09 15:14:16 +0000";
layers = (
{
layerId = "BADA37E3-C95E-4946-BA48-1F986F6D85A7";
paths = (
{
closed = 1;
nodes = (
"71 0 LINE",
"149 245 LINE",
"377 245 LINE",
"457 0 LINE",
"517 0 LINE",
"289 700 LINE",
"236 700 LINE",
"12 0 LINE"
);
},
{
closed = 1;
nodes = (
"262 613 LINE",
"362 300 LINE",
"165 300 LINE"
);
},
{
closed = 1;
nodes = (
"286 731 LINE",
"355 823 LINE",
"358.333 827 OFFCURVE",
"360 831.333 OFFCURVE",
"360 836 CURVE SMOOTH",
"360 840.667 OFFCURVE",
"359.333 845 OFFCURVE",
"358 849 CURVE",
"354 864.333 OFFCURVE",
"343 872 OFFCURVE",
"325 872 CURVE SMOOTH",
"311 872 OFFCURVE",
"300.333 864.333 OFFCURVE",
"293 849 CURVE",
"242 731 LINE"
);
}
);
width = 527;
},
{
layerId = "77B00D75-0619-4FB7-8D17-EB9FCD2DF18B";
paths = (
{
closed = 1;
nodes = (
"31 0 LINE",
"130 281 LINE",
"398 281 LINE",
"496 0 LINE",
"517 0 LINE",
"271 700 LINE",
"257 700 LINE",
"12 0 LINE"
);
},
{
closed = 1;
nodes = (
"264 660 LINE",
"391 300 LINE",
"137 300 LINE"
);
},
{
closed = 1;
nodes = (
"261 731 LINE",
"324 844 LINE",
"332 856.667 OFFCURVE",
"330.667 865.333 OFFCURVE",
"320 870 CURVE",
"317.333 871.333 OFFCURVE",
"314.667 872 OFFCURVE",
"312 872 CURVE SMOOTH",
"305.333 872 OFFCURVE",
"300.333 867.667 OFFCURVE",
"297 859 CURVE",
"242 731 LINE"
);
}
);
width = 527;
},
{
layerId = "8A94633D-DA21-409C-A8B7-00A83612E8B2";
paths = (
{
closed = 1;
nodes = (
"145 0 LINE",
"184 183 LINE",
"345 183 LINE",
"386 0 LINE",
"517 0 LINE",
"340 700 LINE",
"185 700 LINE",
"21 0 LINE"
);
},
{
closed = 1;
nodes = (
"262 516 LINE",
"319 300 LINE",
"210 300 LINE"
);
},
{
closed = 1;
nodes = (
"302 731 LINE",
"351 794 LINE SMOOTH",
"361.667 808 OFFCURVE",
"367 821 OFFCURVE",
"367 833 CURVE SMOOTH",
"367 835 OFFCURVE",
"366.667 837.333 OFFCURVE",
"366 840 CURVE",
"363.333 852.667 OFFCURVE",
"355.333 862.333 OFFCURVE",
"342 869 CURVE",
"338 871.667 OFFCURVE",
"333 873 OFFCURVE",
"327 873 CURVE SMOOTH",
"321.667 873 OFFCURVE",
"315.333 872 OFFCURVE",
"308 870 CURVE",
"292.667 864.667 OFFCURVE",
"281.667 854.333 OFFCURVE",
"275 839 CURVE SMOOTH",
"229 731 LINE"
);
}
);
width = 527;
}
);
unicode = 00C1;
},
{
glyphname = Abreve;
lastChange = "2018-08-09 15:14:16 +0000";
layers = (
{
layerId = "BADA37E3-C95E-4946-BA48-1F986F6D85A7";
paths = (
{
closed = 1;
nodes = (
"71 0 LINE",
"149 245 LINE",
"377 245 LINE",
"457 0 LINE",
"517 0 LINE",
"289 700 LINE",
"236 700 LINE",
"12 0 LINE"
);
},
{
closed = 1;
nodes = (
"262 613 LINE",
"362 300 LINE",
"165 300 LINE"
);
},
{
closed = 1;
nodes = (
"152 694.211 OFFCURVE",
"378 694.211 OFFCURVE",
"378 843 CURVE SMOOTH",
"378 848 LINE",
"333 848 LINE",
"333 843 LINE SMOOTH",
"333 752.837 OFFCURVE",
"197 752.837 OFFCURVE",
"197 843 CURVE SMOOTH",
"197 848 LINE",
"152 848 LINE",
"152 843 LINE SMOOTH"
);
}
);
width = 527;
},
{
layerId = "77B00D75-0619-4FB7-8D17-EB9FCD2DF18B";
paths = (
{
closed = 1;
nodes = (
"31 0 LINE",
"130 281 LINE",
"398 281 LINE",
"496 0 LINE",
"517 0 LINE",
"271 700 LINE",
"257 700 LINE",
"12 0 LINE"
);
},
{
closed = 1;
nodes = (
"264 660 LINE",
"391 300 LINE",
"137 300 LINE"
);
},
{
closed = 1;
nodes = (
"152 694.211 OFFCURVE",
"378 694.211 OFFCURVE",
"378 843 CURVE SMOOTH",
"378 848 LINE",
"357 848 LINE",
"357 843 LINE SMOOTH",
"357 722.761 OFFCURVE",
"173 720.288 OFFCURVE",
"173 843 CURVE SMOOTH",
"173 848 LINE",
"152 848 LINE",
"152 843 LINE SMOOTH"
);
}
);
width = 527;
},
{
layerId = "8A94633D-DA21-409C-A8B7-00A83612E8B2";
paths = (
{
closed = 1;
nodes = (
"145 0 LINE",
"184 183 LINE",
"345 183 LINE",
"386 0 LINE",
"517 0 LINE",
"340 700 LINE",
"185 700 LINE",
"21 0 LINE"
);
},
{
closed = 1;
nodes = (
"262 516 LINE",
"319 300 LINE",
"210 300 LINE"
);
},
{
closed = 1;
nodes = (
"245 808 OFFCURVE",
"235 819.667 OFFCURVE",
"235 843 CURVE SMOOTH",
"235 848 LINE",
"152 848 LINE",
"152 843 LINE SMOOTH",
"152 694.211 OFFCURVE",
"378 694.211 OFFCURVE",
"378 843 CURVE SMOOTH",
"378 848 LINE",
"296 848 LINE",
"296 843 LINE SMOOTH",
"296 821.667 OFFCURVE",
"283.667 808 OFFCURVE",
"265 808 CURVE SMOOTH"
);
}
);
width = 527;
}
);
unicode = 0102;
},
{
glyphname = Acircumflex;
lastChange = "2018-08-09 15:14:16 +0000";
layers = (
{
layerId = "BADA37E3-C95E-4946-BA48-1F986F6D85A7";
paths = (
{
closed = 1;
nodes = (
"71 0 LINE",
"149 245 LINE",
"377 245 LINE",
"457 0 LINE",
"517 0 LINE",
"289 700 LINE",
"236 700 LINE",
"12 0 LINE"
);
},
{
closed = 1;
nodes = (
"262 613 LINE",
"362 300 LINE",
"165 300 LINE"
);
},
{
closed = 1;
nodes = (
"265 837 LINE",
"370 733 LINE",
"408 772 LINE",
"266 913 LINE",
"118 772 LINE",
"156 733 LINE"
);
}
);
width = 527;
},
{
layerId = "77B00D75-0619-4FB7-8D17-EB9FCD2DF18B";
paths = (
{
closed = 1;
nodes = (
"31 0 LINE",
"130 281 LINE",
"398 281 LINE",
"496 0 LINE",
"517 0 LINE",
"271 700 LINE",
"257 700 LINE",
"12 0 LINE"
);
},
{
closed = 1;
nodes = (
"264 660 LINE",
"391 300 LINE",
"137 300 LINE"
);
},
{
closed = 1;
nodes = (
"265 883 LINE",
"391 756 LINE",
"408 772 LINE",
"266 913 LINE",
"118 772 LINE",
"134 756 LINE"
);
}
);
width = 527;
},
{
layerId = "8A94633D-DA21-409C-A8B7-00A83612E8B2";
paths = (
{
closed = 1;
nodes = (
"145 0 LINE",
"184 183 LINE",
"345 183 LINE",
"386 0 LINE",
"517 0 LINE",
"340 700 LINE",
"185 700 LINE",
"21 0 LINE"
);
},
{
closed = 1;
nodes = (
"262 516 LINE",
"319 300 LINE",
"210 300 LINE"
);
},
{
closed = 1;
nodes = (
"267 814 LINE",
"343 731 LINE",
"410 770 LINE",
"268 911 LINE",
"120 770 LINE",
"186 731 LINE"
);
}
);
width = 527;
}
);
unicode = 00C2;
},
{
glyphname = Adieresis;
lastChange = "2018-08-09 15:14:16 +0000";
layers = (
{
layerId = "BADA37E3-C95E-4946-BA48-1F986F6D85A7";
paths = (
{
closed = 1;
nodes = (
"71 0 LINE",
"149 245 LINE",
"377 245 LINE",
"457 0 LINE",
"517 0 LINE",
"289 700 LINE",
"236 700 LINE",
"12 0 LINE"
);
},
{
closed = 1;
nodes = (
"262 613 LINE",
"362 300 LINE",
"165 300 LINE"
);
},
{
closed = 1;
nodes = (
"238.844 771.844 OFFCURVE",
"190.995 817.995 OFFCURVE",
"160.5 787.5 CURVE SMOOTH",
"129.73 756.73 OFFCURVE",
"177.138 710.138 OFFCURVE",
"207 740 CURVE SMOOTH"
);
},
{
closed = 1;
nodes = (
"394.844 771.844 OFFCURVE",
"346.995 817.995 OFFCURVE",
"316.5 787.5 CURVE SMOOTH",
"285.73 756.73 OFFCURVE",
"333.138 710.138 OFFCURVE",
"363 740 CURVE SMOOTH"
);
}
);
width = 527;
},
{
layerId = "77B00D75-0619-4FB7-8D17-EB9FCD2DF18B";
paths = (
{
closed = 1;
nodes = (
"31 0 LINE",
"130 281 LINE",
"398 281 LINE",
"496 0 LINE",
"517 0 LINE",
"271 700 LINE",
"257 700 LINE",
"12 0 LINE"
);
},
{
closed = 1;
nodes = (
"264 660 LINE",
"391 300 LINE",
"137 300 LINE"
);
},
{
closed = 1;
nodes = (
"205.624 816.624 OFFCURVE",
"184.287 837.287 OFFCURVE",
"170.5 823.5 CURVE SMOOTH",
"156.717 809.717 OFFCURVE",
"177.951 788.951 OFFCURVE",
"191 802 CURVE SMOOTH"
);
},
{
closed = 1;
nodes = (
"364.624 817.624 OFFCURVE",
"343.287 838.287 OFFCURVE",
"329.5 824.5 CURVE SMOOTH",
"315.717 810.717 OFFCURVE",
"336.951 789.951 OFFCURVE",
"350 803 CURVE SMOOTH"
);
}
);
width = 527;
},
{
layerId = "8A94633D-DA21-409C-A8B7-00A83612E8B2";
paths = (
{
closed = 1;
nodes = (
"145 0 LINE",
"184 183 LINE",
"345 183 LINE",
"386 0 LINE",
"517 0 LINE",
"340 700 LINE",
"185 700 LINE",
"21 0 LINE"
);
},
{
closed = 1;
nodes = (
"262 516 LINE",
"319 300 LINE",
"210 300 LINE"
);
},
{
closed = 1;
nodes = (
"220.333 731 OFFCURVE",
"240 751 OFFCURVE",
"240 775 CURVE SMOOTH",
"240 800.333 OFFCURVE",
"220.333 820 OFFCURVE",
"195 820 CURVE SMOOTH",
"171 820 OFFCURVE",
"151 800.333 OFFCURVE",
"151 775 CURVE SMOOTH",
"151 751 OFFCURVE",
"171 731 OFFCURVE",
"195 731 CURVE SMOOTH"
);
},
{
closed = 1;
nodes = (
"402.002 786.002 OFFCURVE",
"338.002 850.002 OFFCURVE",
"296 808 CURVE SMOOTH",
"253.998 765.998 OFFCURVE",
"317.998 701.998 OFFCURVE",
"360 744 CURVE SMOOTH"
);
}
);
width = 527;
}
);
unicode = 00C4;
},
{
glyphname = Agrave;
lastChange = "2018-08-09 15:21:56 +0000";
layers = (
{
layerId = "BADA37E3-C95E-4946-BA48-1F986F6D85A7";
paths = (
{
closed = 1;
nodes = (
"71 0 LINE",
"149 245 LINE",
"377 245 LINE",
"457 0 LINE",
"517 0 LINE",
"289 700 LINE",
"236 700 LINE",
"12 0 LINE"
);
},
{
closed = 1;
nodes = (
"262 613 LINE",
"362 300 LINE",
"165 300 LINE"
);
},
{
closed = 1;
nodes = (
"274 733 LINE",
"223 851 LINE",
"215.667 866.333 OFFCURVE",
"205 874 OFFCURVE",
"191 874 CURVE SMOOTH",
"187 874 OFFCURVE",
"182.667 873.333 OFFCURVE",
"178 872 CURVE SMOOTH",
"163.333 867.333 OFFCURVE",
"156 856 OFFCURVE",
"156 838 CURVE SMOOTH",
"156 833.333 OFFCURVE",
"157.667 829 OFFCURVE",
"161 825 CURVE",
"230 733 LINE"
);
}
);
width = 527;
},
{
layerId = "77B00D75-0619-4FB7-8D17-EB9FCD2DF18B";
paths = (
{
closed = 1;
nodes = (
"31 0 LINE",
"130 281 LINE",
"398 281 LINE",
"496 0 LINE",
"517 0 LINE",
"271 700 LINE",
"257 700 LINE",
"12 0 LINE"
);
},
{
closed = 1;
nodes = (
"264 660 LINE",
"391 300 LINE",
"137 300 LINE"
);
},
{
closed = 1;
nodes = (
"276 731 LINE",
"221 859 LINE",
"217.667 867.667 OFFCURVE",
"212.667 872 OFFCURVE",
"206 872 CURVE SMOOTH",
"203.333 872 OFFCURVE",
"200.667 871.333 OFFCURVE",
"198 870 CURVE",
"187.333 865.333 OFFCURVE",
"186 856.667 OFFCURVE",
"194 844 CURVE",
"257 731 LINE"
);
}
);
width = 527;
},
{
layerId = "8A94633D-DA21-409C-A8B7-00A83612E8B2";
paths = (
{
closed = 1;
nodes = (
"145 0 LINE",
"184 183 LINE",
"345 183 LINE",
"386 0 LINE",
"517 0 LINE",
"340 700 LINE",
"185 700 LINE",
"21 0 LINE"
);
},
{
closed = 1;
nodes = (
"262 516 LINE",
"319 300 LINE",
"210 300 LINE"
);
},
{
closed = 1;
nodes = (
"286 733 LINE",
"240 841 LINE SMOOTH",
"233.333 856.333 OFFCURVE",
"222.333 866.667 OFFCURVE",
"207 872 CURVE",
"199.667 874 OFFCURVE",
"193.333 875 OFFCURVE",
"188 875 CURVE SMOOTH",
"182 875 OFFCURVE",
"177 873.667 OFFCURVE",
"173 871 CURVE",
"159.667 864.333 OFFCURVE",
"151.667 854.667 OFFCURVE",
"149 842 CURVE",
"148.333 839.333 OFFCURVE",
"148 837 OFFCURVE",
"148 835 CURVE SMOOTH",
"148 823 OFFCURVE",
"153.333 810 OFFCURVE",
"164 796 CURVE SMOOTH",
"213 733 LINE"
);
}
);
width = 527;
}
);
unicode = 00C0;
},
{
glyphname = Amacron;
lastChange = "2018-08-09 15:14:16 +0000";
layers = (
{
layerId = "BADA37E3-C95E-4946-BA48-1F986F6D85A7";
paths = (
{
closed = 1;
nodes = (
"71 0 LINE",
"149 245 LINE",
"377 245 LINE",
"457 0 LINE",
"517 0 LINE",
"289 700 LINE",
"236 700 LINE",
"12 0 LINE"
);
},
{
closed = 1;
nodes = (
"262 613 LINE",
"362 300 LINE",
"165 300 LINE"
);
},
{
closed = 1;
nodes = (
"368 730 LINE",
"368 788 LINE",
"151 788 LINE",
"151 730 LINE"
);
}
);
width = 527;
},
{
layerId = "77B00D75-0619-4FB7-8D17-EB9FCD2DF18B";
paths = (
{
closed = 1;
nodes = (
"31 0 LINE",
"130 281 LINE",
"398 281 LINE",
"496 0 LINE",
"517 0 LINE",
"271 700 LINE",
"257 700 LINE",
"12 0 LINE"
);
},
{
closed = 1;
nodes = (
"264 660 LINE",
"391 300 LINE",
"137 300 LINE"
);
},
{
closed = 1;
nodes = (
"368 769 LINE",
"368 788 LINE",
"151 788 LINE",
"151 769 LINE"
);
}
);
width = 527;
},
{
layerId = "8A94633D-DA21-409C-A8B7-00A83612E8B2";
paths = (
{
closed = 1;
nodes = (
"145 0 LINE",
"184 183 LINE",
"345 183 LINE",
"386 0 LINE",
"517 0 LINE",
"340 700 LINE",
"185 700 LINE",
"21 0 LINE"
);
},
{
closed = 1;
nodes = (
"262 516 LINE",
"319 300 LINE",
"210 300 LINE"
);
},
{
closed = 1;
nodes = (
"368 730 LINE",
"368 821 LINE",
"151 821 LINE",
"151 730 LINE"
);
}
);
width = 527;
}
);
unicode = 0100;
},
{
glyphname = Aogonek;
lastChange = "2018-08-09 15:14:16 +0000";
layers = (
{
layerId = "BADA37E3-C95E-4946-BA48-1F986F6D85A7";
paths = (
{
closed = 1;
nodes = (
"563.333 -213 OFFCURVE",
"595.667 -196.333 OFFCURVE",
"617 -163 CURVE",
"580 -125 LINE",
"541.87 -184.919 OFFCURVE",
"478 -174.696 OFFCURVE",
"478 -127 CURVE SMOOTH",
"478 -100.333 OFFCURVE",
"512.667 -58 OFFCURVE",
"582 0 CURVE",
"583 0 LINE",
"355 700 LINE",
"302 700 LINE",
"78 0 LINE",
"137 0 LINE",
"215 245 LINE",
"443 245 LINE",
"523 0 LINE",
"524 0 LINE",
"460 -42 OFFCURVE",
"428 -85.667 OFFCURVE",
"428 -131 CURVE SMOOTH",
"428 -191.821 OFFCURVE",
"479.699 -213 OFFCURVE",
"520 -213 CURVE SMOOTH"
);
},
{
closed = 1;
nodes = (
"328 613 LINE",
"428 300 LINE",
"231 300 LINE"
);
}
);
width = 650;
},
{
layerId = "77B00D75-0619-4FB7-8D17-EB9FCD2DF18B";
paths = (
{
closed = 1;
nodes = (
"597.667 -213 OFFCURVE",
"629.667 -196.333 OFFCURVE",
"651 -163 CURVE",
"635 -147 LINE",
"615.667 -177.667 OFFCURVE",
"589 -193 OFFCURVE",
"555 -193 CURVE SMOOTH",
"515 -193 OFFCURVE",
"482 -166 OFFCURVE",
"482 -130 CURVE SMOOTH",
"482 -88.667 OFFCURVE",
"515.333 -45.333 OFFCURVE",
"582 0 CURVE",
"583 0 LINE",
"337 700 LINE",
"323 700 LINE",
"78 0 LINE",
"97 0 LINE",
"196 281 LINE",
"464 281 LINE",
"562 0 LINE",
"558 0 LINE",
"494 -43.333 OFFCURVE",
"462 -86 OFFCURVE",
"462 -128 CURVE SMOOTH",
"462 -163.333 OFFCURVE",
"476.667 -188 OFFCURVE",
"506 -202 CURVE SMOOTH",
"522 -209.333 OFFCURVE",
"538.333 -213 OFFCURVE",
"555 -213 CURVE SMOOTH"
);
},
{
closed = 1;
nodes = (
"330 660 LINE",
"457 300 LINE",
"203 300 LINE"
);
}
);
width = 690;
},
{
layerId = "8A94633D-DA21-409C-A8B7-00A83612E8B2";
paths = (
{
closed = 1;
nodes = (
"552.667 -213 OFFCURVE",
"584 -200.333 OFFCURVE",
"608 -163 CURVE",
"559 -110 LINE",
"547 -134 OFFCURVE",
"528 -145 OFFCURVE",
"516 -145 CURVE SMOOTH",
"496.667 -145 OFFCURVE",
"485.667 -137 OFFCURVE",
"483 -121 CURVE",
"483 -119.667 OFFCURVE",
"483 -118 OFFCURVE",
"483 -116 CURVE SMOOTH",
"483 -88 OFFCURVE",
"513 -49.333 OFFCURVE",
"573 0 CURVE",
"574 0 LINE",
"397 700 LINE",
"242 700 LINE",
"78 0 LINE",
"202 0 LINE",
"241 183 LINE",
"402 183 LINE",
"443 0 LINE",
"504 0 LINE",
"444 -36.667 OFFCURVE",
"413 -75.667 OFFCURVE",
"411 -117 CURVE",
"411 -119 OFFCURVE",
"411 -121.333 OFFCURVE",
"411 -124 CURVE SMOOTH",
"411 -142.667 OFFCURVE",
"416 -159.333 OFFCURVE",
"426 -174 CURVE",
"448.667 -204.667 OFFCURVE",
"476.667 -213 OFFCURVE",
"498 -213 CURVE SMOOTH"
);
},
{
closed = 1;
nodes = (
"319 516 LINE",
"376 300 LINE",
"267 300 LINE"
);
}
);
width = 647;
}
);
unicode = 0104;
},
{
glyphname = Aring;
lastChange = "2018-08-09 15:14:16 +0000";
layers = (
{
layerId = "BADA37E3-C95E-4946-BA48-1F986F6D85A7";
paths = (
{
closed = 1;
nodes = (
"71 0 LINE",
"149 245 LINE",
"377 245 LINE",
"457 0 LINE",
"517 0 LINE",
"301 664 LINE",
"414.921 701.974 OFFCURVE",
"394.233 883 OFFCURVE",
"263 883 CURVE SMOOTH",
"131.994 883 OFFCURVE",
"111.9 704.764 OFFCURVE",
"224 664 CURVE",
"12 0 LINE"
);
},
{
closed = 1;
nodes = (
"262 613 LINE",
"362 300 LINE",
"165 300 LINE"
);
},
{
closed = 1;
nodes = (
"250.545 658.363 OFFCURVE",
"151.005 752.877 OFFCURVE",
"214.5 818 CURVE SMOOTH",
"276.21 881.292 OFFCURVE",
"375.773 786.773 OFFCURVE",
"311 722 CURVE SMOOTH"
);
}
);
width = 527;
},
{
layerId = "77B00D75-0619-4FB7-8D17-EB9FCD2DF18B";
paths = (
{
closed = 1;
nodes = (
"31 0 LINE",
"130 281 LINE",
"398 281 LINE",
"496 0 LINE",
"517 0 LINE",
"278 679 LINE",
"402.52 701.938 OFFCURVE",
"390.029 888 OFFCURVE",
"261 888 CURVE SMOOTH",
"128.964 888 OFFCURVE",
"120.656 695.454 OFFCURVE",
"249 679 CURVE",
"12 0 LINE"
);
},
{
closed = 1;
nodes = (
"264 660 LINE",
"391 300 LINE",
"137 300 LINE"
);
},
{
closed = 1;
nodes = (
"147.363 704.39 OFFCURVE",
"151.367 868 OFFCURVE",
"261.5 868 CURVE SMOOTH",
"368.17 868 OFFCURVE",
"374.723 710.965 OFFCURVE",
"271 698 CURVE",
"271 700 LINE",
"257 700 LINE",
"256 698 LINE"
);
}
);
width = 527;
},
{
layerId = "8A94633D-DA21-409C-A8B7-00A83612E8B2";
paths = (
{
closed = 1;
nodes = (
"145 0 LINE",
"184 183 LINE",
"345 183 LINE",
"386 0 LINE",
"517 0 LINE",
"341 697 LINE",
"360.333 717.667 OFFCURVE",
"370 742 OFFCURVE",
"370 770 CURVE SMOOTH",
"370 910.252 OFFCURVE",
"156 910.912 OFFCURVE",
"156 770 CURVE SMOOTH",
"156 742 OFFCURVE",
"165.333 717.667 OFFCURVE",
"184 697 CURVE",
"21 0 LINE"
);
},
{
closed = 1;
nodes = (
"262 516 LINE",
"319 300 LINE",
"210 300 LINE"
);
},
{
closed = 1;
nodes = (
"214.926 777.333 OFFCURVE",
"256.568 818.432 OFFCURVE",
"284 791 CURVE SMOOTH",
"311.432 763.568 OFFCURVE",
"270.333 721.926 OFFCURVE",
"241 748 CURVE"
);
}
);
width = 527;
}
);
unicode = 00C5;
},
{
glyphname = Atilde;
lastChange = "2018-08-09 15:14:16 +0000";
layers = (
{
layerId = "BADA37E3-C95E-4946-BA48-1F986F6D85A7";
paths = (
{
closed = 1;
nodes = (
"71 0 LINE",
"149 245 LINE",
"377 245 LINE",
"457 0 LINE",
"517 0 LINE",
"289 700 LINE",
"236 700 LINE",
"12 0 LINE"
);
},
{
closed = 1;
nodes = (
"262 613 LINE",
"362 300 LINE",
"165 300 LINE"
);
},
{
closed = 1;
nodes = (
"368 728 OFFCURVE",
"400 745.667 OFFCURVE",
"430 781 CURVE",
"405 820 LINE",
"384.333 796.667 OFFCURVE",
"361 785 OFFCURVE",
"335 785 CURVE SMOOTH",
"280.578 785 OFFCURVE",
"240.11 826 OFFCURVE",
"196 826 CURVE SMOOTH",
"160.667 826 OFFCURVE",
"127.333 808.333 OFFCURVE",
"96 773 CURVE",
"121 734 LINE",
"143.667 758 OFFCURVE",
"168.667 770 OFFCURVE",
"196 770 CURVE SMOOTH",
"249.488 770 OFFCURVE",
"290.716 728 OFFCURVE",
"334 728 CURVE SMOOTH"
);
}
);
width = 527;
},
{
layerId = "77B00D75-0619-4FB7-8D17-EB9FCD2DF18B";
paths = (
{
closed = 1;
nodes = (
"31 0 LINE",
"130 281 LINE",
"398 281 LINE",
"496 0 LINE",
"517 0 LINE",
"271 700 LINE",
"257 700 LINE",
"12 0 LINE"
);
},
{
closed = 1;
nodes = (
"264 660 LINE",
"391 300 LINE",
"137 300 LINE"
);
},
{
closed = 1;
nodes = (
"132.333 789.333 OFFCURVE",
"160.333 804 OFFCURVE",
"191 804 CURVE SMOOTH",
"239.769 804 OFFCURVE",
"278.054 761 OFFCURVE",
"335 761 CURVE SMOOTH",
"364.333 761 OFFCURVE",
"391.667 772.667 OFFCURVE",
"417 796 CURVE",
"407 813 LINE",
"386.333 791.667 OFFCURVE",
"365.333 781 OFFCURVE",
"344 781 CURVE SMOOTH",
"322.667 781 OFFCURVE",
"303.667 785 OFFCURVE",
"287 793 CURVE SMOOTH",
"243.667 814.333 OFFCURVE",
"213 825 OFFCURVE",
"195 825 CURVE SMOOTH",
"160.333 825 OFFCURVE",
"127.333 808.667 OFFCURVE",
"96 776 CURVE",
"107 760 LINE"
);
}
);
width = 527;
},
{
layerId = "8A94633D-DA21-409C-A8B7-00A83612E8B2";
paths = (
{
closed = 1;
nodes = (
"145 0 LINE",
"184 183 LINE",
"345 183 LINE",
"386 0 LINE",
"517 0 LINE",
"340 700 LINE",
"185 700 LINE",
"21 0 LINE"
);
},
{
closed = 1;
nodes = (
"262 516 LINE",
"319 300 LINE",
"210 300 LINE"
);
},
{
closed = 1;
nodes = (
"359.667 728 OFFCURVE",
"369 729.333 OFFCURVE",
"379 732 CURVE SMOOTH",
"401.667 738 OFFCURVE",
"424.333 754.333 OFFCURVE",
"447 781 CURVE",
"405 846 LINE",
"386.333 825.333 OFFCURVE",
"366.667 814 OFFCURVE",
"346 812 CURVE",
"342.667 811.333 OFFCURVE",
"339 811 OFFCURVE",
"335 811 CURVE SMOOTH",
"318.333 811 OFFCURVE",
"302.667 814.667 OFFCURVE",
"288 822 CURVE",
"268.667 830 OFFCURVE",
"249.333 838 OFFCURVE",
"230 846 CURVE SMOOTH",
"219.333 850 OFFCURVE",
"208 852 OFFCURVE",
"196 852 CURVE SMOOTH",
"186.667 852 OFFCURVE",
"176.667 850.667 OFFCURVE",
"166 848 CURVE SMOOTH",
"142.667 841.333 OFFCURVE",
"119.333 825 OFFCURVE",
"96 799 CURVE",
"135 734 LINE",
"155 755.333 OFFCURVE",
"176 767.333 OFFCURVE",
"198 770 CURVE",
"202 770 OFFCURVE",
"206.333 770 OFFCURVE",
"211 770 CURVE SMOOTH",
"227.667 770 OFFCURVE",
"243.333 766.667 OFFCURVE",
"258 760 CURVE SMOOTH",
"277.333 751.333 OFFCURVE",
"296.667 743 OFFCURVE",
"316 735 CURVE SMOOTH",
"327.333 730.333 OFFCURVE",
"339 728 OFFCURVE",
"351 728 CURVE SMOOTH"
);
}
);
width = 527;
}
);
unicode = 00C3;
},
{
glyphname = AE;
lastChange = "2018-08-09 15:14:16 +0000";
layers = (
{
layerId = "BADA37E3-C95E-4946-BA48-1F986F6D85A7";
paths = (
{
closed = 1;
nodes = (
"137 0 LINE",
"265 245 LINE",
"445 245 LINE",
"444 0 LINE",
"777 0 LINE",
"777 50 LINE",
"501 50 LINE",
"501 358 LINE",
"673 358 LINE",
"692 413 LINE",
"501 413 LINE",
"501 648 LINE",
"779 648 LINE",
"779 700 LINE",
"444 700 LINE",
"78 0 LINE"
);
},
{
closed = 1;
nodes = (
"445 590 LINE",
"445 300 LINE",
"293 300 LINE"
);
}
);
width = 812;
},
{
layerId = "77B00D75-0619-4FB7-8D17-EB9FCD2DF18B";
paths = (
{
closed = 1;
nodes = (
"100 0 LINE",
"247 281 LINE",
"445 281 LINE",
"444 0 LINE",
"777 0 LINE",
"777 20 LINE",
"464 20 LINE",
"464 394 LINE",
"685 394 LINE",
"692 413 LINE",
"464 413 LINE",
"464 681 LINE",
"779 681 LINE",
"779 700 LINE",
"444 700 LINE",
"78 0 LINE"
);
},
{
closed = 1;
nodes = (
"445 664 LINE",
"445 300 LINE",
"256 300 LINE"
);
}
);
width = 818;
},
{
layerId = "8A94633D-DA21-409C-A8B7-00A83612E8B2";
paths = (
{
closed = 1;
nodes = (
"208 0 LINE",
"308 195 LINE",
"445 195 LINE",
"444 0 LINE",
"777 0 LINE",
"777 101 LINE",
"555 101 LINE",
"555 308 LINE",
"673 308 LINE",
"707 413 LINE",
"555 413 LINE",
"555 590 LINE",
"779 590 LINE",
"779 700 LINE",
"444 700 LINE",
"78 0 LINE"
);
},
{
closed = 1;
nodes = (
"445 462 LINE",
"445 300 LINE",
"363 300 LINE"
);
}
);
width = 818;
}
);
unicode = 00C6;
},
{
glyphname = B;
lastChange = "2018-08-09 17:24:01 +0000";
layers = (
{
layerId = "BADA37E3-C95E-4946-BA48-1F986F6D85A7";
paths = (
{
closed = 1;
nodes = (
"308 0 LINE SMOOTH",
"439 0 OFFCURVE",
"511 80 OFFCURVE",
"511 209 CURVE SMOOTH",
"511 305 OFFCURVE",
"465 364 OFFCURVE",
"400 391 CURVE",
"454 423 OFFCURVE",
"475 477 OFFCURVE",
"475 537 CURVE SMOOTH",
"475 639 OFFCURVE",
"411 700 OFFCURVE",
"299 700 CURVE SMOOTH",
"78 700 LINE",
"78 0 LINE"
);
},
{
closed = 1;
nodes = (
"134 358 LINE",
"323 358 LINE SMOOTH",
"392.333 358 OFFCURVE",
"451 312 OFFCURVE",
"451 210 CURVE SMOOTH",
"451 106.333 OFFCURVE",
"402.667 53 OFFCURVE",
"306 53 CURVE SMOOTH",
"134 53 LINE"
);
},
{
closed = 1;
nodes = (
"134 647 LINE",
"291 647 LINE SMOOTH",
"375 647 OFFCURVE",
"417 608 OFFCURVE",
"417 530 CURVE SMOOTH",
"417 454 OFFCURVE",
"371.667 413 OFFCURVE",
"297 413 CURVE SMOOTH",
"134 413 LINE"
);
}
);
width = 544;
},
{
layerId = "77B00D75-0619-4FB7-8D17-EB9FCD2DF18B";
paths = (
{
closed = 1;
nodes = (
"308 0 LINE SMOOTH",
"439 0 OFFCURVE",
"511 80 OFFCURVE",
"511 209 CURVE SMOOTH",
"511 305 OFFCURVE",
"469 372 OFFCURVE",
"378 403 CURVE",
"430 419 OFFCURVE",
"475 465 OFFCURVE",
"475 545 CURVE SMOOTH",
"475 642.667 OFFCURVE",
"408.333 700 OFFCURVE",
"299 700 CURVE SMOOTH",
"78 700 LINE",
"78 0 LINE"
);
},
{
closed = 1;
nodes = (
"97 394 LINE",
"309 394 LINE SMOOTH",
"423.667 394 OFFCURVE",
"492 319.667 OFFCURVE",
"492 205 CURVE SMOOTH",
"492 90.333 OFFCURVE",
"426 19 OFFCURVE",
"306 19 CURVE SMOOTH",
"97 19 LINE"
);
},
{
closed = 1;
nodes = (
"97 681 LINE",
"291 681 LINE SMOOTH",
"404.333 681 OFFCURVE",
"456 625.667 OFFCURVE",
"456 543 CURVE SMOOTH",
"456 469 OFFCURVE",
"403 413 OFFCURVE",
"335 413 CURVE SMOOTH",
"97 413 LINE"
);
}
);
width = 550;
},
{
layerId = "8A94633D-DA21-409C-A8B7-00A83612E8B2";
paths = (
{
closed = 1;
nodes = (
"297 0 LINE SMOOTH",
"441.901 0 OFFCURVE",
"511 91.948 OFFCURVE",
"511 205 CURVE SMOOTH",
"511 295 OFFCURVE",
"465 353 OFFCURVE",
"403 381 CURVE",
"451 411 OFFCURVE",
"475 458 OFFCURVE",
"475 519 CURVE SMOOTH",
"475 636 OFFCURVE",
"392.667 700 OFFCURVE",
"282 700 CURVE SMOOTH",
"78 700 LINE",
"78 0 LINE"
);
},
{
closed = 1;
nodes = (
"188 307 LINE",
"258 307 LINE SMOOTH",
"342.667 307 OFFCURVE",
"385 276 OFFCURVE",
"385 202 CURVE SMOOTH",
"385 120.333 OFFCURVE",
"341 101 OFFCURVE",
"249 101 CURVE SMOOTH",
"188 101 LINE"
);
},
{
closed = 1;
nodes = (
"188 590 LINE",
"246 590 LINE SMOOTH",
"314 590 OFFCURVE",
"347 568.667 OFFCURVE",
"347 506 CURVE SMOOTH",
"347 438 OFFCURVE",
"312 413 OFFCURVE",
"236 413 CURVE SMOOTH",
"188 413 LINE"
);
}
);
width = 550;
}
);
leftKerningGroup = H;
rightKerningGroup = B;
unicode = 0042;
},
{
glyphname = C;
lastChange = "2018-08-09 17:36:33 +0000";
layers = (
{
layerId = "BADA37E3-C95E-4946-BA48-1F986F6D85A7";
paths = (
{
closed = 1;
nodes = (
"316.333 -10 OFFCURVE",
"370.333 1 OFFCURVE",
"427 23 CURVE",
"415 70 LINE",
"358.333 50 OFFCURVE",
"310 40 OFFCURVE",
"270 40 CURVE SMOOTH",
"180 40 OFFCURVE",
"122 87 OFFCURVE",
"122 185 CURVE SMOOTH",
"122 513 LINE SMOOTH",
"122 611 OFFCURVE",
"174 660 OFFCURVE",
"278 660 CURVE SMOOTH",
"312 660 OFFCURVE",
"348 653 OFFCURVE",
"386 639 CURVE",
"402 677 LINE",
"358.667 699 OFFCURVE",
"311.333 710 OFFCURVE",
"260 710 CURVE SMOOTH",
"218.667 710 OFFCURVE",
"183 701.667 OFFCURVE",
"153 685 CURVE SMOOTH",
"94.333 649 OFFCURVE",
"66 605.333 OFFCURVE",
"66 504 CURVE SMOOTH",
"66 183 LINE SMOOTH",
"66 22.813 OFFCURVE",
"173.015 -10 OFFCURVE",
"265 -10 CURVE SMOOTH"
);
}
);
width = 436;
},
{
anchors = (
{
name = bottom;
position = "{254, 0}";
},
{
name = top;
position = "{248, 700}";
}
);
layerId = "77B00D75-0619-4FB7-8D17-EB9FCD2DF18B";
paths = (
{
closed = 1;
nodes = (
"316.333 -10 OFFCURVE",
"370.333 1 OFFCURVE",
"427 23 CURVE",
"421 41 LINE",
"363 18 OFFCURVE",
"309 7 OFFCURVE",
"261 7 CURVE SMOOTH",
"147 7 OFFCURVE",
"85 75 OFFCURVE",
"85 185 CURVE SMOOTH",
"85 513 LINE SMOOTH",
"85 627.948 OFFCURVE",
"149.295 691 OFFCURVE",
"263 691 CURVE SMOOTH",
"303.667 691 OFFCURVE",
"347.333 680.667 OFFCURVE",
"394 660 CURVE",
"402 677 LINE",
"361.333 699 OFFCURVE",
"314 710 OFFCURVE",
"260 710 CURVE SMOOTH",
"218 710 OFFCURVE",
"182.333 701.667 OFFCURVE",
"153 685 CURVE SMOOTH",
"94.333 649 OFFCURVE",
"66 605.333 OFFCURVE",
"66 504 CURVE SMOOTH",
"66 183 LINE SMOOTH",
"66 22.813 OFFCURVE",
"173.015 -10 OFFCURVE",
"265 -10 CURVE SMOOTH"
);
}
);
width = 430;
},
{
layerId = "8A94633D-DA21-409C-A8B7-00A83612E8B2";
paths = (
{
closed = 1;
nodes = (
"311 -10 OFFCURVE",
"375 3 OFFCURVE",
"427 23 CURVE",
"410 127 LINE",
"364 114 OFFCURVE",
"317 102 OFFCURVE",
"265 102 CURVE SMOOTH",
"208 102 OFFCURVE",
"176 121 OFFCURVE",
"176 185 CURVE SMOOTH",
"176 513 LINE SMOOTH",
"176 560 OFFCURVE",
"214 594 OFFCURVE",
"270 594 CURVE SMOOTH",
"306.667 594 OFFCURVE",
"340.333 588.333 OFFCURVE",
"371 577 CURVE",
"402 677 LINE",
"359 699 OFFCURVE",
"309 710 OFFCURVE",
"260 710 CURVE SMOOTH",
"219 710 OFFCURVE",
"183 702 OFFCURVE",
"153 684 CURVE SMOOTH",
"94 649 OFFCURVE",
"66 605 OFFCURVE",
"66 504 CURVE SMOOTH",
"66 183 LINE SMOOTH",
"66 59 OFFCURVE",
"133 -10 OFFCURVE",
"265 -10 CURVE SMOOTH"
);
}
);
width = 430;
}
);
leftKerningGroup = O;
rightKerningGroup = C;
unicode = 0043;
},
{
glyphname = Cacute;
lastChange = "2018-08-09 15:14:16 +0000";
layers = (
{
layerId = "BADA37E3-C95E-4946-BA48-1F986F6D85A7";
paths = (
{
closed = 1;
nodes = (
"316.333 -10 OFFCURVE",
"370.333 1 OFFCURVE",
"427 23 CURVE",
"415 70 LINE",
"358.333 50 OFFCURVE",
"310 40 OFFCURVE",
"270 40 CURVE SMOOTH",
"262.667 40 OFFCURVE",
"255.667 40.667 OFFCURVE",
"249 42 CURVE",
"164.333 50 OFFCURVE",
"122 97.667 OFFCURVE",
"122 185 CURVE SMOOTH",
"122 513 LINE SMOOTH",
"122 611 OFFCURVE",
"174 660 OFFCURVE",
"278 660 CURVE SMOOTH",
"312 660 OFFCURVE",
"348 653 OFFCURVE",
"386 639 CURVE",
"402 677 LINE",
"358.667 699 OFFCURVE",
"311.333 710 OFFCURVE",
"260 710 CURVE SMOOTH",
"218.667 710 OFFCURVE",
"183 701.667 OFFCURVE",
"153 685 CURVE",
"94.333 649 OFFCURVE",
"66 605.333 OFFCURVE",
"66 504 CURVE SMOOTH",
"66 183 LINE SMOOTH",
"66 22.813 OFFCURVE",
"173.015 -10 OFFCURVE",
"265 -10 CURVE SMOOTH"
);
},
{
closed = 1;
nodes = (
"278 734 LINE",
"347 826 LINE",
"350.333 830 OFFCURVE",
"352 834.333 OFFCURVE",
"352 839 CURVE SMOOTH",
"352 843.667 OFFCURVE",
"351.333 848 OFFCURVE",
"350 852 CURVE",
"346 867.333 OFFCURVE",
"335 875 OFFCURVE",
"317 875 CURVE SMOOTH",
"303 875 OFFCURVE",
"292.333 867.333 OFFCURVE",
"285 852 CURVE",
"234 734 LINE"
);
}
);
width = 436;
},
{
layerId = "77B00D75-0619-4FB7-8D17-EB9FCD2DF18B";
paths = (
{
closed = 1;
nodes = (
"316.333 -10 OFFCURVE",
"370.333 1 OFFCURVE",
"427 23 CURVE",
"421 41 LINE",
"362.333 18.333 OFFCURVE",
"308.667 7 OFFCURVE",
"260 7 CURVE SMOOTH",
"204 7 OFFCURVE",
"146.833 20.833 OFFCURVE",
"111.5 77.5 CURVE SMOOTH",
"93.833 105.833 OFFCURVE",
"85 141.667 OFFCURVE",
"85 185 CURVE SMOOTH",
"85 513 LINE SMOOTH",
"85 627.948 OFFCURVE",
"149.295 691 OFFCURVE",
"263 691 CURVE SMOOTH",
"303.667 691 OFFCURVE",
"347.333 680.667 OFFCURVE",
"394 660 CURVE",
"402 677 LINE",
"361.333 699 OFFCURVE",
"314 710 OFFCURVE",
"260 710 CURVE SMOOTH",
"218 710 OFFCURVE",
"182.333 701.667 OFFCURVE",
"153 685 CURVE SMOOTH",
"94.333 649 OFFCURVE",
"66 605.333 OFFCURVE",
"66 504 CURVE SMOOTH",
"66 183 LINE SMOOTH",
"66 22.813 OFFCURVE",
"173.015 -10 OFFCURVE",
"265 -10 CURVE SMOOTH"
);
},
{
closed = 1;
nodes = (
"253 734 LINE",
"316 847 LINE",
"324 859.667 OFFCURVE",
"322.667 868.333 OFFCURVE",
"312 873 CURVE",
"309.333 874.333 OFFCURVE",
"306.667 875 OFFCURVE",
"304 875 CURVE SMOOTH",
"297.333 875 OFFCURVE",
"292.333 870.667 OFFCURVE",
"289 862 CURVE",
"234 734 LINE"
);
}
);
width = 430;
},
{
layerId = "8A94633D-DA21-409C-A8B7-00A83612E8B2";
paths = (
{
closed = 1;
nodes = (
"286.333 -10 OFFCURVE",
"307.667 -8 OFFCURVE",
"329 -4 CURVE SMOOTH",
"361.667 1.333 OFFCURVE",
"394.333 10.333 OFFCURVE",
"427 23 CURVE",
"410 127 LINE",
"389.966 121.435 OFFCURVE",
"344.457 109.29 OFFCURVE",
"324 106.5 CURVE SMOOTH",
"280.845 100.615 OFFCURVE",
"274.438 93.922 OFFCURVE",
"227 111 CURVE",
"207.101 96.786 OFFCURVE",
"183.261 142.342 OFFCURVE",
"176 185 CURVE",
"176 513 LINE SMOOTH",
"176 559.667 OFFCURVE",
"214 594 OFFCURVE",
"270 594 CURVE SMOOTH",
"306.667 594 OFFCURVE",
"340.333 588.333 OFFCURVE",
"371 577 CURVE",
"402 677 LINE",
"362.667 697 OFFCURVE",
"319.667 708 OFFCURVE",
"273 710 CURVE",
"268.333 710 OFFCURVE",
"264 710 OFFCURVE",
"260 710 CURVE SMOOTH",
"218.667 710 OFFCURVE",
"183 701.667 OFFCURVE",
"153 685 CURVE",
"94.333 649 OFFCURVE",
"66 605.333 OFFCURVE",
"66 504 CURVE SMOOTH",
"66 183 LINE SMOOTH",
"66 99 OFFCURVE",
"98.833 41.5 OFFCURVE",
"147.5 15.5 CURVE SMOOTH",
"171.833 2.5 OFFCURVE",
"200 -5.333 OFFCURVE",
"232 -8 CURVE SMOOTH",
"243.333 -9.333 OFFCURVE",
"254.333 -10 OFFCURVE",
"265 -10 CURVE SMOOTH"
);
},
{
closed = 1;
nodes = (
"297 734 LINE",
"346 797 LINE SMOOTH",
"356.667 811 OFFCURVE",
"362 824 OFFCURVE",
"362 836 CURVE SMOOTH",
"362 838 OFFCURVE",
"361.667 840 OFFCURVE",
"361 842 CURVE",
"358.333 855.333 OFFCURVE",
"350.333 865.333 OFFCURVE",
"337 872 CURVE",
"333 874.667 OFFCURVE",
"328 876 OFFCURVE",
"322 876 CURVE SMOOTH",
"316.667 876 OFFCURVE",
"310.333 874.667 OFFCURVE",
"303 872 CURVE",
"287.667 867.333 OFFCURVE",
"276.667 857.333 OFFCURVE",
"270 842 CURVE SMOOTH",
"224 734 LINE"
);
}
);
width = 430;
}
);
unicode = 0106;
},
{
glyphname = Ccaron;
lastChange = "2018-08-09 15:14:16 +0000";
layers = (
{
layerId = "BADA37E3-C95E-4946-BA48-1F986F6D85A7";
paths = (
{
closed = 1;
nodes = (
"316.333 -10 OFFCURVE",
"370.333 1 OFFCURVE",
"427 23 CURVE",
"415 70 LINE",
"358.333 50 OFFCURVE",
"310 40 OFFCURVE",
"270 40 CURVE SMOOTH",
"262.667 40 OFFCURVE",
"255.667 40.667 OFFCURVE",
"249 42 CURVE",
"164.333 50 OFFCURVE",
"122 97.667 OFFCURVE",
"122 185 CURVE SMOOTH",
"122 513 LINE SMOOTH",
"122 611 OFFCURVE",
"174 660 OFFCURVE",
"278 660 CURVE SMOOTH",
"312 660 OFFCURVE",
"348 653 OFFCURVE",
"386 639 CURVE",
"402 677 LINE",
"358.667 699 OFFCURVE",
"311.333 710 OFFCURVE",
"260 710 CURVE SMOOTH",
"218.667 710 OFFCURVE",
"183 701.667 OFFCURVE",
"153 685 CURVE",
"94.333 649 OFFCURVE",
"66 605.333 OFFCURVE",
"66 504 CURVE SMOOTH",
"66 183 LINE SMOOTH",
"66 22.813 OFFCURVE",
"173.015 -10 OFFCURVE",
"265 -10 CURVE SMOOTH"
);
},
{
closed = 1;
nodes = (
"398 874 LINE",
"360 913 LINE",
"255 809 LINE",
"146 913 LINE",
"108 874 LINE",
"256 733 LINE"
);
}
);
width = 436;
},
{
layerId = "77B00D75-0619-4FB7-8D17-EB9FCD2DF18B";
paths = (
{
closed = 1;
nodes = (
"316.333 -10 OFFCURVE",
"370.333 1 OFFCURVE",
"427 23 CURVE",
"421 41 LINE",
"362.333 18.333 OFFCURVE",
"308.667 7 OFFCURVE",
"260 7 CURVE SMOOTH",
"204 7 OFFCURVE",
"146.833 20.833 OFFCURVE",
"111.5 77.5 CURVE SMOOTH",
"93.833 105.833 OFFCURVE",
"85 141.667 OFFCURVE",
"85 185 CURVE SMOOTH",
"85 513 LINE SMOOTH",
"85 627.948 OFFCURVE",
"149.295 691 OFFCURVE",
"263 691 CURVE SMOOTH",
"303.667 691 OFFCURVE",
"347.333 680.667 OFFCURVE",
"394 660 CURVE",
"402 677 LINE",
"361.333 699 OFFCURVE",
"314 710 OFFCURVE",
"260 710 CURVE SMOOTH",
"218 710 OFFCURVE",
"182.333 701.667 OFFCURVE",
"153 685 CURVE SMOOTH",
"94.333 649 OFFCURVE",
"66 605.333 OFFCURVE",
"66 504 CURVE SMOOTH",
"66 183 LINE SMOOTH",
"66 22.813 OFFCURVE",
"173.015 -10 OFFCURVE",
"265 -10 CURVE SMOOTH"
);
},
{
closed = 1;
nodes = (
"398 874 LINE",
"383 889 LINE",
"255 763 LINE",
"123 889 LINE",
"108 874 LINE",
"256 733 LINE"
);
}
);
width = 430;
},
{
layerId = "8A94633D-DA21-409C-A8B7-00A83612E8B2";
paths = (
{
closed = 1;
nodes = (
"286.333 -10 OFFCURVE",
"307.667 -8 OFFCURVE",
"329 -4 CURVE SMOOTH",
"361.667 1.333 OFFCURVE",
"394.333 10.333 OFFCURVE",
"427 23 CURVE",
"410 127 LINE",
"389.966 121.435 OFFCURVE",
"344.457 109.29 OFFCURVE",
"324 106.5 CURVE SMOOTH",
"280.845 100.615 OFFCURVE",
"274.438 93.922 OFFCURVE",
"227 111 CURVE",
"207.101 96.786 OFFCURVE",
"183.261 142.342 OFFCURVE",
"176 185 CURVE",
"176 513 LINE SMOOTH",
"176 559.667 OFFCURVE",
"214 594 OFFCURVE",
"270 594 CURVE SMOOTH",
"306.667 594 OFFCURVE",
"340.333 588.333 OFFCURVE",
"371 577 CURVE",
"402 677 LINE",
"362.667 697 OFFCURVE",
"319.667 708 OFFCURVE",
"273 710 CURVE",
"268.333 710 OFFCURVE",
"264 710 OFFCURVE",
"260 710 CURVE SMOOTH",
"218.667 710 OFFCURVE",
"183 701.667 OFFCURVE",
"153 685 CURVE",
"94.333 649 OFFCURVE",
"66 605.333 OFFCURVE",
"66 504 CURVE SMOOTH",
"66 183 LINE SMOOTH",
"66 99 OFFCURVE",
"98.833 41.5 OFFCURVE",
"147.5 15.5 CURVE SMOOTH",
"171.833 2.5 OFFCURVE",
"200 -5.333 OFFCURVE",
"232 -8 CURVE SMOOTH",
"243.333 -9.333 OFFCURVE",
"254.333 -10 OFFCURVE",
"265 -10 CURVE SMOOTH"
);
},
{
closed = 1;
nodes = (
"398 875 LINE",
"331 914 LINE",
"255 831 LINE",
"174 914 LINE",
"108 875 LINE",
"256 734 LINE"
);
}
);
width = 430;
}
);
unicode = 010C;
},
{
glyphname = Ccedilla;
lastChange = "2018-08-09 17:36:47 +0000";
layers = (
{
layerId = "BADA37E3-C95E-4946-BA48-1F986F6D85A7";
paths = (
{
closed = 1;
nodes = (
"200.059 -214.772 OFFCURVE",
"263.817 -217.304 OFFCURVE",
"314 -189.5 CURVE SMOOTH",
"338.667 -175.833 OFFCURVE",
"351 -155.167 OFFCURVE",
"351 -127.5 CURVE SMOOTH",
"351 -54 OFFCURVE",
"270 -27 OFFCURVE",
"234 -53 CURVE",
"266 -10 LINE",
"318.667 -8.667 OFFCURVE",
"372.333 2.333 OFFCURVE",
"427 23 CURVE",
"415 70 LINE",
"358.333 50 OFFCURVE",
"310 40 OFFCURVE",
"270 40 CURVE SMOOTH",
"262.667 40 OFFCURVE",
"255.667 40.667 OFFCURVE",
"249 42 CURVE",
"164.333 50 OFFCURVE",
"122 97.667 OFFCURVE",
"122 185 CURVE SMOOTH",
"122 513 LINE SMOOTH",
"122 611 OFFCURVE",
"174 660 OFFCURVE",
"278 660 CURVE SMOOTH",
"312 660 OFFCURVE",
"348 653 OFFCURVE",
"386 639 CURVE",
"402 677 LINE",
"358.667 699 OFFCURVE",
"311.333 710 OFFCURVE",
"260 710 CURVE SMOOTH",
"218.667 710 OFFCURVE",
"183 701.667 OFFCURVE",
"153 685 CURVE",
"94.333 649 OFFCURVE",
"66 605.333 OFFCURVE",
"66 504 CURVE SMOOTH",
"66 183 LINE SMOOTH",
"66 61.667 OFFCURVE",
"129 2.667 OFFCURVE",
"225 -8 CURVE",
"171 -78 LINE",
"188 -106 LINE",
"222 -92 LINE",
"235.333 -87.333 OFFCURVE",
"246.667 -85 OFFCURVE",
"256 -85 CURVE SMOOTH",
"265.333 -85 OFFCURVE",
"272.667 -86.333 OFFCURVE",
"278 -89 CURVE SMOOTH",
"292 -95.667 OFFCURVE",
"299 -106.333 OFFCURVE",
"299 -121 CURVE SMOOTH",
"299 -149 OFFCURVE",
"275.333 -163 OFFCURVE",
"228 -163 CURVE SMOOTH",
"206.667 -163 OFFCURVE",
"183.667 -154.667 OFFCURVE",
"159 -138 CURVE",
"135 -191 LINE"
);
}
);
width = 436;
},
{
components = (
{
name = C;
},
{
name = cedillacomb;
transform = "{1, 0, 0, 1, 11, 0}";
}
);
layerId = "77B00D75-0619-4FB7-8D17-EB9FCD2DF18B";
width = 430;
},
{
layerId = "8A94633D-DA21-409C-A8B7-00A83612E8B2";
paths = (
{
closed = 1;
nodes = (
"295 -232 OFFCURVE",
"367 -196.333 OFFCURVE",
"367 -123 CURVE SMOOTH",
"367 -65.667 OFFCURVE",
"326.333 -31 OFFCURVE",
"281 -31 CURVE SMOOTH",
"271 -31 OFFCURVE",
"259.667 -33.333 OFFCURVE",
"247 -38 CURVE",
"266 -10 LINE",
"318.667 -9.333 OFFCURVE",
"372.333 1.667 OFFCURVE",
"427 23 CURVE",
"410 127 LINE",
"389.966 121.435 OFFCURVE",
"344.457 109.29 OFFCURVE",
"324 106.5 CURVE SMOOTH",
"280.845 100.615 OFFCURVE",
"274.438 93.922 OFFCURVE",
"227 111 CURVE",
"207.101 96.786 OFFCURVE",
"183.261 142.342 OFFCURVE",
"176 185 CURVE",
"176 513 LINE SMOOTH",
"176 559.667 OFFCURVE",
"214 594 OFFCURVE",
"270 594 CURVE SMOOTH",
"306.667 594 OFFCURVE",
"340.333 588.333 OFFCURVE",
"371 577 CURVE",
"402 677 LINE",
"362.667 697 OFFCURVE",
"319.667 708 OFFCURVE",
"273 710 CURVE",
"268.333 710 OFFCURVE",
"264 710 OFFCURVE",
"260 710 CURVE SMOOTH",
"218.667 710 OFFCURVE",
"183 701.667 OFFCURVE",
"153 685 CURVE",
"94.333 649 OFFCURVE",
"66 605.333 OFFCURVE",
"66 504 CURVE SMOOTH",
"66 183 LINE SMOOTH",
"66 77.667 OFFCURVE",
"111 15.333 OFFCURVE",
"201 -4 CURVE",
"143 -78 LINE",
"178 -128 LINE",
"222 -106 LINE SMOOTH",
"238.667 -98 OFFCURVE",
"253 -94 OFFCURVE",
"265 -94 CURVE SMOOTH",
"269.667 -94 OFFCURVE",
"273.667 -94.667 OFFCURVE",
"277 -96 CURVE",
"321.815 -109.445 OFFCURVE",
"290.701 -163 OFFCURVE",
"237 -163 CURVE SMOOTH",
"209.667 -163 OFFCURVE",
"183.667 -154.667 OFFCURVE",
"159 -138 CURVE",
"125 -211 LINE",
"163 -225 OFFCURVE",
"197 -232 OFFCURVE",
"227 -232 CURVE SMOOTH"
);
}
);
width = 430;
}
);
unicode = 00C7;
},
{
glyphname = Ccircumflex;
lastChange = "2018-08-09 15:14:16 +0000";
layers = (
{
layerId = "BADA37E3-C95E-4946-BA48-1F986F6D85A7";
paths = (
{
closed = 1;
nodes = (
"316.333 -10 OFFCURVE",
"370.333 1 OFFCURVE",
"427 23 CURVE",
"415 70 LINE",
"358.333 50 OFFCURVE",
"310 40 OFFCURVE",
"270 40 CURVE SMOOTH",
"262.667 40 OFFCURVE",
"255.667 40.667 OFFCURVE",
"249 42 CURVE",
"164.333 50 OFFCURVE",
"122 97.667 OFFCURVE",
"122 185 CURVE SMOOTH",
"122 513 LINE SMOOTH",
"122 611 OFFCURVE",
"174 660 OFFCURVE",
"278 660 CURVE SMOOTH",
"312 660 OFFCURVE",
"348 653 OFFCURVE",
"386 639 CURVE",
"402 677 LINE",
"358.667 699 OFFCURVE",
"311.333 710 OFFCURVE",
"260 710 CURVE SMOOTH",
"218.667 710 OFFCURVE",
"183 701.667 OFFCURVE",
"153 685 CURVE",
"94.333 649 OFFCURVE",
"66 605.333 OFFCURVE",
"66 504 CURVE SMOOTH",
"66 183 LINE SMOOTH",
"66 22.813 OFFCURVE",
"173.015 -10 OFFCURVE",
"265 -10 CURVE SMOOTH"
);
},
{
closed = 1;
nodes = (
"278 837 LINE",
"383 733 LINE",
"421 772 LINE",
"279 913 LINE",
"131 772 LINE",
"169 733 LINE"
);
}
);
width = 436;
},
{
layerId = "77B00D75-0619-4FB7-8D17-EB9FCD2DF18B";
paths = (
{
closed = 1;
nodes = (
"316.333 -10 OFFCURVE",
"370.333 1 OFFCURVE",
"427 23 CURVE",
"421 41 LINE",
"362.333 18.333 OFFCURVE",
"308.667 7 OFFCURVE",
"260 7 CURVE SMOOTH",
"204 7 OFFCURVE",
"146.833 20.833 OFFCURVE",
"111.5 77.5 CURVE SMOOTH",
"93.833 105.833 OFFCURVE",
"85 141.667 OFFCURVE",
"85 185 CURVE SMOOTH",
"85 513 LINE SMOOTH",
"85 627.948 OFFCURVE",
"149.295 691 OFFCURVE",
"263 691 CURVE SMOOTH",
"303.667 691 OFFCURVE",
"347.333 680.667 OFFCURVE",
"394 660 CURVE",
"402 677 LINE",
"361.333 699 OFFCURVE",
"314 710 OFFCURVE",
"260 710 CURVE SMOOTH",
"218 710 OFFCURVE",
"182.333 701.667 OFFCURVE",
"153 685 CURVE SMOOTH",
"94.333 649 OFFCURVE",
"66 605.333 OFFCURVE",
"66 504 CURVE SMOOTH",
"66 183 LINE SMOOTH",
"66 22.813 OFFCURVE",
"173.015 -10 OFFCURVE",
"265 -10 CURVE SMOOTH"
);
},
{
closed = 1;
nodes = (
"278 883 LINE",
"404 756 LINE",
"421 772 LINE",
"279 913 LINE",
"131 772 LINE",
"147 756 LINE"
);
}
);
width = 430;
},
{
layerId = "8A94633D-DA21-409C-A8B7-00A83612E8B2";
paths = (
{
closed = 1;
nodes = (
"286.333 -10 OFFCURVE",
"307.667 -8 OFFCURVE",
"329 -4 CURVE SMOOTH",
"361.667 1.333 OFFCURVE",
"394.333 10.333 OFFCURVE",
"427 23 CURVE",
"410 127 LINE",
"389.966 121.435 OFFCURVE",
"344.457 109.29 OFFCURVE",
"324 106.5 CURVE SMOOTH",
"280.845 100.615 OFFCURVE",
"274.438 93.922 OFFCURVE",
"227 111 CURVE",
"207.101 96.786 OFFCURVE",
"183.261 142.342 OFFCURVE",
"176 185 CURVE",
"176 513 LINE SMOOTH",
"176 559.667 OFFCURVE",
"214 594 OFFCURVE",
"270 594 CURVE SMOOTH",
"306.667 594 OFFCURVE",
"340.333 588.333 OFFCURVE",
"371 577 CURVE",
"402 677 LINE",
"362.667 697 OFFCURVE",
"319.667 708 OFFCURVE",
"273 710 CURVE",
"268.333 710 OFFCURVE",
"264 710 OFFCURVE",
"260 710 CURVE SMOOTH",
"218.667 710 OFFCURVE",
"183 701.667 OFFCURVE",
"153 685 CURVE",
"94.333 649 OFFCURVE",
"66 605.333 OFFCURVE",
"66 504 CURVE SMOOTH",
"66 183 LINE SMOOTH",
"66 99 OFFCURVE",
"98.833 41.5 OFFCURVE",
"147.5 15.5 CURVE SMOOTH",
"171.833 2.5 OFFCURVE",
"200 -5.333 OFFCURVE",
"232 -8 CURVE SMOOTH",
"243.333 -9.333 OFFCURVE",
"254.333 -10 OFFCURVE",
"265 -10 CURVE SMOOTH"
);
},
{
closed = 1;
nodes = (
"249 814 LINE",
"325 731 LINE",
"392 770 LINE",
"250 911 LINE",
"102 770 LINE",
"168 731 LINE"
);
}
);
width = 430;
}
);
unicode = 0108;
},
{
glyphname = Cdotaccent;
lastChange = "2018-08-09 15:14:23 +0000";
layers = (
{
layerId = "BADA37E3-C95E-4946-BA48-1F986F6D85A7";
paths = (
{
closed = 1;
nodes = (
"316.333 -10 OFFCURVE",
"370.333 1 OFFCURVE",
"427 23 CURVE",
"415 70 LINE",
"358.333 50 OFFCURVE",
"310 40 OFFCURVE",
"270 40 CURVE SMOOTH",
"262.667 40 OFFCURVE",
"255.667 40.667 OFFCURVE",
"249 42 CURVE",
"164.333 50 OFFCURVE",
"122 97.667 OFFCURVE",
"122 185 CURVE SMOOTH",
"122 513 LINE SMOOTH",
"122 611 OFFCURVE",
"174 660 OFFCURVE",
"278 660 CURVE SMOOTH",
"312 660 OFFCURVE",
"348 653 OFFCURVE",
"386 639 CURVE",
"402 677 LINE",
"358.667 699 OFFCURVE",
"311.333 710 OFFCURVE",
"260 710 CURVE SMOOTH",
"218.667 710 OFFCURVE",
"183 701.667 OFFCURVE",
"153 685 CURVE",
"94.333 649 OFFCURVE",
"66 605.333 OFFCURVE",
"66 504 CURVE SMOOTH",
"66 183 LINE SMOOTH",
"66 22.813 OFFCURVE",
"173.015 -10 OFFCURVE",
"265 -10 CURVE SMOOTH"
);
},
{
closed = 1;
nodes = (
"232 719.795 OFFCURVE",
"299 719.387 OFFCURVE",
"299 764 CURVE SMOOTH",
"299 808.821 OFFCURVE",
"232 805.996 OFFCURVE",
"232 763.5 CURVE SMOOTH"
);
}
);
width = 436;
},
{
layerId = "77B00D75-0619-4FB7-8D17-EB9FCD2DF18B";
paths = (
{
closed = 1;
nodes = (
"316.333 -10 OFFCURVE",
"370.333 1 OFFCURVE",
"427 23 CURVE",
"421 41 LINE",
"362.333 18.333 OFFCURVE",
"308.667 7 OFFCURVE",
"260 7 CURVE SMOOTH",
"204 7 OFFCURVE",
"146.833 20.833 OFFCURVE",
"111.5 77.5 CURVE SMOOTH",
"93.833 105.833 OFFCURVE",
"85 141.667 OFFCURVE",
"85 185 CURVE SMOOTH",
"85 513 LINE SMOOTH",
"85 627.948 OFFCURVE",
"149.295 691 OFFCURVE",
"263 691 CURVE SMOOTH",
"303.667 691 OFFCURVE",
"347.333 680.667 OFFCURVE",
"394 660 CURVE",
"402 677 LINE",
"361.333 699 OFFCURVE",
"314 710 OFFCURVE",
"260 710 CURVE SMOOTH",
"218 710 OFFCURVE",
"182.333 701.667 OFFCURVE",
"153 685 CURVE SMOOTH",
"94.333 649 OFFCURVE",
"66 605.333 OFFCURVE",
"66 504 CURVE SMOOTH",
"66 183 LINE SMOOTH",
"66 22.813 OFFCURVE",
"173.015 -10 OFFCURVE",
"265 -10 CURVE SMOOTH"
);
},
{
closed = 1;
nodes = (
"278.705 782.41 OFFCURVE",
"279 783 OFFCURVE",
"279 783 CURVE"
);
}
);
width = 430;
},
{
layerId = "8A94633D-DA21-409C-A8B7-00A83612E8B2";
paths = (
{
closed = 1;
nodes = (
"286.333 -10 OFFCURVE",
"307.667 -8 OFFCURVE",
"329 -4 CURVE SMOOTH",
"361.667 1.333 OFFCURVE",
"394.333 10.333 OFFCURVE",
"427 23 CURVE",
"410 127 LINE",
"389.966 121.435 OFFCURVE",
"344.457 109.29 OFFCURVE",
"324 106.5 CURVE SMOOTH",
"280.845 100.615 OFFCURVE",
"274.438 93.922 OFFCURVE",
"227 111 CURVE",
"207.101 96.786 OFFCURVE",
"183.261 142.342 OFFCURVE",
"176 185 CURVE",
"176 513 LINE SMOOTH",
"176 559.667 OFFCURVE",
"214 594 OFFCURVE",
"270 594 CURVE SMOOTH",
"306.667 594 OFFCURVE",
"340.333 588.333 OFFCURVE",
"371 577 CURVE",
"402 677 LINE",
"362.667 697 OFFCURVE",
"319.667 708 OFFCURVE",
"273 710 CURVE",
"268.333 710 OFFCURVE",
"264 710 OFFCURVE",
"260 710 CURVE SMOOTH",
"218.667 710 OFFCURVE",
"183 701.667 OFFCURVE",
"153 685 CURVE",
"94.333 649 OFFCURVE",
"66 605.333 OFFCURVE",
"66 504 CURVE SMOOTH",
"66 183 LINE SMOOTH",
"66 99 OFFCURVE",
"98.833 41.5 OFFCURVE",
"147.5 15.5 CURVE SMOOTH",
"171.833 2.5 OFFCURVE",
"200 -5.333 OFFCURVE",
"232 -8 CURVE SMOOTH",
"243.333 -9.333 OFFCURVE",
"254.333 -10 OFFCURVE",
"265 -10 CURVE SMOOTH"
);
},
{
closed = 1;
nodes = (
"296.667 730 OFFCURVE",
"324 758 OFFCURVE",
"324 790 CURVE SMOOTH",
"324 820.667 OFFCURVE",
"296.667 848 OFFCURVE",
"266 848 CURVE SMOOTH",
"234 848 OFFCURVE",
"206 820.667 OFFCURVE",
"206 790 CURVE SMOOTH",
"206 758 OFFCURVE",
"234 730 OFFCURVE",
"266 730 CURVE SMOOTH"
);
}
);
width = 430;
}
);
unicode = 010A;
},
{
glyphname = D;
lastChange = "2018-08-09 17:24:07 +0000";
layers = (
{
layerId = "BADA37E3-C95E-4946-BA48-1F986F6D85A7";
paths = (
{
closed = 1;
nodes = (
"286 0 LINE SMOOTH",
"427.333 0 OFFCURVE",
"498 66.667 OFFCURVE",
"498 200 CURVE SMOOTH",
"498 474 LINE SMOOTH",
"498 611.333 OFFCURVE",
"416.667 701 OFFCURVE",
"266 701 CURVE SMOOTH",
"78 701 LINE",
"78 0 LINE"
);
},
{
closed = 1;
nodes = (
"134 650 LINE",
"276 650 LINE SMOOTH",
"364 650 OFFCURVE",
"442 596 OFFCURVE",
"442 484 CURVE SMOOTH",
"442 190 LINE SMOOTH",
"442 96.667 OFFCURVE",
"384.667 50 OFFCURVE",
"270 50 CURVE SMOOTH",
"134 50 LINE"
);
}
);
width = 576;
},
{
layerId = "77B00D75-0619-4FB7-8D17-EB9FCD2DF18B";
paths = (
{
closed = 1;
nodes = (
"286 0 LINE SMOOTH",
"427.333 0 OFFCURVE",
"498 66.667 OFFCURVE",
"498 200 CURVE SMOOTH",
"498 474 LINE SMOOTH",
"498 611.333 OFFCURVE",
"416.667 701 OFFCURVE",
"266 701 CURVE SMOOTH",
"78 701 LINE",
"78 0 LINE"
);
},
{
closed = 1;
nodes = (
"97 680 LINE",
"276 680 LINE SMOOTH",
"390.667 680 OFFCURVE",
"479 610.667 OFFCURVE",
"479 468 CURVE SMOOTH",
"479 214 LINE SMOOTH",
"479 75 OFFCURVE",
"413 20 OFFCURVE",
"276 20 CURVE SMOOTH",
"97 20 LINE"
);
}
);
width = 576;
},
{
layerId = "8A94633D-DA21-409C-A8B7-00A83612E8B2";
paths = (
{
closed = 1;
nodes = (
"286 0 LINE SMOOTH",
"427.333 0 OFFCURVE",
"498 66.667 OFFCURVE",
"498 200 CURVE SMOOTH",
"498 474 LINE SMOOTH",
"498 611.333 OFFCURVE",
"416.667 701 OFFCURVE",
"266 701 CURVE SMOOTH",
"78 701 LINE",
"78 0 LINE"
);
},
{
closed = 1;
nodes = (
"188 590 LINE",
"276 590 LINE SMOOTH",
"352 590 OFFCURVE",
"388 557.333 OFFCURVE",
"388 484 CURVE SMOOTH",
"388 190 LINE SMOOTH",
"388 113.132 OFFCURVE",
"336.46 101 OFFCURVE",
"270 101 CURVE SMOOTH",
"188 101 LINE"
);
}
);
width = 576;
}
);
leftKerningGroup = H;
rightKerningGroup = O;
unicode = 0044;
},
{
glyphname = Eth;
lastChange = "2018-08-09 15:14:16 +0000";
layers = (
{
layerId = "BADA37E3-C95E-4946-BA48-1F986F6D85A7";
paths = (
{
closed = 1;
nodes = (
"335 0 LINE SMOOTH",
"476.333 0 OFFCURVE",
"547 66.667 OFFCURVE",
"547 200 CURVE SMOOTH",
"547 483 LINE",
"605 483 LINE",
"605 538 LINE",
"540 538 LINE",
"517.333 638 OFFCURVE",
"439 701 OFFCURVE",
"315 701 CURVE SMOOTH",
"127 701 LINE",
"127 538 LINE",
"78 538 LINE",
"78 483 LINE",
"127 483 LINE",
"127 0 LINE"
);
},
{
closed = 1;
nodes = (
"183 483 LINE",
"491 483 LINE",
"491 190 LINE SMOOTH",
"491 96.667 OFFCURVE",
"433.667 50 OFFCURVE",
"319 50 CURVE SMOOTH",
"183 50 LINE"
);
},
{
closed = 1;
nodes = (
"183 650 LINE",
"325 650 LINE SMOOTH",
"394.333 650 OFFCURVE",
"462.667 612.667 OFFCURVE",
"484 538 CURVE",
"183 538 LINE"
);
}
);
width = 638;
},
{
layerId = "77B00D75-0619-4FB7-8D17-EB9FCD2DF18B";
paths = (
{
closed = 1;
nodes = (
"335 0 LINE SMOOTH",
"476.333 0 OFFCURVE",
"547 66.667 OFFCURVE",
"547 200 CURVE SMOOTH",
"547 474 LINE SMOOTH",
"547 488.667 OFFCURVE",
"546 503.667 OFFCURVE",
"544 519 CURVE",
"605 519 LINE",
"605 538 LINE",
"540 538 LINE",
"517.333 638 OFFCURVE",
"439 701 OFFCURVE",
"315 701 CURVE SMOOTH",
"127 701 LINE",
"127 538 LINE",
"78 538 LINE",
"78 519 LINE",
"127 519 LINE",
"127 0 LINE"
);
},
{
closed = 1;
nodes = (
"146 519 LINE",
"524 519 LINE",
"526.667 497.667 OFFCURVE",
"528 480.667 OFFCURVE",
"528 468 CURVE SMOOTH",
"528 214 LINE SMOOTH",
"528 143.333 OFFCURVE",
"504.5 90.5 OFFCURVE",
"478.5 64.5 CURVE SMOOTH",
"465.5 51.5 OFFCURVE",
"448.5 41.5 OFFCURVE",
"427.5 34.5 CURVE SMOOTH",
"406.5 27.5 OFFCURVE",
"372.333 22.667 OFFCURVE",
"325 20 CURVE",
"146 20 LINE"
);
},
{
closed = 1;
nodes = (
"146 680 LINE",
"325 680 LINE SMOOTH",
"418.333 680 OFFCURVE",
"496 634 OFFCURVE",
"520 538 CURVE",
"146 538 LINE"
);
}
);
width = 644;
},
{
layerId = "8A94633D-DA21-409C-A8B7-00A83612E8B2";
paths = (
{
closed = 1;
nodes = (
"335 0 LINE SMOOTH",
"476.333 0 OFFCURVE",
"547 66.667 OFFCURVE",
"547 200 CURVE SMOOTH",
"547 395 LINE",
"605 395 LINE",
"605 500 LINE",
"546 500 LINE",
"535.333 622.667 OFFCURVE",
"455 701 OFFCURVE",
"315 701 CURVE SMOOTH",
"127 701 LINE",
"127 500 LINE",
"78 500 LINE",
"78 395 LINE",
"127 395 LINE",
"127 0 LINE"
);
},
{
closed = 1;
nodes = (
"237 395 LINE",
"437 395 LINE",
"437 190 LINE SMOOTH",
"437 113.132 OFFCURVE",
"385.46 101 OFFCURVE",
"319 101 CURVE SMOOTH",
"237 101 LINE"
);
},
{
closed = 1;
nodes = (
"237 590 LINE",
"325 590 LINE SMOOTH",
"394.333 590 OFFCURVE",
"431.333 560 OFFCURVE",
"436 500 CURVE",
"237 500 LINE"
);
}
);
width = 644;
}
);
unicode = 00D0;
},
{
glyphname = Dcaron;
lastChange = "2018-08-09 15:14:16 +0000";
layers = (
{
layerId = "BADA37E3-C95E-4946-BA48-1F986F6D85A7";
paths = (
{
closed = 1;
nodes = (
"286 0 LINE SMOOTH",
"427.333 0 OFFCURVE",
"498 66.667 OFFCURVE",
"498 200 CURVE SMOOTH",
"498 474 LINE SMOOTH",
"498 611.333 OFFCURVE",
"416.667 701 OFFCURVE",
"266 701 CURVE SMOOTH",
"78 701 LINE",
"78 0 LINE"
);
},
{
closed = 1;
nodes = (
"134 650 LINE",
"276 650 LINE SMOOTH",
"364 650 OFFCURVE",
"442 596 OFFCURVE",
"442 484 CURVE SMOOTH",
"442 190 LINE SMOOTH",
"442 96.667 OFFCURVE",
"384.667 50 OFFCURVE",
"270 50 CURVE SMOOTH",
"134 50 LINE"
);
},
{
closed = 1;
nodes = (
"416 875 LINE",
"378 914 LINE",
"273 810 LINE",
"164 914 LINE",
"126 875 LINE",
"274 734 LINE"
);
}
);
width = 576;
},
{
layerId = "77B00D75-0619-4FB7-8D17-EB9FCD2DF18B";
paths = (
{
closed = 1;
nodes = (
"286 0 LINE SMOOTH",
"427.333 0 OFFCURVE",
"498 66.667 OFFCURVE",
"498 200 CURVE SMOOTH",
"498 474 LINE SMOOTH",
"498 611.333 OFFCURVE",
"416.667 701 OFFCURVE",
"266 701 CURVE SMOOTH",
"78 701 LINE",
"78 0 LINE"
);
},
{
closed = 1;
nodes = (
"97 680 LINE",
"276 680 LINE SMOOTH",
"390.667 680 OFFCURVE",
"479 610.667 OFFCURVE",
"479 468 CURVE SMOOTH",
"479 214 LINE SMOOTH",
"479 143.333 OFFCURVE",
"455.5 90.5 OFFCURVE",
"429.5 64.5 CURVE SMOOTH",
"416.5 51.5 OFFCURVE",
"399.5 41.5 OFFCURVE",
"378.5 34.5 CURVE SMOOTH",
"357.5 27.5 OFFCURVE",
"323.333 22.667 OFFCURVE",
"276 20 CURVE",
"97 20 LINE"
);
},
{
closed = 1;
nodes = (
"416 875 LINE",
"401 890 LINE",
"273 764 LINE",
"141 890 LINE",
"126 875 LINE",
"274 734 LINE"
);
}
);
width = 576;
},
{
layerId = "8A94633D-DA21-409C-A8B7-00A83612E8B2";
paths = (
{
closed = 1;
nodes = (
"286 0 LINE SMOOTH",
"427.333 0 OFFCURVE",
"498 66.667 OFFCURVE",
"498 200 CURVE SMOOTH",
"498 474 LINE SMOOTH",
"498 611.333 OFFCURVE",
"416.667 701 OFFCURVE",
"266 701 CURVE SMOOTH",
"78 701 LINE",
"78 0 LINE"
);
},
{
closed = 1;
nodes = (
"188 590 LINE",
"276 590 LINE SMOOTH",
"352 590 OFFCURVE",
"388 557.333 OFFCURVE",
"388 484 CURVE SMOOTH",
"388 190 LINE SMOOTH",
"388 113.132 OFFCURVE",
"336.46 101 OFFCURVE",
"270 101 CURVE SMOOTH",
"188 101 LINE"
);
},
{
closed = 1;
nodes = (
"416 875 LINE",
"349 914 LINE",
"273 831 LINE",
"192 914 LINE",
"126 875 LINE",
"274 734 LINE"
);
}
);
width = 576;
}
);
unicode = 010E;
},
{
glyphname = Dcroat;
lastChange = "2018-08-09 15:14:16 +0000";
layers = (
{
layerId = "BADA37E3-C95E-4946-BA48-1F986F6D85A7";
paths = (
{
closed = 1;
nodes = (
"286 0 LINE SMOOTH",
"427.333 0 OFFCURVE",
"498 66.667 OFFCURVE",
"498 200 CURVE SMOOTH",
"498 474 LINE SMOOTH",
"498 611.333 OFFCURVE",
"416.667 701 OFFCURVE",
"266 701 CURVE SMOOTH",
"78 701 LINE",
"78 0 LINE"
);
},
{
closed = 1;
nodes = (
"134 650 LINE",
"276 650 LINE SMOOTH",
"364 650 OFFCURVE",
"442 596 OFFCURVE",
"442 484 CURVE SMOOTH",
"442 190 LINE SMOOTH",
"442 96.667 OFFCURVE",
"384.667 50 OFFCURVE",
"270 50 CURVE SMOOTH",
"134 50 LINE"
);
},
{
closed = 1;
nodes = (
"392 730 LINE",
"392 788 LINE",
"175 788 LINE",
"175 730 LINE"
);
}
);
width = 576;
},
{
layerId = "77B00D75-0619-4FB7-8D17-EB9FCD2DF18B";
paths = (
{
closed = 1;
nodes = (
"286 0 LINE SMOOTH",
"427.333 0 OFFCURVE",
"498 66.667 OFFCURVE",
"498 200 CURVE SMOOTH",
"498 474 LINE SMOOTH",
"498 611.333 OFFCURVE",
"416.667 701 OFFCURVE",
"266 701 CURVE SMOOTH",
"78 701 LINE",
"78 0 LINE"
);
},
{
closed = 1;
nodes = (
"97 680 LINE",
"276 680 LINE SMOOTH",
"390.667 680 OFFCURVE",
"479 610.667 OFFCURVE",
"479 468 CURVE SMOOTH",
"479 214 LINE SMOOTH",
"479 143.333 OFFCURVE",
"455.5 90.5 OFFCURVE",
"429.5 64.5 CURVE SMOOTH",
"416.5 51.5 OFFCURVE",
"399.5 41.5 OFFCURVE",
"378.5 34.5 CURVE SMOOTH",
"357.5 27.5 OFFCURVE",
"323.333 22.667 OFFCURVE",
"276 20 CURVE",
"97 20 LINE"
);
},
{
closed = 1;
nodes = (
"392 769 LINE",
"392 788 LINE",
"175 788 LINE",
"175 769 LINE"
);
}
);
width = 576;
},
{
layerId = "8A94633D-DA21-409C-A8B7-00A83612E8B2";
paths = (
{
closed = 1;
nodes = (
"286 0 LINE SMOOTH",
"427.333 0 OFFCURVE",
"498 66.667 OFFCURVE",
"498 200 CURVE SMOOTH",
"498 474 LINE SMOOTH",
"498 611.333 OFFCURVE",
"416.667 701 OFFCURVE",
"266 701 CURVE SMOOTH",
"78 701 LINE",
"78 0 LINE"
);
},
{
closed = 1;
nodes = (
"188 590 LINE",
"276 590 LINE SMOOTH",
"352 590 OFFCURVE",
"388 557.333 OFFCURVE",
"388 484 CURVE SMOOTH",
"388 190 LINE SMOOTH",
"388 113.132 OFFCURVE",
"336.46 101 OFFCURVE",
"270 101 CURVE SMOOTH",
"188 101 LINE"
);
},
{
closed = 1;
nodes = (
"392 730 LINE",
"392 821 LINE",
"175 821 LINE",
"175 730 LINE"
);
}
);
width = 576;
}
);
unicode = 0110;
},
{
glyphname = E;
lastChange = "2018-08-09 17:24:14 +0000";
layers = (
{
layerId = "BADA37E3-C95E-4946-BA48-1F986F6D85A7";
paths = (
{
closed = 1;
nodes = (
"410 0 LINE",
"410 50 LINE",
"134 50 LINE",
"134 358 LINE",
"306 358 LINE",
"325 413 LINE",
"134 413 LINE",
"134 648 LINE",
"412 648 LINE",
"412 700 LINE",
"78 700 LINE",
"78 0 LINE"
);
}
);
width = 465;
},
{
layerId = "77B00D75-0619-4FB7-8D17-EB9FCD2DF18B";
paths = (
{
closed = 1;
nodes = (
"410 0 LINE",
"410 19 LINE",
"97 19 LINE",
"97 394 LINE",
"318 394 LINE",
"325 413 LINE",
"97 413 LINE",
"97 681 LINE",
"412 681 LINE",
"412 700 LINE",
"78 700 LINE",
"78 0 LINE"
);
}
);
width = 465;
},
{
layerId = "8A94633D-DA21-409C-A8B7-00A83612E8B2";
paths = (
{
closed = 1;
nodes = (
"410 0 LINE",
"410 100 LINE",
"188 100 LINE",
"188 308 LINE",
"294 308 LINE",
"325 413 LINE",
"188 413 LINE",
"188 590 LINE",
"412 590 LINE",
"412 700 LINE",
"78 700 LINE",
"78 0 LINE"
);
}
);
width = 465;
}
);
leftKerningGroup = H;
rightKerningGroup = E;
unicode = 0045;
},
{
glyphname = Eacute;
lastChange = "2018-08-09 15:14:16 +0000";
layers = (
{
layerId = "BADA37E3-C95E-4946-BA48-1F986F6D85A7";
paths = (
{
closed = 1;
nodes = (
"410 0 LINE",
"410 50 LINE",
"134 50 LINE",
"134 358 LINE",
"306 358 LINE",
"325 413 LINE",
"134 413 LINE",
"134 648 LINE",
"412 648 LINE",
"412 700 LINE",
"78 700 LINE",
"78 0 LINE"
);
},
{
closed = 1;
nodes = (
"281 730 LINE",
"350 822 LINE",
"353.333 826 OFFCURVE",
"355 830.333 OFFCURVE",
"355 835 CURVE SMOOTH",
"355 839.667 OFFCURVE",
"354.667 844 OFFCURVE",
"354 848 CURVE",
"349.333 863.333 OFFCURVE",
"338 871 OFFCURVE",
"320 871 CURVE SMOOTH",
"306 871 OFFCURVE",
"295.333 863.333 OFFCURVE",
"288 848 CURVE",
"237 730 LINE"
);
}
);
width = 465;
},
{
layerId = "77B00D75-0619-4FB7-8D17-EB9FCD2DF18B";
paths = (
{
closed = 1;
nodes = (
"410 0 LINE",
"410 19 LINE",
"97 19 LINE",
"97 394 LINE",
"318 394 LINE",
"325 413 LINE",
"97 413 LINE",
"97 681 LINE",
"412 681 LINE",
"412 700 LINE",
"78 700 LINE",
"78 0 LINE"
);
},
{
closed = 1;
nodes = (
"256 730 LINE",
"319 843 LINE",
"327 855.667 OFFCURVE",
"325.667 864.333 OFFCURVE",
"315 869 CURVE",
"312.333 870.333 OFFCURVE",
"309.667 871 OFFCURVE",
"307 871 CURVE SMOOTH",
"300.333 871 OFFCURVE",
"295.333 866.667 OFFCURVE",
"292 858 CURVE",
"237 730 LINE"
);
}
);
width = 465;
},
{
layerId = "8A94633D-DA21-409C-A8B7-00A83612E8B2";
paths = (
{
closed = 1;
nodes = (
"410 0 LINE",
"410 100 LINE",
"188 100 LINE",
"188 308 LINE",
"294 308 LINE",
"325 413 LINE",
"188 413 LINE",
"188 590 LINE",
"412 590 LINE",
"412 700 LINE",
"78 700 LINE",
"78 0 LINE"
);
},
{
closed = 1;
nodes = (
"310 730 LINE",
"359 793 LINE SMOOTH",
"369.667 807 OFFCURVE",
"375 820 OFFCURVE",
"375 832 CURVE SMOOTH",
"375 834 OFFCURVE",
"374.667 836 OFFCURVE",
"374 838 CURVE",
"371.333 851.333 OFFCURVE",
"363.333 861.333 OFFCURVE",
"350 868 CURVE",
"346 870.667 OFFCURVE",
"341 872 OFFCURVE",
"335 872 CURVE SMOOTH",
"329.667 872 OFFCURVE",
"323.333 870.667 OFFCURVE",
"316 868 CURVE",
"300.667 863.333 OFFCURVE",
"289.667 853.333 OFFCURVE",
"283 838 CURVE SMOOTH",
"237 730 LINE"
);
}
);
width = 465;
}
);
unicode = 00C9;
},
{
glyphname = Ecaron;
lastChange = "2018-08-09 15:14:16 +0000";
layers = (
{
layerId = "BADA37E3-C95E-4946-BA48-1F986F6D85A7";
paths = (
{
closed = 1;
nodes = (
"410 0 LINE",
"410 50 LINE",
"134 50 LINE",
"134 358 LINE",
"306 358 LINE",
"325 413 LINE",
"134 413 LINE",
"134 648 LINE",
"412 648 LINE",
"412 700 LINE",
"78 700 LINE",
"78 0 LINE"
);
},
{
closed = 1;
nodes = (
"391 875 LINE",
"353 914 LINE",
"248 810 LINE",
"139 914 LINE",
"101 875 LINE",
"249 734 LINE"
);
}
);
width = 465;
},
{
layerId = "77B00D75-0619-4FB7-8D17-EB9FCD2DF18B";
paths = (
{
closed = 1;
nodes = (
"410 0 LINE",
"410 19 LINE",
"97 19 LINE",
"97 394 LINE",
"318 394 LINE",
"325 413 LINE",
"97 413 LINE",
"97 681 LINE",
"412 681 LINE",
"412 700 LINE",
"78 700 LINE",
"78 0 LINE"
);
},
{
closed = 1;
nodes = (
"391 875 LINE",
"376 890 LINE",
"248 764 LINE",
"116 890 LINE",
"101 875 LINE",
"249 734 LINE"
);
}
);
width = 465;
},
{
layerId = "8A94633D-DA21-409C-A8B7-00A83612E8B2";
paths = (
{
closed = 1;
nodes = (
"410 0 LINE",
"410 100 LINE",
"188 100 LINE",
"188 308 LINE",
"294 308 LINE",
"325 413 LINE",
"188 413 LINE",
"188 590 LINE",
"412 590 LINE",
"412 700 LINE",
"78 700 LINE",
"78 0 LINE"
);
},
{
closed = 1;
nodes = (
"393 875 LINE",
"326 914 LINE",
"250 831 LINE",
"169 914 LINE",
"103 875 LINE",
"251 734 LINE"
);
}
);
width = 465;
}
);
unicode = 011A;
},
{
glyphname = Ecircumflex;
lastChange = "2018-08-09 15:14:16 +0000";
layers = (
{
layerId = "BADA37E3-C95E-4946-BA48-1F986F6D85A7";
paths = (
{
closed = 1;
nodes = (
"410 0 LINE",
"410 50 LINE",
"134 50 LINE",
"134 358 LINE",
"306 358 LINE",
"325 413 LINE",
"134 413 LINE",
"134 648 LINE",
"412 648 LINE",
"412 700 LINE",
"78 700 LINE",
"78 0 LINE"
);
},
{
closed = 1;
nodes = (
"248 837 LINE",
"353 733 LINE",
"391 772 LINE",
"249 913 LINE",
"101 772 LINE",
"139 733 LINE"
);
}
);
width = 465;
},
{
layerId = "77B00D75-0619-4FB7-8D17-EB9FCD2DF18B";
paths = (
{
closed = 1;
nodes = (
"410 0 LINE",
"410 19 LINE",
"97 19 LINE",
"97 394 LINE",
"318 394 LINE",
"325 413 LINE",
"97 413 LINE",
"97 681 LINE",
"412 681 LINE",
"412 700 LINE",
"78 700 LINE",
"78 0 LINE"
);
},
{
closed = 1;
nodes = (
"241 883 LINE",
"367 756 LINE",
"384 772 LINE",
"242 913 LINE",
"94 772 LINE",
"110 756 LINE"
);
}
);
width = 465;
},
{
layerId = "8A94633D-DA21-409C-A8B7-00A83612E8B2";
paths = (
{
closed = 1;
nodes = (
"410 0 LINE",
"410 100 LINE",
"188 100 LINE",
"188 308 LINE",
"294 308 LINE",
"325 413 LINE",
"188 413 LINE",
"188 590 LINE",
"412 590 LINE",
"412 700 LINE",
"78 700 LINE",
"78 0 LINE"
);
},
{
closed = 1;
nodes = (
"249 814 LINE",
"325 731 LINE",
"392 770 LINE",
"250 911 LINE",
"102 770 LINE",
"168 731 LINE"
);
}
);
width = 465;
}
);
unicode = 00CA;
},
{
glyphname = Edieresis;
lastChange = "2018-08-09 15:14:16 +0000";
layers = (
{
layerId = "BADA37E3-C95E-4946-BA48-1F986F6D85A7";
paths = (
{
closed = 1;
nodes = (
"410 0 LINE",
"410 50 LINE",
"134 50 LINE",
"134 358 LINE",
"306 358 LINE",
"325 413 LINE",
"134 413 LINE",
"134 648 LINE",
"412 648 LINE",
"412 700 LINE",
"78 700 LINE",
"78 0 LINE"
);
},
{
closed = 1;
nodes = (
"218.844 771.844 OFFCURVE",
"170.995 817.995 OFFCURVE",
"140.5 787.5 CURVE SMOOTH",
"109.73 756.73 OFFCURVE",
"157.138 710.138 OFFCURVE",
"187 740 CURVE SMOOTH"
);
},
{
closed = 1;
nodes = (
"374.844 771.844 OFFCURVE",
"326.995 817.995 OFFCURVE",
"296.5 787.5 CURVE SMOOTH",
"265.73 756.73 OFFCURVE",
"313.138 710.138 OFFCURVE",
"343 740 CURVE SMOOTH"
);
}
);
width = 465;
},
{
layerId = "77B00D75-0619-4FB7-8D17-EB9FCD2DF18B";
paths = (
{
closed = 1;
nodes = (
"410 0 LINE",
"410 19 LINE",
"97 19 LINE",
"97 394 LINE",
"318 394 LINE",
"325 413 LINE",
"97 413 LINE",
"97 681 LINE",
"412 681 LINE",
"412 700 LINE",
"78 700 LINE",
"78 0 LINE"
);
}
);
width = 465;
},
{
layerId = "8A94633D-DA21-409C-A8B7-00A83612E8B2";
paths = (
{
closed = 1;
nodes = (
"410 0 LINE",
"410 100 LINE",
"188 100 LINE",
"188 308 LINE",
"294 308 LINE",
"325 413 LINE",
"188 413 LINE",
"188 590 LINE",
"412 590 LINE",
"412 700 LINE",
"78 700 LINE",
"78 0 LINE"
);
},
{
closed = 1;
nodes = (
"200.333 731 OFFCURVE",
"220 751 OFFCURVE",
"220 775 CURVE SMOOTH",
"220 800.333 OFFCURVE",
"200.333 820 OFFCURVE",
"175 820 CURVE SMOOTH",
"151 820 OFFCURVE",
"131 800.333 OFFCURVE",
"131 775 CURVE SMOOTH",
"131 751 OFFCURVE",
"151 731 OFFCURVE",
"175 731 CURVE SMOOTH"
);
},
{
closed = 1;
nodes = (
"382.002 786.002 OFFCURVE",
"318.002 850.002 OFFCURVE",
"276 808 CURVE SMOOTH",
"233.998 765.998 OFFCURVE",
"297.998 701.998 OFFCURVE",
"340 744 CURVE SMOOTH"
);
}
);
width = 465;
}
);
unicode = 00CB;
},
{
glyphname = Edotaccent;
lastChange = "2018-08-09 15:14:23 +0000";
layers = (
{
layerId = "BADA37E3-C95E-4946-BA48-1F986F6D85A7";
paths = (
{
closed = 1;
nodes = (
"410 0 LINE",
"410 50 LINE",
"134 50 LINE",
"134 358 LINE",
"306 358 LINE",
"325 413 LINE",
"134 413 LINE",
"134 648 LINE",
"412 648 LINE",
"412 700 LINE",
"78 700 LINE",
"78 0 LINE"
);
},
{
closed = 1;
nodes = (
"222 719.795 OFFCURVE",
"289 719.387 OFFCURVE",
"289 764 CURVE SMOOTH",
"289 808.821 OFFCURVE",
"222 805.996 OFFCURVE",
"222 763.5 CURVE SMOOTH"
);
}
);
width = 465;
},
{
layerId = "77B00D75-0619-4FB7-8D17-EB9FCD2DF18B";
paths = (
{
closed = 1;
nodes = (
"410 0 LINE",
"410 19 LINE",
"97 19 LINE",
"97 394 LINE",
"318 394 LINE",
"325 413 LINE",
"97 413 LINE",
"97 681 LINE",
"412 681 LINE",
"412 700 LINE",
"78 700 LINE",
"78 0 LINE"
);
},
{
closed = 1;
nodes = (
"268.705 782.41 OFFCURVE",
"269 783 OFFCURVE",
"269 783 CURVE"
);
}
);
width = 465;
},
{
layerId = "8A94633D-DA21-409C-A8B7-00A83612E8B2";
paths = (
{
closed = 1;
nodes = (
"410 0 LINE",
"410 100 LINE",
"188 100 LINE",
"188 308 LINE",
"294 308 LINE",
"325 413 LINE",
"188 413 LINE",
"188 590 LINE",
"412 590 LINE",
"412 700 LINE",
"78 700 LINE",
"78 0 LINE"
);
},
{
closed = 1;
nodes = (
"286.667 730 OFFCURVE",
"314 758 OFFCURVE",
"314 790 CURVE SMOOTH",
"314 820.667 OFFCURVE",
"286.667 848 OFFCURVE",
"256 848 CURVE SMOOTH",
"224 848 OFFCURVE",
"196 820.667 OFFCURVE",
"196 790 CURVE SMOOTH",
"196 758 OFFCURVE",
"224 730 OFFCURVE",
"256 730 CURVE SMOOTH"
);
}
);
width = 465;
}
);
unicode = 0116;
},
{
glyphname = Egrave;
lastChange = "2018-08-09 15:14:16 +0000";
layers = (
{
layerId = "BADA37E3-C95E-4946-BA48-1F986F6D85A7";
paths = (
{
closed = 1;
nodes = (
"410 0 LINE",
"410 50 LINE",
"134 50 LINE",
"134 358 LINE",
"306 358 LINE",
"325 413 LINE",
"134 413 LINE",
"134 648 LINE",
"412 648 LINE",
"412 700 LINE",
"78 700 LINE",
"78 0 LINE"
);
},
{
closed = 1;
nodes = (
"268 732 LINE",
"217 850 LINE",
"209.667 865.333 OFFCURVE",
"199 873 OFFCURVE",
"185 873 CURVE SMOOTH",
"181 873 OFFCURVE",
"176.667 872.333 OFFCURVE",
"172 871 CURVE SMOOTH",
"157.333 866.333 OFFCURVE",
"150 855 OFFCURVE",
"150 837 CURVE SMOOTH",
"150 832.333 OFFCURVE",
"151.667 828 OFFCURVE",
"155 824 CURVE",
"224 732 LINE"
);
}
);
width = 465;
},
{
layerId = "77B00D75-0619-4FB7-8D17-EB9FCD2DF18B";
paths = (
{
closed = 1;
nodes = (
"410 0 LINE",
"410 19 LINE",
"97 19 LINE",
"97 394 LINE",
"318 394 LINE",
"325 413 LINE",
"97 413 LINE",
"97 681 LINE",
"412 681 LINE",
"412 700 LINE",
"78 700 LINE",
"78 0 LINE"
);
},
{
closed = 1;
nodes = (
"270 730 LINE",
"215 858 LINE",
"211.667 866.667 OFFCURVE",
"206.667 871 OFFCURVE",
"200 871 CURVE SMOOTH",
"197.333 871 OFFCURVE",
"194.667 870.333 OFFCURVE",
"192 869 CURVE",
"181.333 864.333 OFFCURVE",
"180 855.667 OFFCURVE",
"188 843 CURVE",
"251 730 LINE"
);
}
);
width = 465;
},
{
layerId = "8A94633D-DA21-409C-A8B7-00A83612E8B2";
paths = (
{
closed = 1;
nodes = (
"410 0 LINE",
"410 100 LINE",
"188 100 LINE",
"188 308 LINE",
"294 308 LINE",
"325 413 LINE",
"188 413 LINE",
"188 590 LINE",
"412 590 LINE",
"412 700 LINE",
"78 700 LINE",
"78 0 LINE"
);
},
{
closed = 1;
nodes = (
"280 732 LINE",
"234 840 LINE SMOOTH",
"227.333 855.333 OFFCURVE",
"216.333 865.333 OFFCURVE",
"201 870 CURVE",
"193.667 872.667 OFFCURVE",
"187.333 874 OFFCURVE",
"182 874 CURVE SMOOTH",
"176 874 OFFCURVE",
"171 872.667 OFFCURVE",
"167 870 CURVE",
"153.667 863.333 OFFCURVE",
"145.667 853.333 OFFCURVE",
"143 840 CURVE",
"142.333 838 OFFCURVE",
"142 836 OFFCURVE",
"142 834 CURVE SMOOTH",
"142 822 OFFCURVE",
"147.333 809 OFFCURVE",
"158 795 CURVE SMOOTH",
"207 732 LINE"
);
}
);
width = 465;
}
);
unicode = 00C8;
},
{
glyphname = Emacron;
lastChange = "2018-08-09 15:14:16 +0000";
layers = (
{
layerId = "BADA37E3-C95E-4946-BA48-1F986F6D85A7";
paths = (
{
closed = 1;
nodes = (
"410 0 LINE",
"410 50 LINE",
"134 50 LINE",
"134 358 LINE",
"306 358 LINE",
"325 413 LINE",
"134 413 LINE",
"134 648 LINE",
"412 648 LINE",
"412 700 LINE",
"78 700 LINE",
"78 0 LINE"
);
},
{
closed = 1;
nodes = (
"352 730 LINE",
"352 788 LINE",
"135 788 LINE",
"135 730 LINE"
);
}
);
width = 465;
},
{
layerId = "77B00D75-0619-4FB7-8D17-EB9FCD2DF18B";
paths = (
{
closed = 1;
nodes = (
"410 0 LINE",
"410 19 LINE",
"97 19 LINE",
"97 394 LINE",
"318 394 LINE",
"325 413 LINE",
"97 413 LINE",
"97 681 LINE",
"412 681 LINE",
"412 700 LINE",
"78 700 LINE",
"78 0 LINE"
);
},
{
closed = 1;
nodes = (
"352 769 LINE",
"352 788 LINE",
"135 788 LINE",
"135 769 LINE"
);
}
);
width = 465;
},
{
layerId = "8A94633D-DA21-409C-A8B7-00A83612E8B2";
paths = (
{
closed = 1;
nodes = (
"410 0 LINE",
"410 100 LINE",
"188 100 LINE",
"188 308 LINE",
"294 308 LINE",
"325 413 LINE",
"188 413 LINE",
"188 590 LINE",
"412 590 LINE",
"412 700 LINE",
"78 700 LINE",
"78 0 LINE"
);
},
{
closed = 1;
nodes = (
"352 730 LINE",
"352 821 LINE",
"135 821 LINE",
"135 730 LINE"
);
}
);
width = 465;
}
);
unicode = 0112;
},
{
glyphname = Eogonek;
lastChange = "2018-08-09 15:14:16 +0000";
layers = (
{
layerId = "BADA37E3-C95E-4946-BA48-1F986F6D85A7";
paths = (
{
closed = 1;
nodes = (
"390.333 -213 OFFCURVE",
"422.667 -196.333 OFFCURVE",
"444 -163 CURVE",
"407 -125 LINE",
"368.87 -184.919 OFFCURVE",
"305 -174.696 OFFCURVE",
"305 -127 CURVE SMOOTH",
"305 -100.333 OFFCURVE",
"339.667 -58 OFFCURVE",
"409 0 CURVE",
"410 0 LINE",
"410 50 LINE",
"134 50 LINE",
"134 358 LINE",
"306 358 LINE",
"325 413 LINE",
"134 413 LINE",
"134 648 LINE",
"412 648 LINE",
"412 700 LINE",
"78 700 LINE",
"78 0 LINE",
"351 0 LINE",
"287 -42 OFFCURVE",
"255 -85.667 OFFCURVE",
"255 -131 CURVE SMOOTH",
"255 -191.821 OFFCURVE",
"306.699 -213 OFFCURVE",
"347 -213 CURVE SMOOTH"
);
}
);
width = 497;
},
{
layerId = "77B00D75-0619-4FB7-8D17-EB9FCD2DF18B";
paths = (
{
closed = 1;
nodes = (
"425.667 -213 OFFCURVE",
"457.667 -196.333 OFFCURVE",
"479 -163 CURVE",
"463 -147 LINE",
"443.667 -177.667 OFFCURVE",
"417 -193 OFFCURVE",
"383 -193 CURVE SMOOTH",
"343 -193 OFFCURVE",
"310 -166 OFFCURVE",
"310 -130 CURVE SMOOTH",
"310 -88.667 OFFCURVE",
"343.333 -45.333 OFFCURVE",
"410 0 CURVE",
"410 19 LINE",
"97 19 LINE",
"97 394 LINE",
"318 394 LINE",
"325 413 LINE",
"97 413 LINE",
"97 681 LINE",
"412 681 LINE",
"412 700 LINE",
"78 700 LINE",
"78 0 LINE",
"386 0 LINE",
"322 -43.333 OFFCURVE",
"290 -86 OFFCURVE",
"290 -128 CURVE SMOOTH",
"290 -163.333 OFFCURVE",
"304.667 -188 OFFCURVE",
"334 -202 CURVE SMOOTH",
"350 -209.333 OFFCURVE",
"366.333 -213 OFFCURVE",
"383 -213 CURVE SMOOTH"
);
}
);
width = 532;
},
{
layerId = "8A94633D-DA21-409C-A8B7-00A83612E8B2";
paths = (
{
closed = 1;
nodes = (
"388.667 -213 OFFCURVE",
"420 -200.333 OFFCURVE",
"444 -163 CURVE",
"395 -110 LINE",
"383 -134 OFFCURVE",
"364 -145 OFFCURVE",
"352 -145 CURVE SMOOTH",
"332.667 -145 OFFCURVE",
"321.667 -137 OFFCURVE",
"319 -121 CURVE",
"319 -119.667 OFFCURVE",
"319 -118 OFFCURVE",
"319 -116 CURVE SMOOTH",
"319 -88 OFFCURVE",
"349 -49.333 OFFCURVE",
"409 0 CURVE",
"410 0 LINE",
"410 100 LINE",
"188 100 LINE",
"188 308 LINE",
"294 308 LINE",
"325 413 LINE",
"188 413 LINE",
"188 590 LINE",
"412 590 LINE",
"412 700 LINE",
"78 700 LINE",
"78 0 LINE",
"340 0 LINE",
"280 -36.667 OFFCURVE",
"249 -75.667 OFFCURVE",
"247 -117 CURVE",
"247 -119 OFFCURVE",
"247 -121.333 OFFCURVE",
"247 -124 CURVE SMOOTH",
"247 -142.667 OFFCURVE",
"252 -159.333 OFFCURVE",
"262 -174 CURVE",
"284.667 -204.667 OFFCURVE",
"312.667 -213 OFFCURVE",
"334 -213 CURVE SMOOTH"
);
}
);
width = 497;
}
);
unicode = 0118;
},
{
glyphname = F;
lastChange = "2018-08-09 17:24:17 +0000";
layers = (
{
layerId = "BADA37E3-C95E-4946-BA48-1F986F6D85A7";
paths = (
{
closed = 1;
nodes = (
"134 0 LINE",
"134 358 LINE",
"282 358 LINE",
"305 413 LINE",
"134 413 LINE",
"134 647 LINE",
"412 647 LINE",
"412 700 LINE",
"78 700 LINE",
"78 0 LINE"
);
}
);
width = 445;
},
{
layerId = "77B00D75-0619-4FB7-8D17-EB9FCD2DF18B";
paths = (
{
closed = 1;
nodes = (
"98 0 LINE",
"98 394 LINE",
"297 394 LINE",
"305 413 LINE",
"98 413 LINE",
"98 680 LINE",
"412 680 LINE",
"412 700 LINE",
"78 700 LINE",
"78 0 LINE"
);
}
);
width = 451;
},
{
layerId = "8A94633D-DA21-409C-A8B7-00A83612E8B2";
paths = (
{
closed = 1;
nodes = (
"188 0 LINE",
"188 308 LINE",
"292 308 LINE",
"328 413 LINE",
"188 413 LINE",
"188 590 LINE",
"412 590 LINE",
"412 700 LINE",
"78 700 LINE",
"78 0 LINE"
);
}
);
width = 451;
}
);
leftKerningGroup = H;
rightKerningGroup = F;
unicode = 0046;
},
{
glyphname = G;
lastChange = "2018-08-09 17:24:27 +0000";
layers = (
{
layerId = "BADA37E3-C95E-4946-BA48-1F986F6D85A7";
paths = (
{
closed = 1;
nodes = (
"335 -10 OFFCURVE",
"385 10 OFFCURVE",
"421 49 CURVE",
"435 0 LINE",
"476 0 LINE",
"476 300 LINE",
"338 300 LINE",
"357 245 LINE",
"423 245 LINE",
"423 186 LINE SMOOTH",
"423 92 OFFCURVE",
"345 43 OFFCURVE",
"269 43 CURVE SMOOTH",
"195 43 OFFCURVE",
"121 90 OFFCURVE",
"121 187 CURVE SMOOTH",
"121 512 LINE SMOOTH",
"121 610 OFFCURVE",
"173 659 OFFCURVE",
"277 659 CURVE SMOOTH",
"311 659 OFFCURVE",
"347 652 OFFCURVE",
"385 638 CURVE",
"401 676 LINE",
"357.667 698 OFFCURVE",
"310.333 709 OFFCURVE",
"259 709 CURVE SMOOTH",
"133 709 OFFCURVE",
"65 631 OFFCURVE",
"65 503 CURVE SMOOTH",
"65 189 LINE SMOOTH",
"65 57 OFFCURVE",
"155 -10 OFFCURVE",
"272 -10 CURVE SMOOTH"
);
}
);
width = 537;
},
{
layerId = "77B00D75-0619-4FB7-8D17-EB9FCD2DF18B";
paths = (
{
closed = 1;
nodes = (
"359 -10 OFFCURVE",
"426.333 22.667 OFFCURVE",
"457 88 CURVE",
"457 0 LINE",
"476 0 LINE",
"476 300 LINE",
"338 300 LINE",
"346 281 LINE",
"457 281 LINE",
"457 182 LINE SMOOTH",
"457 84.667 OFFCURVE",
"403.833 9 OFFCURVE",
"280.5 9 CURVE SMOOTH",
"157.167 9 OFFCURVE",
"84 83 OFFCURVE",
"84 187 CURVE SMOOTH",
"84 497 LINE SMOOTH",
"84 617 OFFCURVE",
"140 691 OFFCURVE",
"260 691 CURVE SMOOTH",
"300.667 691 OFFCURVE",
"344.667 680.333 OFFCURVE",
"394 659 CURVE",
"401 676 LINE",
"357.667 698 OFFCURVE",
"310.333 709 OFFCURVE",
"260 709 CURVE SMOOTH",
"133 709 OFFCURVE",
"65 631 OFFCURVE",
"65 503 CURVE SMOOTH",
"65 189 LINE SMOOTH",
"65 57 OFFCURVE",
"158.667 -10 OFFCURVE",
"277 -10 CURVE SMOOTH"
);
}
);
width = 537;
},
{
layerId = "8A94633D-DA21-409C-A8B7-00A83612E8B2";
paths = (
{
closed = 1;
nodes = (
"305 -10 OFFCURVE",
"335 -4 OFFCURVE",
"366 12 CURVE",
"372 0 LINE",
"476 0 LINE",
"476 300 LINE",
"274 300 LINE",
"309 195 LINE",
"366 195 LINE",
"366 186 LINE SMOOTH",
"366 129.333 OFFCURVE",
"335 101 OFFCURVE",
"272 101 CURVE SMOOTH",
"212 101 OFFCURVE",
"175 126 OFFCURVE",
"175 187 CURVE SMOOTH",
"175 508 LINE SMOOTH",
"175 575 OFFCURVE",
"216 595 OFFCURVE",
"274 595 CURVE SMOOTH",
"305.667 595 OFFCURVE",
"336 589 OFFCURVE",
"368 577 CURVE",
"401 676 LINE",
"357 698 OFFCURVE",
"306 709 OFFCURVE",
"257 709 CURVE SMOOTH",
"132 709 OFFCURVE",
"65 631 OFFCURVE",
"65 503 CURVE SMOOTH",
"65 189 LINE SMOOTH",
"65 57 OFFCURVE",
"158.667 -10 OFFCURVE",
"269 -10 CURVE SMOOTH"
);
}
);
width = 537;
}
);
leftKerningGroup = O;
rightKerningGroup = G;
unicode = 0047;
},
{
glyphname = Gbreve;
lastChange = "2018-08-09 15:14:23 +0000";
layers = (
{
layerId = "BADA37E3-C95E-4946-BA48-1F986F6D85A7";
paths = (
{
closed = 1;
nodes = (
"338.833 -10 OFFCURVE",
"386.333 7 OFFCURVE",
"421 41 CURVE",
"435 0 LINE",
"476 0 LINE",
"476 300 LINE",
"338 300 LINE",
"357 245 LINE",
"423 245 LINE",
"423 186 LINE SMOOTH",
"423 0.639 OFFCURVE",
"121 -10.504 OFFCURVE",
"121 187 CURVE SMOOTH",
"121 512 LINE SMOOTH",
"121 610 OFFCURVE",
"173 659 OFFCURVE",
"277 659 CURVE SMOOTH",
"311 659 OFFCURVE",
"347 652 OFFCURVE",
"385 638 CURVE",
"401 676 LINE",
"357.667 698 OFFCURVE",
"310.333 709 OFFCURVE",
"259 709 CURVE SMOOTH",
"217.667 709 OFFCURVE",
"182 700.667 OFFCURVE",
"152 684 CURVE",
"94 648.667 OFFCURVE",
"65 588.333 OFFCURVE",
"65 503 CURVE SMOOTH",
"65 189 LINE SMOOTH",
"65 57 OFFCURVE",
"157.833 -10 OFFCURVE",
"278.5 -10 CURVE SMOOTH"
);
},
{
closed = 1;
nodes = (
"163 692.545 OFFCURVE",
"389 692.545 OFFCURVE",
"389 841 CURVE SMOOTH",
"389 846 LINE",
"344 846 LINE",
"344 841 LINE SMOOTH",
"344 751.383 OFFCURVE",
"208 751.383 OFFCURVE",
"208 841 CURVE SMOOTH",
"208 846 LINE",
"163 846 LINE",
"163 841 LINE SMOOTH"
);
}
);
width = 537;
},
{
layerId = "77B00D75-0619-4FB7-8D17-EB9FCD2DF18B";
paths = (
{
closed = 1;
nodes = (
"366 -10 OFFCURVE",
"426.333 22.667 OFFCURVE",
"457 88 CURVE",
"457 0 LINE",
"476 0 LINE",
"476 300 LINE",
"338 300 LINE",
"346 281 LINE",
"457 281 LINE",
"457 182 LINE SMOOTH",
"457 84.667 OFFCURVE",
"403.833 9 OFFCURVE",
"280.5 9 CURVE SMOOTH",
"157.167 9 OFFCURVE",
"84 83 OFFCURVE",
"84 187 CURVE SMOOTH",
"84 497 LINE SMOOTH",
"84 566.333 OFFCURVE",
"106.333 619.333 OFFCURVE",
"133 646 CURVE SMOOTH",
"164.333 676 OFFCURVE",
"207.333 691 OFFCURVE",
"262 691 CURVE SMOOTH",
"300.667 691 OFFCURVE",
"344.667 680.333 OFFCURVE",
"394 659 CURVE",
"401 676 LINE",
"357.667 698 OFFCURVE",
"310.333 709 OFFCURVE",
"259 709 CURVE SMOOTH",
"217.667 709 OFFCURVE",
"182 700.667 OFFCURVE",
"152 684 CURVE",
"94 648.667 OFFCURVE",
"65 588.333 OFFCURVE",
"65 503 CURVE SMOOTH",
"65 189 LINE SMOOTH",
"65 57 OFFCURVE",
"158.667 -10 OFFCURVE",
"276 -10 CURVE SMOOTH"
);
},
{
closed = 1;
nodes = (
"163 692.545 OFFCURVE",
"389 692.545 OFFCURVE",
"389 841 CURVE SMOOTH",
"389 846 LINE",
"368 846 LINE",
"368 841 LINE SMOOTH",
"368 720.761 OFFCURVE",
"184 718.288 OFFCURVE",
"184 841 CURVE SMOOTH",
"184 846 LINE",
"163 846 LINE",
"163 841 LINE SMOOTH"
);
}
);
width = 537;
},
{
layerId = "8A94633D-DA21-409C-A8B7-00A83612E8B2";
paths = (
{
closed = 1;
nodes = (
"301.333 -10 OFFCURVE",
"331.333 -4 OFFCURVE",
"366 8 CURVE",
"372 0 LINE",
"476 0 LINE",
"476 300 LINE",
"274 300 LINE",
"309 195 LINE",
"366 195 LINE",
"366 186 LINE SMOOTH",
"366 129.333 OFFCURVE",
"335.667 101 OFFCURVE",
"275 101 CURVE SMOOTH",
"209.667 101 OFFCURVE",
"175 123 OFFCURVE",
"175 187 CURVE SMOOTH",
"175 512 LINE SMOOTH",
"175 576 OFFCURVE",
"213 595 OFFCURVE",
"277 595 CURVE SMOOTH",
"305.667 595 OFFCURVE",
"336 589 OFFCURVE",
"368 577 CURVE",
"401 676 LINE",
"361.667 696 OFFCURVE",
"318.667 707 OFFCURVE",
"272 709 CURVE",
"267.333 709 OFFCURVE",
"263 709 OFFCURVE",
"259 709 CURVE SMOOTH",
"217.667 709 OFFCURVE",
"182 700.667 OFFCURVE",
"152 684 CURVE",
"94 648.667 OFFCURVE",
"65 588.333 OFFCURVE",
"65 503 CURVE SMOOTH",
"65 189 LINE SMOOTH",
"65 57 OFFCURVE",
"158.667 -10 OFFCURVE",
"276 -10 CURVE SMOOTH"
);
},
{
closed = 1;
nodes = (
"256 806 OFFCURVE",
"246 817.667 OFFCURVE",
"246 841 CURVE SMOOTH",
"246 846 LINE",
"163 846 LINE",
"163 841 LINE SMOOTH",
"163 692.545 OFFCURVE",
"389 692.545 OFFCURVE",
"389 841 CURVE SMOOTH",
"389 846 LINE",
"307 846 LINE",
"307 841 LINE SMOOTH",
"307 819.667 OFFCURVE",
"294.667 806 OFFCURVE",
"276 806 CURVE SMOOTH"
);
}
);
width = 537;
}
);
unicode = 011E;
},
{
glyphname = Gcircumflex;
lastChange = "2018-08-09 15:14:23 +0000";
layers = (
{
layerId = "BADA37E3-C95E-4946-BA48-1F986F6D85A7";
paths = (
{
closed = 1;
nodes = (
"338.833 -10 OFFCURVE",
"386.333 7 OFFCURVE",
"421 41 CURVE",
"435 0 LINE",
"476 0 LINE",
"476 300 LINE",
"338 300 LINE",
"357 245 LINE",
"423 245 LINE",
"423 186 LINE SMOOTH",
"423 0.639 OFFCURVE",
"121 -10.504 OFFCURVE",
"121 187 CURVE SMOOTH",
"121 512 LINE SMOOTH",
"121 610 OFFCURVE",
"173 659 OFFCURVE",
"277 659 CURVE SMOOTH",
"311 659 OFFCURVE",
"347 652 OFFCURVE",
"385 638 CURVE",
"401 676 LINE",
"357.667 698 OFFCURVE",
"310.333 709 OFFCURVE",
"259 709 CURVE SMOOTH",
"217.667 709 OFFCURVE",
"182 700.667 OFFCURVE",
"152 684 CURVE",
"94 648.667 OFFCURVE",
"65 588.333 OFFCURVE",
"65 503 CURVE SMOOTH",
"65 189 LINE SMOOTH",
"65 57 OFFCURVE",
"157.833 -10 OFFCURVE",
"278.5 -10 CURVE SMOOTH"
);
},
{
closed = 1;
nodes = (
"283 837 LINE",
"388 733 LINE",
"426 772 LINE",
"284 913 LINE",
"136 772 LINE",
"174 733 LINE"
);
}
);
width = 537;
},
{
layerId = "77B00D75-0619-4FB7-8D17-EB9FCD2DF18B";
paths = (
{
closed = 1;
nodes = (
"366 -10 OFFCURVE",
"426.333 22.667 OFFCURVE",
"457 88 CURVE",
"457 0 LINE",
"476 0 LINE",
"476 300 LINE",
"338 300 LINE",
"346 281 LINE",
"457 281 LINE",
"457 182 LINE SMOOTH",
"457 84.667 OFFCURVE",
"403.833 9 OFFCURVE",
"280.5 9 CURVE SMOOTH",
"157.167 9 OFFCURVE",
"84 83 OFFCURVE",
"84 187 CURVE SMOOTH",
"84 497 LINE SMOOTH",
"84 566.333 OFFCURVE",
"106.333 619.333 OFFCURVE",
"133 646 CURVE SMOOTH",
"164.333 676 OFFCURVE",
"207.333 691 OFFCURVE",
"262 691 CURVE SMOOTH",
"300.667 691 OFFCURVE",
"344.667 680.333 OFFCURVE",
"394 659 CURVE",
"401 676 LINE",
"357.667 698 OFFCURVE",
"310.333 709 OFFCURVE",
"259 709 CURVE SMOOTH",
"217.667 709 OFFCURVE",
"182 700.667 OFFCURVE",
"152 684 CURVE",
"94 648.667 OFFCURVE",
"65 588.333 OFFCURVE",
"65 503 CURVE SMOOTH",
"65 189 LINE SMOOTH",
"65 57 OFFCURVE",
"158.667 -10 OFFCURVE",
"276 -10 CURVE SMOOTH"
);
},
{
closed = 1;
nodes = (
"282 883 LINE",
"408 756 LINE",
"425 772 LINE",
"283 913 LINE",
"135 772 LINE",
"151 756 LINE"
);
}
);
width = 537;
},
{
layerId = "8A94633D-DA21-409C-A8B7-00A83612E8B2";
paths = (
{
closed = 1;
nodes = (
"301.333 -10 OFFCURVE",
"331.333 -4 OFFCURVE",
"366 8 CURVE",
"372 0 LINE",
"476 0 LINE",
"476 300 LINE",
"274 300 LINE",
"309 195 LINE",
"366 195 LINE",
"366 186 LINE SMOOTH",
"366 129.333 OFFCURVE",
"335.667 101 OFFCURVE",
"275 101 CURVE SMOOTH",
"209.667 101 OFFCURVE",
"175 123 OFFCURVE",
"175 187 CURVE SMOOTH",
"175 512 LINE SMOOTH",
"175 576 OFFCURVE",
"213 595 OFFCURVE",
"277 595 CURVE SMOOTH",
"305.667 595 OFFCURVE",
"336 589 OFFCURVE",
"368 577 CURVE",
"401 676 LINE",
"361.667 696 OFFCURVE",
"318.667 707 OFFCURVE",
"272 709 CURVE",
"267.333 709 OFFCURVE",
"263 709 OFFCURVE",
"259 709 CURVE SMOOTH",
"217.667 709 OFFCURVE",
"182 700.667 OFFCURVE",
"152 684 CURVE",
"94 648.667 OFFCURVE",
"65 588.333 OFFCURVE",
"65 503 CURVE SMOOTH",
"65 189 LINE SMOOTH",
"65 57 OFFCURVE",
"158.667 -10 OFFCURVE",
"276 -10 CURVE SMOOTH"
);
},
{
closed = 1;
nodes = (
"284 814 LINE",
"360 731 LINE",
"427 770 LINE",
"285 911 LINE",
"137 770 LINE",
"203 731 LINE"
);
}
);
width = 537;
}
);
unicode = 011C;
},
{
glyphname = Gcommaaccent;
lastChange = "2018-08-09 15:14:23 +0000";
layers = (
{
layerId = "BADA37E3-C95E-4946-BA48-1F986F6D85A7";
paths = (
{
closed = 1;
nodes = (
"338.833 -10 OFFCURVE",
"386.333 7 OFFCURVE",
"421 41 CURVE",
"435 0 LINE",
"476 0 LINE",
"476 300 LINE",
"338 300 LINE",
"357 245 LINE",
"423 245 LINE",
"423 186 LINE SMOOTH",
"423 0.639 OFFCURVE",
"121 -10.504 OFFCURVE",
"121 187 CURVE SMOOTH",
"121 512 LINE SMOOTH",
"121 610 OFFCURVE",
"173 659 OFFCURVE",
"277 659 CURVE SMOOTH",
"311 659 OFFCURVE",
"347 652 OFFCURVE",
"385 638 CURVE",
"401 676 LINE",
"357.667 698 OFFCURVE",
"310.333 709 OFFCURVE",
"259 709 CURVE SMOOTH",
"217.667 709 OFFCURVE",
"182 700.667 OFFCURVE",
"152 684 CURVE",
"94 648.667 OFFCURVE",
"65 588.333 OFFCURVE",
"65 503 CURVE SMOOTH",
"65 189 LINE SMOOTH",
"65 57 OFFCURVE",
"157.833 -10 OFFCURVE",
"278.5 -10 CURVE SMOOTH"
);
},
{
closed = 1;
nodes = (
"283.667 -148.667 OFFCURVE",
"305 -111.667 OFFCURVE",
"305 -73 CURVE SMOOTH",
"305 -44.854 OFFCURVE",
"282.101 -34 OFFCURVE",
"263 -34 CURVE SMOOTH",
"240.886 -34 OFFCURVE",
"221.692 -76.666 OFFCURVE",
"254 -100 CURVE",
"264 -103 LINE",
"259 -110 LINE",
"250.333 -123.333 OFFCURVE",
"231 -138.667 OFFCURVE",
"201 -156 CURVE",
"241 -184 LINE"
);
}
);
width = 537;
},
{
layerId = "77B00D75-0619-4FB7-8D17-EB9FCD2DF18B";
paths = (
{
closed = 1;
nodes = (
"366 -10 OFFCURVE",
"426.333 22.667 OFFCURVE",
"457 88 CURVE",
"457 0 LINE",
"476 0 LINE",
"476 300 LINE",
"338 300 LINE",
"346 281 LINE",
"457 281 LINE",
"457 182 LINE SMOOTH",
"457 84.667 OFFCURVE",
"403.833 9 OFFCURVE",
"280.5 9 CURVE SMOOTH",
"157.167 9 OFFCURVE",
"84 83 OFFCURVE",
"84 187 CURVE SMOOTH",
"84 497 LINE SMOOTH",
"84 566.333 OFFCURVE",
"106.333 619.333 OFFCURVE",
"133 646 CURVE SMOOTH",
"164.333 676 OFFCURVE",
"207.333 691 OFFCURVE",
"262 691 CURVE SMOOTH",
"300.667 691 OFFCURVE",
"344.667 680.333 OFFCURVE",
"394 659 CURVE",
"401 676 LINE",
"357.667 698 OFFCURVE",
"310.333 709 OFFCURVE",
"259 709 CURVE SMOOTH",
"217.667 709 OFFCURVE",
"182 700.667 OFFCURVE",
"152 684 CURVE",
"94 648.667 OFFCURVE",
"65 588.333 OFFCURVE",
"65 503 CURVE SMOOTH",
"65 189 LINE SMOOTH",
"65 57 OFFCURVE",
"158.667 -10 OFFCURVE",
"276 -10 CURVE SMOOTH"
);
},
{
closed = 1;
nodes = (
"276.667 -150.667 OFFCURVE",
"297 -118 OFFCURVE",
"297 -86 CURVE SMOOTH",
"297 -46.493 OFFCURVE",
"241.368 -92.085 OFFCURVE",
"280 -101 CURVE",
"282 -101 LINE",
"279 -112 LINE SMOOTH",
"275 -126.667 OFFCURVE",
"253.333 -154.333 OFFCURVE",
"220 -173 CURVE",
"236 -184 LINE"
);
}
);
width = 537;
},
{
layerId = "8A94633D-DA21-409C-A8B7-00A83612E8B2";
paths = (
{
closed = 1;
nodes = (
"301.333 -10 OFFCURVE",
"331.333 -4 OFFCURVE",
"366 8 CURVE",
"372 0 LINE",
"476 0 LINE",
"476 300 LINE",
"274 300 LINE",
"309 195 LINE",
"366 195 LINE",
"366 186 LINE SMOOTH",
"366 129.333 OFFCURVE",
"335.667 101 OFFCURVE",
"275 101 CURVE SMOOTH",
"209.667 101 OFFCURVE",
"175 123 OFFCURVE",
"175 187 CURVE SMOOTH",
"175 512 LINE SMOOTH",
"175 576 OFFCURVE",
"213 595 OFFCURVE",
"277 595 CURVE SMOOTH",
"305.667 595 OFFCURVE",
"336 589 OFFCURVE",
"368 577 CURVE",
"401 676 LINE",
"361.667 696 OFFCURVE",
"318.667 707 OFFCURVE",
"272 709 CURVE",
"267.333 709 OFFCURVE",
"263 709 OFFCURVE",
"259 709 CURVE SMOOTH",
"217.667 709 OFFCURVE",
"182 700.667 OFFCURVE",
"152 684 CURVE",
"94 648.667 OFFCURVE",
"65 588.333 OFFCURVE",
"65 503 CURVE SMOOTH",
"65 189 LINE SMOOTH",
"65 57 OFFCURVE",
"158.667 -10 OFFCURVE",
"276 -10 CURVE SMOOTH"
);
},
{
closed = 1;
nodes = (
"308 -172.667 OFFCURVE",
"327 -141.333 OFFCURVE",
"327 -96 CURVE SMOOTH",
"327 -66.667 OFFCURVE",
"311.667 -34.333 OFFCURVE",
"277 -33 CURVE",
"276.333 -33 OFFCURVE",
"275.333 -33 OFFCURVE",
"274 -33 CURVE SMOOTH",
"259.333 -33 OFFCURVE",
"247 -38 OFFCURVE",
"237 -48 CURVE SMOOTH",
"226.333 -58 OFFCURVE",
"221 -70.667 OFFCURVE",
"221 -86 CURVE SMOOTH",
"221 -108.667 OFFCURVE",
"231 -124.667 OFFCURVE",
"251 -134 CURVE",
"263 -137 LINE",
"256 -144 LINE",
"245.333 -153.333 OFFCURVE",
"219 -173 OFFCURVE",
"191 -189 CURVE",
"260 -218 LINE"
);
}
);
width = 537;
}
);
unicode = 0122;
},
{
glyphname = Gdotaccent;
lastChange = "2018-08-09 15:14:23 +0000";
layers = (
{
layerId = "BADA37E3-C95E-4946-BA48-1F986F6D85A7";
paths = (
{
closed = 1;
nodes = (
"338.833 -10 OFFCURVE",
"386.333 7 OFFCURVE",
"421 41 CURVE",
"435 0 LINE",
"476 0 LINE",
"476 300 LINE",
"338 300 LINE",
"357 245 LINE",
"423 245 LINE",
"423 186 LINE SMOOTH",
"423 0.639 OFFCURVE",
"121 -10.504 OFFCURVE",
"121 187 CURVE SMOOTH",
"121 512 LINE SMOOTH",
"121 610 OFFCURVE",
"173 659 OFFCURVE",
"277 659 CURVE SMOOTH",
"311 659 OFFCURVE",
"347 652 OFFCURVE",
"385 638 CURVE",
"401 676 LINE",
"357.667 698 OFFCURVE",
"310.333 709 OFFCURVE",
"259 709 CURVE SMOOTH",
"217.667 709 OFFCURVE",
"182 700.667 OFFCURVE",
"152 684 CURVE",
"94 648.667 OFFCURVE",
"65 588.333 OFFCURVE",
"65 503 CURVE SMOOTH",
"65 189 LINE SMOOTH",
"65 57 OFFCURVE",
"157.833 -10 OFFCURVE",
"278.5 -10 CURVE SMOOTH"
);
},
{
closed = 1;
nodes = (
"327.177 770.177 OFFCURVE",
"280.177 817.177 OFFCURVE",
"249 786 CURVE SMOOTH",
"218.233 755.233 OFFCURVE",
"265.233 708.233 OFFCURVE",
"296 739 CURVE SMOOTH"
);
}
);
width = 566;
},
{
layerId = "77B00D75-0619-4FB7-8D17-EB9FCD2DF18B";
paths = (
{
closed = 1;
nodes = (
"366 -10 OFFCURVE",
"426.333 22.667 OFFCURVE",
"457 88 CURVE",
"457 0 LINE",
"476 0 LINE",
"476 300 LINE",
"338 300 LINE",
"346 281 LINE",
"457 281 LINE",
"457 182 LINE SMOOTH",
"457 84.667 OFFCURVE",
"403.833 9 OFFCURVE",
"280.5 9 CURVE SMOOTH",
"157.167 9 OFFCURVE",
"84 83 OFFCURVE",
"84 187 CURVE SMOOTH",
"84 497 LINE SMOOTH",
"84 566.333 OFFCURVE",
"106.333 619.333 OFFCURVE",
"133 646 CURVE SMOOTH",
"164.333 676 OFFCURVE",
"207.333 691 OFFCURVE",
"262 691 CURVE SMOOTH",
"300.667 691 OFFCURVE",
"344.667 680.333 OFFCURVE",
"394 659 CURVE",
"401 676 LINE",
"357.667 698 OFFCURVE",
"310.333 709 OFFCURVE",
"259 709 CURVE SMOOTH",
"217.667 709 OFFCURVE",
"182 700.667 OFFCURVE",
"152 684 CURVE",
"94 648.667 OFFCURVE",
"65 588.333 OFFCURVE",
"65 503 CURVE SMOOTH",
"65 189 LINE SMOOTH",
"65 57 OFFCURVE",
"158.667 -10 OFFCURVE",
"276 -10 CURVE SMOOTH"
);
},
{
closed = 1;
nodes = (
"286 782.66 OFFCURVE",
"286 782 OFFCURVE",
"286 782 CURVE"
);
}
);
width = 566;
},
{
layerId = "8A94633D-DA21-409C-A8B7-00A83612E8B2";
paths = (
{
closed = 1;
nodes = (
"321.333 -10 OFFCURVE",
"351.333 -4 OFFCURVE",
"386 8 CURVE",
"392 0 LINE",
"496 0 LINE",
"496 300 LINE",
"294 300 LINE",
"329 195 LINE",
"386 195 LINE",
"386 186 LINE SMOOTH",
"386 129.333 OFFCURVE",
"355.667 101 OFFCURVE",
"295 101 CURVE SMOOTH",
"229.667 101 OFFCURVE",
"195 123 OFFCURVE",
"195 187 CURVE SMOOTH",
"195 512 LINE SMOOTH",
"195 576 OFFCURVE",
"233 595 OFFCURVE",
"297 595 CURVE SMOOTH",
"325.667 595 OFFCURVE",
"356 589 OFFCURVE",
"388 577 CURVE",
"421 676 LINE",
"381.667 696 OFFCURVE",
"338.667 707 OFFCURVE",
"292 709 CURVE",
"287.333 709 OFFCURVE",
"283 709 OFFCURVE",
"279 709 CURVE SMOOTH",
"237.667 709 OFFCURVE",
"202 700.667 OFFCURVE",
"172 684 CURVE",
"114 648.667 OFFCURVE",
"85 588.333 OFFCURVE",
"85 503 CURVE SMOOTH",
"85 189 LINE SMOOTH",
"85 57 OFFCURVE",
"178.667 -10 OFFCURVE",
"296 -10 CURVE SMOOTH"
);
},
{
closed = 1;
nodes = (
"323.667 729 OFFCURVE",
"351 757 OFFCURVE",
"351 789 CURVE SMOOTH",
"351 819.667 OFFCURVE",
"323.667 847 OFFCURVE",
"293 847 CURVE SMOOTH",
"261 847 OFFCURVE",
"233 819.667 OFFCURVE",
"233 789 CURVE SMOOTH",
"233 757 OFFCURVE",
"261 729 OFFCURVE",
"293 729 CURVE SMOOTH"
);
}
);
width = 566;
}
);
unicode = 0120;
},
{
glyphname = H;
lastChange = "2018-08-09 17:24:30 +0000";
layers = (
{
layerId = "BADA37E3-C95E-4946-BA48-1F986F6D85A7";
paths = (
{
closed = 1;
nodes = (
"134 0 LINE",
"134 358 LINE",
"452 358 LINE",
"452 0 LINE",
"508 0 LINE",
"508 700 LINE",
"452 700 LINE",
"452 413 LINE",
"134 413 LINE",
"134 700 LINE",
"78 700 LINE",
"78 0 LINE"
);
}
);
width = 588;
},
{
layerId = "77B00D75-0619-4FB7-8D17-EB9FCD2DF18B";
paths = (
{
closed = 1;
nodes = (
"97 0 LINE",
"97 394 LINE",
"489 394 LINE",
"489 0 LINE",
"508 0 LINE",
"508 700 LINE",
"489 700 LINE",
"489 413 LINE",
"97 413 LINE",
"97 700 LINE",
"78 700 LINE",
"78 0 LINE"
);
}
);
width = 588;
},
{
layerId = "8A94633D-DA21-409C-A8B7-00A83612E8B2";
paths = (
{
closed = 1;
nodes = (
"188 0 LINE",
"188 308 LINE",
"399 308 LINE",
"399 0 LINE",
"508 0 LINE",
"508 700 LINE",
"399 700 LINE",
"399 413 LINE",
"188 413 LINE",
"188 700 LINE",
"78 700 LINE",
"78 0 LINE"
);
}
);
width = 588;
}
);
leftKerningGroup = H;
rightKerningGroup = H;
unicode = 0048;
},
{
glyphname = Hbar;
lastChange = "2018-08-09 15:14:16 +0000";
layers = (
{
layerId = "BADA37E3-C95E-4946-BA48-1F986F6D85A7";
paths = (
{
closed = 1;
nodes = (
"183 0 LINE",
"183 358 LINE",
"501 358 LINE",
"501 0 LINE",
"557 0 LINE",
"557 483 LINE",
"605 483 LINE",
"605 538 LINE",
"557 538 LINE",
"557 700 LINE",
"501 700 LINE",
"501 538 LINE",
"183 538 LINE",
"183 700 LINE",
"127 700 LINE",
"127 538 LINE",
"78 538 LINE",
"78 483 LINE",
"127 483 LINE",
"127 0 LINE"
);
},
{
closed = 1;
nodes = (
"183 483 LINE",
"501 483 LINE",
"501 413 LINE",
"183 413 LINE"
);
}
);
width = 685;
},
{
layerId = "77B00D75-0619-4FB7-8D17-EB9FCD2DF18B";
paths = (
{
closed = 1;
nodes = (
"146 0 LINE",
"146 394 LINE",
"538 394 LINE",
"538 0 LINE",
"557 0 LINE",
"557 519 LINE",
"605 519 LINE",
"605 538 LINE",
"557 538 LINE",
"557 700 LINE",
"538 700 LINE",
"538 538 LINE",
"146 538 LINE",
"146 700 LINE",
"127 700 LINE",
"127 538 LINE",
"78 538 LINE",
"78 519 LINE",
"127 519 LINE",
"127 0 LINE"
);
},
{
closed = 1;
nodes = (
"146 519 LINE",
"538 519 LINE",
"538 413 LINE",
"146 413 LINE"
);
}
);
width = 685;
},
{
layerId = "8A94633D-DA21-409C-A8B7-00A83612E8B2";
paths = (
{
closed = 1;
nodes = (
"237 0 LINE",
"237 308 LINE",
"448 308 LINE",
"448 0 LINE",
"557 0 LINE",
"557 473 LINE",
"605 473 LINE",
"605 578 LINE",
"557 578 LINE",
"557 700 LINE",
"448 700 LINE",
"448 578 LINE",
"237 578 LINE",
"237 700 LINE",
"127 700 LINE",
"127 578 LINE",
"78 578 LINE",
"78 473 LINE",
"127 473 LINE",
"127 0 LINE"
);
},
{
closed = 1;
nodes = (
"237 473 LINE",
"448 473 LINE",
"448 413 LINE",
"237 413 LINE"
);
}
);
width = 685;
}
);
unicode = 0126;
},
{
glyphname = Hcircumflex;
lastChange = "2018-08-09 15:14:16 +0000";
layers = (
{
layerId = "BADA37E3-C95E-4946-BA48-1F986F6D85A7";
paths = (
{
closed = 1;
nodes = (
"134 0 LINE",
"134 358 LINE",
"452 358 LINE",
"452 0 LINE",
"508 0 LINE",
"508 700 LINE",
"452 700 LINE",
"452 413 LINE",
"134 413 LINE",
"134 700 LINE",
"78 700 LINE",
"78 0 LINE"
);
},
{
closed = 1;
nodes = (
"326 837 LINE",
"431 733 LINE",
"469 772 LINE",
"327 913 LINE",
"179 772 LINE",
"217 733 LINE"
);
}
);
width = 588;
},
{
layerId = "77B00D75-0619-4FB7-8D17-EB9FCD2DF18B";
paths = (
{
closed = 1;
nodes = (
"97 0 LINE",
"97 394 LINE",
"489 394 LINE",
"489 0 LINE",
"508 0 LINE",
"508 700 LINE",
"489 700 LINE",
"489 413 LINE",
"97 413 LINE",
"97 700 LINE",
"78 700 LINE",
"78 0 LINE"
);
},
{
closed = 1;
nodes = (
"297 883 LINE",
"423 756 LINE",
"440 772 LINE",
"298 913 LINE",
"150 772 LINE",
"166 756 LINE"
);
}
);
width = 588;
},
{
layerId = "8A94633D-DA21-409C-A8B7-00A83612E8B2";
paths = (
{
closed = 1;
nodes = (
"188 0 LINE",
"188 308 LINE",
"399 308 LINE",
"399 0 LINE",
"508 0 LINE",
"508 700 LINE",
"399 700 LINE",
"399 413 LINE",
"188 413 LINE",
"188 700 LINE",
"78 700 LINE",
"78 0 LINE"
);
},
{
closed = 1;
nodes = (
"297 814 LINE",
"373 731 LINE",
"440 770 LINE",
"298 911 LINE",
"150 770 LINE",
"216 731 LINE"
);
}
);
width = 588;
}
);
unicode = 0124;
},
{
glyphname = I;
lastChange = "2018-08-09 17:24:47 +0000";
layers = (
{
layerId = "BADA37E3-C95E-4946-BA48-1F986F6D85A7";
paths = (
{
closed = 1;
nodes = (
"189 0 LINE",
"189 700 LINE",
"66 700 LINE",
"66 651 LINE",
"133 649 LINE",
"133 0 LINE"
);
}
);
width = 264;
},
{
layerId = "77B00D75-0619-4FB7-8D17-EB9FCD2DF18B";
paths = (
{
closed = 1;
nodes = (
"135 0 LINE",
"135 700 LINE",
"30 700 LINE",
"30 681 LINE",
"116 679 LINE",
"116 0 LINE"
);
}
);
width = 193;
},
{
layerId = "8A94633D-DA21-409C-A8B7-00A83612E8B2";
paths = (
{
closed = 1;
nodes = (
"233 0 LINE",
"233 700 LINE",
"61 700 LINE",
"61 594 LINE",
"123 592 LINE",
"123 0 LINE"
);
}
);
width = 313;
}
);
leftKerningGroup = I;
rightKerningGroup = I;
unicode = 0049;
},
{
glyphname = Iacute;
lastChange = "2018-08-09 15:14:16 +0000";
layers = (
{
layerId = "BADA37E3-C95E-4946-BA48-1F986F6D85A7";
paths = (
{
closed = 1;
nodes = (
"201 0 LINE",
"201 700 LINE",
"78 700 LINE",
"78 651 LINE",
"145 649 LINE",
"145 0 LINE"
);
},
{
closed = 1;
nodes = (
"196 730 LINE",
"265 822 LINE",
"268.333 826 OFFCURVE",
"270 830.333 OFFCURVE",
"270 835 CURVE SMOOTH",
"270 839.667 OFFCURVE",
"269.333 844 OFFCURVE",
"268 848 CURVE",
"264 863.333 OFFCURVE",
"253 871 OFFCURVE",
"235 871 CURVE SMOOTH",
"221 871 OFFCURVE",
"210.333 863.333 OFFCURVE",
"203 848 CURVE",
"152 730 LINE"
);
}
);
width = 350;
},
{
layerId = "77B00D75-0619-4FB7-8D17-EB9FCD2DF18B";
paths = (
{
closed = 1;
nodes = (
"183 0 LINE",
"183 700 LINE",
"78 700 LINE",
"78 681 LINE",
"164 679 LINE",
"164 0 LINE"
);
},
{
closed = 1;
nodes = (
"183 730 LINE",
"246 843 LINE",
"249.333 848.333 OFFCURVE",
"251 853 OFFCURVE",
"251 857 CURVE SMOOTH",
"251 866.333 OFFCURVE",
"245.333 871 OFFCURVE",
"234 871 CURVE SMOOTH",
"227.333 871 OFFCURVE",
"222.333 866.667 OFFCURVE",
"219 858 CURVE",
"164 730 LINE"
);
}
);
width = 331;
},
{
layerId = "8A94633D-DA21-409C-A8B7-00A83612E8B2";
paths = (
{
closed = 1;
nodes = (
"250 0 LINE",
"250 700 LINE",
"78 700 LINE",
"78 594 LINE",
"140 592 LINE",
"140 0 LINE"
);
},
{
closed = 1;
nodes = (
"238 730 LINE",
"287 793 LINE SMOOTH",
"297.667 807 OFFCURVE",
"303 820 OFFCURVE",
"303 832 CURVE SMOOTH",
"303 834 OFFCURVE",
"302.667 836 OFFCURVE",
"302 838 CURVE",
"299.333 851.333 OFFCURVE",
"291.333 861.333 OFFCURVE",
"278 868 CURVE",
"274 870.667 OFFCURVE",
"269 872 OFFCURVE",
"263 872 CURVE SMOOTH",
"257.667 872 OFFCURVE",
"251.333 870.667 OFFCURVE",
"244 868 CURVE",
"228.667 863.333 OFFCURVE",
"217.667 853.333 OFFCURVE",
"211 838 CURVE SMOOTH",
"165 730 LINE"
);
}
);
width = 383;
}
);
unicode = 00CD;
},
{
glyphname = Icircumflex;
lastChange = "2018-08-09 15:14:16 +0000";
layers = (
{
layerId = "BADA37E3-C95E-4946-BA48-1F986F6D85A7";
paths = (
{
closed = 1;
nodes = (
"263 0 LINE",
"263 700 LINE",
"140 700 LINE",
"140 651 LINE",
"207 649 LINE",
"207 0 LINE"
);
},
{
closed = 1;
nodes = (
"225 837 LINE",
"330 733 LINE",
"368 772 LINE",
"226 913 LINE",
"78 772 LINE",
"116 733 LINE"
);
}
);
width = 448;
},
{
layerId = "77B00D75-0619-4FB7-8D17-EB9FCD2DF18B";
paths = (
{
closed = 1;
nodes = (
"252 0 LINE",
"252 700 LINE",
"147 700 LINE",
"147 681 LINE",
"233 679 LINE",
"233 0 LINE"
);
},
{
closed = 1;
nodes = (
"225 883 LINE",
"351 756 LINE",
"368 772 LINE",
"226 913 LINE",
"78 772 LINE",
"94 756 LINE"
);
}
);
width = 448;
},
{
layerId = "8A94633D-DA21-409C-A8B7-00A83612E8B2";
paths = (
{
closed = 1;
nodes = (
"280 0 LINE",
"280 700 LINE",
"108 700 LINE",
"108 594 LINE",
"170 592 LINE",
"170 0 LINE"
);
},
{
closed = 1;
nodes = (
"225 814 LINE",
"301 731 LINE",
"368 770 LINE",
"226 911 LINE",
"78 770 LINE",
"144 731 LINE"
);
}
);
width = 448;
}
);
unicode = 00CE;
},
{
glyphname = Idieresis;
lastChange = "2018-08-09 15:14:16 +0000";
layers = (
{
layerId = "BADA37E3-C95E-4946-BA48-1F986F6D85A7";
paths = (
{
closed = 1;
nodes = (
"226 0 LINE",
"226 700 LINE",
"103 700 LINE",
"103 651 LINE",
"170 649 LINE",
"170 0 LINE"
);
},
{
closed = 1;
nodes = (
"164.68 768.68 OFFCURVE",
"119.783 815.694 OFFCURVE",
"88 785.5 CURVE SMOOTH",
"57.57 756.591 OFFCURVE",
"101.043 708.339 OFFCURVE",
"134 738 CURVE"
);
},
{
closed = 1;
nodes = (
"320.68 768.68 OFFCURVE",
"275.783 815.694 OFFCURVE",
"244 785.5 CURVE SMOOTH",
"213.57 756.591 OFFCURVE",
"257.043 708.339 OFFCURVE",
"290 738 CURVE"
);
}
);
width = 380;
},
{
layerId = "77B00D75-0619-4FB7-8D17-EB9FCD2DF18B";
paths = (
{
closed = 1;
nodes = (
"183 0 LINE",
"183 700 LINE",
"78 700 LINE",
"78 681 LINE",
"164 679 LINE",
"164 0 LINE"
);
}
);
width = 263;
},
{
layerId = "8A94633D-DA21-409C-A8B7-00A83612E8B2";
paths = (
{
closed = 1;
nodes = (
"262 0 LINE",
"262 700 LINE",
"90 700 LINE",
"90 594 LINE",
"152 592 LINE",
"152 0 LINE"
);
},
{
closed = 1;
nodes = (
"147.333 729 OFFCURVE",
"167 749 OFFCURVE",
"167 773 CURVE SMOOTH",
"167 798.333 OFFCURVE",
"147.333 818 OFFCURVE",
"122 818 CURVE SMOOTH",
"98 818 OFFCURVE",
"78 798.333 OFFCURVE",
"78 773 CURVE SMOOTH",
"78 749 OFFCURVE",
"98 729 OFFCURVE",
"122 729 CURVE SMOOTH"
);
},
{
closed = 1;
nodes = (
"329.002 784.002 OFFCURVE",
"265.002 848.002 OFFCURVE",
"223 806 CURVE SMOOTH",
"180.998 763.998 OFFCURVE",
"244.998 699.998 OFFCURVE",
"287 742 CURVE SMOOTH"
);
}
);
width = 380;
}
);
unicode = 00CF;
},
{
glyphname = Idot;
lastChange = "2018-08-09 15:14:23 +0000";
layers = (
{
layerId = "BADA37E3-C95E-4946-BA48-1F986F6D85A7";
paths = (
{
closed = 1;
nodes = (
"201 0 LINE",
"201 700 LINE",
"78 700 LINE",
"78 651 LINE",
"145 649 LINE",
"145 0 LINE"
);
},
{
closed = 1;
nodes = (
"140 719.795 OFFCURVE",
"207 719.387 OFFCURVE",
"207 764 CURVE SMOOTH",
"207 808.821 OFFCURVE",
"140 805.996 OFFCURVE",
"140 763.5 CURVE SMOOTH"
);
}
);
width = 287;
},
{
layerId = "77B00D75-0619-4FB7-8D17-EB9FCD2DF18B";
paths = (
{
closed = 1;
nodes = (
"183 0 LINE",
"183 700 LINE",
"78 700 LINE",
"78 681 LINE",
"164 679 LINE",
"164 0 LINE"
);
},
{
closed = 1;
nodes = (
"186.84 782.36 OFFCURVE",
"187 783 OFFCURVE",
"187 783 CURVE"
);
}
);
width = 267;
},
{
layerId = "8A94633D-DA21-409C-A8B7-00A83612E8B2";
paths = (
{
closed = 1;
nodes = (
"250 0 LINE",
"250 700 LINE",
"78 700 LINE",
"78 594 LINE",
"140 592 LINE",
"140 0 LINE"
);
},
{
closed = 1;
nodes = (
"230.667 730 OFFCURVE",
"258 758 OFFCURVE",
"258 790 CURVE SMOOTH",
"258 820.667 OFFCURVE",
"230.667 848 OFFCURVE",
"200 848 CURVE SMOOTH",
"168 848 OFFCURVE",
"140 820.667 OFFCURVE",
"140 790 CURVE SMOOTH",
"140 758 OFFCURVE",
"168 730 OFFCURVE",
"200 730 CURVE SMOOTH"
);
}
);
width = 338;
}
);
unicode = 0130;
},
{
glyphname = Igrave;
lastChange = "2018-08-09 15:14:16 +0000";
layers = (
{
layerId = "BADA37E3-C95E-4946-BA48-1F986F6D85A7";
paths = (
{
closed = 1;
nodes = (
"210 0 LINE",
"210 700 LINE",
"87 700 LINE",
"87 651 LINE",
"154 649 LINE",
"154 0 LINE"
);
},
{
closed = 1;
nodes = (
"196 732 LINE",
"145 850 LINE",
"137.667 865.333 OFFCURVE",
"127 873 OFFCURVE",
"113 873 CURVE SMOOTH",
"109 873 OFFCURVE",
"104.667 872.333 OFFCURVE",
"100 871 CURVE SMOOTH",
"85.333 866.333 OFFCURVE",
"78 855 OFFCURVE",
"78 837 CURVE SMOOTH",
"78 832.333 OFFCURVE",
"79.667 828 OFFCURVE",
"83 824 CURVE",
"152 732 LINE"
);
}
);
width = 290;
},
{
layerId = "77B00D75-0619-4FB7-8D17-EB9FCD2DF18B";
paths = (
{
closed = 1;
nodes = (
"183 0 LINE",
"183 700 LINE",
"78 700 LINE",
"78 681 LINE",
"164 679 LINE",
"164 0 LINE"
);
},
{
closed = 1;
nodes = (
"182 730 LINE",
"127 858 LINE",
"123.667 866.667 OFFCURVE",
"118.667 871 OFFCURVE",
"112 871 CURVE SMOOTH",
"109.333 871 OFFCURVE",
"106.667 870.333 OFFCURVE",
"104 869 CURVE",
"93.333 864.333 OFFCURVE",
"92 855.667 OFFCURVE",
"100 843 CURVE",
"163 730 LINE"
);
}
);
width = 263;
},
{
layerId = "8A94633D-DA21-409C-A8B7-00A83612E8B2";
paths = (
{
closed = 1;
nodes = (
"250 0 LINE",
"250 700 LINE",
"78 700 LINE",
"78 594 LINE",
"140 592 LINE",
"140 0 LINE"
);
},
{
closed = 1;
nodes = (
"248 732 LINE",
"202 840 LINE SMOOTH",
"195.333 855.333 OFFCURVE",
"184.333 865.333 OFFCURVE",
"169 870 CURVE",
"161.667 872.667 OFFCURVE",
"155.333 874 OFFCURVE",
"150 874 CURVE SMOOTH",
"144 874 OFFCURVE",
"139 872.667 OFFCURVE",
"135 870 CURVE",
"121.667 863.333 OFFCURVE",
"113.667 853.333 OFFCURVE",
"111 840 CURVE",
"110.333 838 OFFCURVE",
"110 836 OFFCURVE",
"110 834 CURVE SMOOTH",
"110 822 OFFCURVE",
"115.333 809 OFFCURVE",
"126 795 CURVE SMOOTH",
"175 732 LINE"
);
}
);
width = 330;
}
);
unicode = 00CC;
},
{
glyphname = Imacron;
lastChange = "2018-08-09 15:14:16 +0000";
layers = (
{
layerId = "BADA37E3-C95E-4946-BA48-1F986F6D85A7";
paths = (
{
closed = 1;
nodes = (
"245 0 LINE",
"245 700 LINE",
"122 700 LINE",
"122 651 LINE",
"189 649 LINE",
"189 0 LINE"
);
},
{
closed = 1;
nodes = (
"294 730 LINE",
"294 788 LINE",
"78 788 LINE",
"78 730 LINE"
);
}
);
width = 374;
},
{
layerId = "77B00D75-0619-4FB7-8D17-EB9FCD2DF18B";
paths = (
{
closed = 1;
nodes = (
"227 0 LINE",
"227 700 LINE",
"122 700 LINE",
"122 681 LINE",
"208 679 LINE",
"208 0 LINE"
);
},
{
closed = 1;
nodes = (
"294 769 LINE",
"294 788 LINE",
"78 788 LINE",
"78 769 LINE"
);
}
);
width = 374;
},
{
layerId = "8A94633D-DA21-409C-A8B7-00A83612E8B2";
paths = (
{
closed = 1;
nodes = (
"252 0 LINE",
"252 700 LINE",
"80 700 LINE",
"80 594 LINE",
"142 592 LINE",
"142 0 LINE"
);
},
{
closed = 1;
nodes = (
"294 730 LINE",
"294 821 LINE",
"78 821 LINE",
"78 730 LINE"
);
}
);
width = 374;
}
);
unicode = 012A;
},
{
glyphname = Iogonek;
lastChange = "2018-08-09 15:14:16 +0000";
layers = (
{
layerId = "BADA37E3-C95E-4946-BA48-1F986F6D85A7";
paths = (
{
closed = 1;
nodes = (
"213.333 -213 OFFCURVE",
"245.667 -196.333 OFFCURVE",
"267 -163 CURVE",
"230 -125 LINE",
"191.87 -184.919 OFFCURVE",
"128 -174.696 OFFCURVE",
"128 -127 CURVE SMOOTH",
"128 -100.333 OFFCURVE",
"162.667 -58 OFFCURVE",
"232 0 CURVE",
"232 700 LINE",
"109 700 LINE",
"109 651 LINE",
"176 649 LINE",
"176 0 LINE",
"174 0 LINE",
"110 -42 OFFCURVE",
"78 -85.667 OFFCURVE",
"78 -131 CURVE SMOOTH",
"78 -191.821 OFFCURVE",
"129.699 -213 OFFCURVE",
"170 -213 CURVE SMOOTH"
);
}
);
width = 347;
},
{
layerId = "77B00D75-0619-4FB7-8D17-EB9FCD2DF18B";
paths = (
{
closed = 1;
nodes = (
"213.667 -213 OFFCURVE",
"245.667 -196.333 OFFCURVE",
"267 -163 CURVE",
"251 -147 LINE",
"231.667 -177.667 OFFCURVE",
"205 -193 OFFCURVE",
"171 -193 CURVE SMOOTH",
"131 -193 OFFCURVE",
"98 -166 OFFCURVE",
"98 -130 CURVE SMOOTH",
"98 -88.667 OFFCURVE",
"131.333 -45.333 OFFCURVE",
"198 0 CURVE",
"196 0 LINE",
"196 700 LINE",
"91 700 LINE",
"91 681 LINE",
"177 679 LINE",
"177 0 LINE",
"174 0 LINE",
"110 -43.333 OFFCURVE",
"78 -86 OFFCURVE",
"78 -128 CURVE SMOOTH",
"78 -163.333 OFFCURVE",
"92.667 -188 OFFCURVE",
"122 -202 CURVE SMOOTH",
"138 -209.333 OFFCURVE",
"154.333 -213 OFFCURVE",
"171 -213 CURVE SMOOTH"
);
}
);
width = 347;
},
{
layerId = "8A94633D-DA21-409C-A8B7-00A83612E8B2";
paths = (
{
closed = 1;
nodes = (
"229.667 -213 OFFCURVE",
"261 -200.333 OFFCURVE",
"285 -163 CURVE",
"236 -110 LINE",
"224 -134 OFFCURVE",
"205 -145 OFFCURVE",
"193 -145 CURVE SMOOTH",
"173.667 -145 OFFCURVE",
"162.667 -137 OFFCURVE",
"160 -121 CURVE",
"160 -119.667 OFFCURVE",
"160 -118 OFFCURVE",
"160 -116 CURVE SMOOTH",
"160 -88 OFFCURVE",
"190 -49.333 OFFCURVE",
"250 0 CURVE",
"250 700 LINE",
"78 700 LINE",
"78 594 LINE",
"140 592 LINE",
"140 0 LINE",
"181 0 LINE",
"121 -36.667 OFFCURVE",
"90 -75.667 OFFCURVE",
"88 -117 CURVE",
"88 -119 OFFCURVE",
"88 -121.333 OFFCURVE",
"88 -124 CURVE SMOOTH",
"88 -142.667 OFFCURVE",
"93 -159.333 OFFCURVE",
"103 -174 CURVE",
"125.667 -204.667 OFFCURVE",
"153.667 -213 OFFCURVE",
"175 -213 CURVE SMOOTH"
);
}
);
width = 365;
}
);
unicode = 012E;
},
{
glyphname = Itilde;
lastChange = "2018-08-09 15:14:16 +0000";
layers = (
{
layerId = "BADA37E3-C95E-4946-BA48-1F986F6D85A7";
paths = (
{
closed = 1;
nodes = (
"286 0 LINE",
"286 700 LINE",
"163 700 LINE",
"163 651 LINE",
"230 649 LINE",
"230 0 LINE"
);
},
{
closed = 1;
nodes = (
"350 729 OFFCURVE",
"382 746.667 OFFCURVE",
"412 782 CURVE",
"387 821 LINE",
"366.333 797.667 OFFCURVE",
"343 786 OFFCURVE",
"317 786 CURVE SMOOTH",
"262.578 786 OFFCURVE",
"222.11 827 OFFCURVE",
"178 827 CURVE SMOOTH",
"142.667 827 OFFCURVE",
"109.333 809.333 OFFCURVE",
"78 774 CURVE",
"103 735 LINE",
"125.667 759 OFFCURVE",
"150.667 771 OFFCURVE",
"178 771 CURVE SMOOTH",
"231.488 771 OFFCURVE",
"272.716 729 OFFCURVE",
"316 729 CURVE SMOOTH"
);
}
);
width = 492;
},
{
layerId = "77B00D75-0619-4FB7-8D17-EB9FCD2DF18B";
paths = (
{
closed = 1;
nodes = (
"268 0 LINE",
"268 700 LINE",
"163 700 LINE",
"163 681 LINE",
"249 679 LINE",
"249 0 LINE"
);
},
{
closed = 1;
nodes = (
"114.333 790.333 OFFCURVE",
"142.333 805 OFFCURVE",
"173 805 CURVE SMOOTH",
"221.769 805 OFFCURVE",
"260.054 762 OFFCURVE",
"317 762 CURVE SMOOTH",
"346.333 762 OFFCURVE",
"373.667 773.667 OFFCURVE",
"399 797 CURVE",
"389 814 LINE",
"368.333 792.667 OFFCURVE",
"347.333 782 OFFCURVE",
"326 782 CURVE SMOOTH",
"304.667 782 OFFCURVE",
"285.667 786 OFFCURVE",
"269 794 CURVE SMOOTH",
"225.667 815.333 OFFCURVE",
"195 826 OFFCURVE",
"177 826 CURVE SMOOTH",
"142.333 826 OFFCURVE",
"109.333 809.667 OFFCURVE",
"78 777 CURVE",
"89 761 LINE"
);
}
);
width = 479;
},
{
layerId = "8A94633D-DA21-409C-A8B7-00A83612E8B2";
paths = (
{
closed = 1;
nodes = (
"318 0 LINE",
"318 700 LINE",
"146 700 LINE",
"146 594 LINE",
"208 592 LINE",
"208 0 LINE"
);
},
{
closed = 1;
nodes = (
"341.667 703 OFFCURVE",
"351 704.333 OFFCURVE",
"361 707 CURVE SMOOTH",
"383.667 713 OFFCURVE",
"406.333 729.333 OFFCURVE",
"429 756 CURVE",
"387 821 LINE",
"368.333 800.333 OFFCURVE",
"348.667 789 OFFCURVE",
"328 787 CURVE",
"324.667 786.333 OFFCURVE",
"321 786 OFFCURVE",
"317 786 CURVE SMOOTH",
"300.333 786 OFFCURVE",
"284.667 789.333 OFFCURVE",
"270 796 CURVE SMOOTH",
"250.667 804.667 OFFCURVE",
"231.333 812.667 OFFCURVE",
"212 820 CURVE",
"201.333 824.667 OFFCURVE",
"190 827 OFFCURVE",
"178 827 CURVE SMOOTH",
"168.667 827 OFFCURVE",
"158.667 825.333 OFFCURVE",
"148 822 CURVE",
"124.667 816 OFFCURVE",
"101.333 800 OFFCURVE",
"78 774 CURVE",
"117 709 LINE",
"137 730.333 OFFCURVE",
"158 742 OFFCURVE",
"180 744 CURVE",
"184 744.667 OFFCURVE",
"188.333 745 OFFCURVE",
"193 745 CURVE SMOOTH",
"209.667 745 OFFCURVE",
"225.333 741.667 OFFCURVE",
"240 735 CURVE SMOOTH",
"259.333 726.333 OFFCURVE",
"278.667 718 OFFCURVE",
"298 710 CURVE SMOOTH",
"309.333 705.333 OFFCURVE",
"321 703 OFFCURVE",
"333 703 CURVE SMOOTH"
);
}
);
width = 509;
}
);
unicode = 0128;
},
{
glyphname = J;
lastChange = "2018-08-09 17:24:52 +0000";
layers = (
{
layerId = "BADA37E3-C95E-4946-BA48-1F986F6D85A7";
paths = (
{
closed = 1;
nodes = (
"105.667 -37 OFFCURVE",
"153 19.333 OFFCURVE",
"153 118 CURVE SMOOTH",
"153 700 LINE",
"29 700 LINE",
"29 651 LINE",
"96 649 LINE",
"96 114 LINE SMOOTH",
"96 34 OFFCURVE",
"58 0 OFFCURVE",
"14 0 CURVE",
"27 -37 LINE"
);
}
);
width = 196;
},
{
layerId = "77B00D75-0619-4FB7-8D17-EB9FCD2DF18B";
paths = (
{
closed = 1;
nodes = (
"83.667 -23.667 OFFCURVE",
"113 22 OFFCURVE",
"113 122 CURVE SMOOTH",
"113 700 LINE",
"11 700 LINE",
"11 681 LINE",
"95 679 LINE",
"95 118 LINE SMOOTH",
"95 35.333 OFFCURVE",
"64.333 -10.333 OFFCURVE",
"3 -19 CURVE",
"9 -37 LINE"
);
}
);
width = 177;
},
{
layerId = "8A94633D-DA21-409C-A8B7-00A83612E8B2";
paths = (
{
closed = 1;
nodes = (
"155.667 -35.667 OFFCURVE",
"198 12.333 OFFCURVE",
"198 139 CURVE SMOOTH",
"198 700 LINE",
"30 700 LINE",
"30 594 LINE",
"90 592 LINE",
"90 156 LINE SMOOTH",
"90 90 OFFCURVE",
"55 57 OFFCURVE",
"-15 57 CURVE",
"21 -37 LINE"
);
}
);
width = 234;
}
);
leftKerningGroup = J;
rightKerningGroup = J;
unicode = 004A;
},
{
glyphname = Jcircumflex;
lastChange = "2018-08-09 15:14:16 +0000";
layers = (
{
layerId = "BADA37E3-C95E-4946-BA48-1F986F6D85A7";
paths = (
{
closed = 1;
nodes = (
"95.667 -37 OFFCURVE",
"143 19.333 OFFCURVE",
"143 118 CURVE SMOOTH",
"143 700 LINE",
"19 700 LINE",
"19 651 LINE",
"86 649 LINE",
"86 114 LINE SMOOTH",
"86 34 OFFCURVE",
"48 0 OFFCURVE",
"4 0 CURVE",
"17 -37 LINE"
);
},
{
closed = 1;
nodes = (
"-4 692.211 OFFCURVE",
"222 692.211 OFFCURVE",
"222 841 CURVE SMOOTH",
"222 846 LINE",
"177 846 LINE",
"177 841 LINE SMOOTH",
"177 750.837 OFFCURVE",
"41 750.837 OFFCURVE",
"41 841 CURVE SMOOTH",
"41 846 LINE",
"-4 846 LINE",
"-4 841 LINE SMOOTH"
);
}
);
width = 265;
},
{
layerId = "77B00D75-0619-4FB7-8D17-EB9FCD2DF18B";
paths = (
{
closed = 1;
nodes = (
"98.667 -23.667 OFFCURVE",
"128 22 OFFCURVE",
"128 122 CURVE SMOOTH",
"128 700 LINE",
"26 700 LINE",
"26 681 LINE",
"110 679 LINE",
"110 118 LINE SMOOTH",
"110 35.333 OFFCURVE",
"79.333 -10.333 OFFCURVE",
"18 -19 CURVE",
"24 -37 LINE"
);
},
{
closed = 1;
nodes = (
"3 692.545 OFFCURVE",
"229 692.545 OFFCURVE",
"229 841 CURVE SMOOTH",
"229 846 LINE",
"208 846 LINE",
"208 841 LINE SMOOTH",
"208 720.761 OFFCURVE",
"24 718.288 OFFCURVE",
"24 841 CURVE SMOOTH",
"24 846 LINE",
"3 846 LINE",
"3 841 LINE SMOOTH"
);
}
);
width = 247;
},
{
layerId = "8A94633D-DA21-409C-A8B7-00A83612E8B2";
paths = (
{
closed = 1;
nodes = (
"155.667 -35.667 OFFCURVE",
"198 12.333 OFFCURVE",
"198 139 CURVE SMOOTH",
"198 700 LINE",
"30 700 LINE",
"30 594 LINE",
"90 592 LINE",
"90 156 LINE SMOOTH",
"90 90 OFFCURVE",
"55 57 OFFCURVE",
"-15 57 CURVE",
"21 -37 LINE"
);
},
{
closed = 1;
nodes = (
"109 806 OFFCURVE",
"99 817.667 OFFCURVE",
"99 841 CURVE SMOOTH",
"99 846 LINE",
"16 846 LINE",
"16 841 LINE SMOOTH",
"16 692.211 OFFCURVE",
"242 692.211 OFFCURVE",
"242 841 CURVE SMOOTH",
"242 846 LINE",
"160 846 LINE",
"160 841 LINE SMOOTH",
"160 819.667 OFFCURVE",
"147.667 806 OFFCURVE",
"129 806 CURVE SMOOTH"
);
}
);
width = 278;
}
);
unicode = 0134;
},
{
glyphname = K;
lastChange = "2018-08-09 17:25:01 +0000";
layers = (
{
layerId = "BADA37E3-C95E-4946-BA48-1F986F6D85A7";
paths = (
{
closed = 1;
nodes = (
"135 0 LINE",
"135 269 LINE",
"183 345 LINE",
"409 0 LINE",
"476 0 LINE",
"219 398 LINE",
"424 701 LINE",
"359 701 LINE",
"135 367 LINE",
"135 701 LINE",
"79 701 LINE",
"79 0 LINE"
);
}
);
width = 475;
},
{
layerId = "77B00D75-0619-4FB7-8D17-EB9FCD2DF18B";
paths = (
{
closed = 1;
nodes = (
"98 0 LINE",
"98 280 LINE",
"195 403 LINE",
"455 0 LINE",
"476 0 LINE",
"207 418 LINE",
"424 701 LINE",
"402 701 LINE",
"98 308 LINE",
"98 701 LINE",
"79 701 LINE",
"79 0 LINE"
);
}
);
width = 479;
},
{
layerId = "8A94633D-DA21-409C-A8B7-00A83612E8B2";
paths = (
{
closed = 1;
nodes = (
"197 0 LINE",
"197 268 LINE",
"204 278 LINE",
"393 0 LINE",
"530 0 LINE",
"269 376 LINE",
"491 701 LINE",
"359 701 LINE",
"197 460 LINE",
"197 701 LINE",
"79 701 LINE",
"79 0 LINE"
);
}
);
width = 532;
}
);
leftKerningGroup = H;
rightKerningGroup = K;
unicode = 004B;
},
{
glyphname = Kcommaaccent;
lastChange = "2018-08-09 15:14:16 +0000";
layers = (
{
layerId = "BADA37E3-C95E-4946-BA48-1F986F6D85A7";
paths = (
{
closed = 1;
nodes = (
"135 0 LINE",
"135 269 LINE",
"183 345 LINE",
"409 0 LINE",
"476 0 LINE",
"219 398 LINE",
"424 701 LINE",
"359 701 LINE",
"135 367 LINE",
"135 701 LINE",
"79 701 LINE",
"79 0 LINE"
);
},
{
closed = 1;
nodes = (
"272.667 -148.667 OFFCURVE",
"294 -111.667 OFFCURVE",
"294 -73 CURVE SMOOTH",
"294 -44.854 OFFCURVE",
"271.101 -34 OFFCURVE",
"252 -34 CURVE SMOOTH",
"229.886 -34 OFFCURVE",
"210.692 -76.666 OFFCURVE",
"243 -100 CURVE",
"253 -103 LINE",
"248 -110 LINE",
"239.333 -123.333 OFFCURVE",
"220 -138.667 OFFCURVE",
"190 -156 CURVE",
"230 -184 LINE"
);
}
);
width = 475;
},
{
layerId = "77B00D75-0619-4FB7-8D17-EB9FCD2DF18B";
paths = (
{
closed = 1;
nodes = (
"98 0 LINE",
"98 280 LINE",
"195 403 LINE",
"455 0 LINE",
"476 0 LINE",
"207 418 LINE",
"424 701 LINE",
"402 701 LINE",
"98 308 LINE",
"98 701 LINE",
"79 701 LINE",
"79 0 LINE"
);
},
{
closed = 1;
nodes = (
"265.667 -150.667 OFFCURVE",
"286 -118 OFFCURVE",
"286 -86 CURVE SMOOTH",
"286 -46.493 OFFCURVE",
"230.368 -92.085 OFFCURVE",
"269 -101 CURVE",
"271 -101 LINE",
"268 -112 LINE SMOOTH",
"264 -126.667 OFFCURVE",
"242.333 -154.333 OFFCURVE",
"209 -173 CURVE",
"225 -184 LINE"
);
}
);
width = 479;
},
{
layerId = "8A94633D-DA21-409C-A8B7-00A83612E8B2";
paths = (
{
closed = 1;
nodes = (
"197 0 LINE",
"197 268 LINE",
"204 278 LINE",
"393 0 LINE",
"530 0 LINE",
"269 376 LINE",
"491 701 LINE",
"359 701 LINE",
"197 460 LINE",
"197 701 LINE",
"79 701 LINE",
"79 0 LINE"
);
},
{
closed = 1;
nodes = (
"304 -172.667 OFFCURVE",
"323 -141.333 OFFCURVE",
"323 -96 CURVE SMOOTH",
"323 -66.667 OFFCURVE",
"307.667 -34.333 OFFCURVE",
"273 -33 CURVE",
"272.333 -33 OFFCURVE",
"271.333 -33 OFFCURVE",
"270 -33 CURVE SMOOTH",
"255.333 -33 OFFCURVE",
"243 -38 OFFCURVE",
"233 -48 CURVE SMOOTH",
"222.333 -58 OFFCURVE",
"217 -70.667 OFFCURVE",
"217 -86 CURVE SMOOTH",
"217 -108.667 OFFCURVE",
"227 -124.667 OFFCURVE",
"247 -134 CURVE",
"259 -137 LINE",
"252 -144 LINE",
"241.333 -153.333 OFFCURVE",
"215 -173 OFFCURVE",
"187 -189 CURVE",
"256 -218 LINE"
);
}
);
width = 532;
}
);
unicode = 0136;
},
{
glyphname = L;
lastChange = "2018-08-09 17:25:05 +0000";
layers = (
{
layerId = "BADA37E3-C95E-4946-BA48-1F986F6D85A7";
paths = (
{
closed = 1;
nodes = (
"439 0 LINE",
"439 50 LINE",
"134 50 LINE",
"134 700 LINE",
"78 700 LINE",
"78 0 LINE"
);
}
);
width = 440;
},
{
layerId = "77B00D75-0619-4FB7-8D17-EB9FCD2DF18B";
paths = (
{
closed = 1;
nodes = (
"439 0 LINE",
"439 20 LINE",
"97 20 LINE",
"97 700 LINE",
"78 700 LINE",
"78 0 LINE"
);
}
);
width = 440;
},
{
layerId = "8A94633D-DA21-409C-A8B7-00A83612E8B2";
paths = (
{
closed = 1;
nodes = (
"439 0 LINE",
"439 101 LINE",
"188 101 LINE",
"188 700 LINE",
"78 700 LINE",
"78 0 LINE"
);
}
);
width = 440;
}
);
leftKerningGroup = H;
rightKerningGroup = L;
unicode = 004C;
},
{
glyphname = Lacute;
lastChange = "2018-08-09 15:14:16 +0000";
layers = (
{
layerId = "BADA37E3-C95E-4946-BA48-1F986F6D85A7";
paths = (
{
closed = 1;
nodes = (
"439 0 LINE",
"439 50 LINE",
"134 50 LINE",
"134 700 LINE",
"78 700 LINE",
"78 0 LINE"
);
},
{
closed = 1;
nodes = (
"185 730 LINE",
"254 822 LINE",
"257.333 826 OFFCURVE",
"259 830.333 OFFCURVE",
"259 835 CURVE SMOOTH",
"259 839.667 OFFCURVE",
"258.667 844 OFFCURVE",
"258 848 CURVE",
"253.333 863.333 OFFCURVE",
"242 871 OFFCURVE",
"224 871 CURVE SMOOTH",
"210 871 OFFCURVE",
"199.333 863.333 OFFCURVE",
"192 848 CURVE",
"141 730 LINE"
);
}
);
width = 440;
},
{
layerId = "77B00D75-0619-4FB7-8D17-EB9FCD2DF18B";
paths = (
{
closed = 1;
nodes = (
"439 0 LINE",
"439 20 LINE",
"97 20 LINE",
"97 700 LINE",
"78 700 LINE",
"78 0 LINE"
);
},
{
closed = 1;
nodes = (
"101 730 LINE",
"164 843 LINE",
"172 855.667 OFFCURVE",
"170.667 864.333 OFFCURVE",
"160 869 CURVE",
"157.333 870.333 OFFCURVE",
"154.667 871 OFFCURVE",
"152 871 CURVE SMOOTH",
"145.333 871 OFFCURVE",
"140.333 866.667 OFFCURVE",
"137 858 CURVE",
"82 730 LINE"
);
}
);
width = 440;
},
{
layerId = "8A94633D-DA21-409C-A8B7-00A83612E8B2";
paths = (
{
closed = 1;
nodes = (
"439 0 LINE",
"439 101 LINE",
"188 101 LINE",
"188 700 LINE",
"78 700 LINE",
"78 0 LINE"
);
},
{
closed = 1;
nodes = (
"176 731 LINE",
"225 794 LINE SMOOTH",
"235.667 808 OFFCURVE",
"241 821 OFFCURVE",
"241 833 CURVE SMOOTH",
"241 835 OFFCURVE",
"240.667 837.333 OFFCURVE",
"240 840 CURVE",
"237.333 852.667 OFFCURVE",
"229.333 862.333 OFFCURVE",
"216 869 CURVE",
"212 871.667 OFFCURVE",
"207 873 OFFCURVE",
"201 873 CURVE SMOOTH",
"195.667 873 OFFCURVE",
"189.333 872 OFFCURVE",
"182 870 CURVE",
"166.667 864.667 OFFCURVE",
"155.667 854.333 OFFCURVE",
"149 839 CURVE SMOOTH",
"103 731 LINE"
);
}
);
width = 440;
}
);
unicode = 0139;
},
{
glyphname = Lcaron;
lastChange = "2018-08-09 15:14:16 +0000";
layers = (
{
layerId = "BADA37E3-C95E-4946-BA48-1F986F6D85A7";
paths = (
{
closed = 1;
nodes = (
"554 0 LINE",
"554 50 LINE",
"249 50 LINE",
"249 700 LINE",
"193 700 LINE",
"193 0 LINE"
);
},
{
closed = 1;
nodes = (
"368 875 LINE",
"330 914 LINE",
"225 810 LINE",
"116 914 LINE",
"78 875 LINE",
"226 734 LINE"
);
}
);
width = 555;
},
{
layerId = "77B00D75-0619-4FB7-8D17-EB9FCD2DF18B";
paths = (
{
closed = 1;
nodes = (
"437 0 LINE",
"437 20 LINE",
"95 20 LINE",
"95 700 LINE",
"76 700 LINE",
"76 0 LINE"
);
},
{
closed = 1;
nodes = (
"228 875 LINE",
"213 890 LINE",
"85 764 LINE",
"-47 890 LINE",
"-62 875 LINE",
"86 734 LINE"
);
}
);
width = 438;
},
{
layerId = "8A94633D-DA21-409C-A8B7-00A83612E8B2";
paths = (
{
closed = 1;
nodes = (
"531 0 LINE",
"531 101 LINE",
"280 101 LINE",
"280 700 LINE",
"170 700 LINE",
"170 0 LINE"
);
},
{
closed = 1;
nodes = (
"368 875 LINE",
"301 914 LINE",
"225 831 LINE",
"144 914 LINE",
"78 875 LINE",
"226 734 LINE"
);
}
);
width = 532;
}
);
unicode = 013D;
},
{
glyphname = Lcommaaccent;
lastChange = "2018-08-09 15:14:16 +0000";
layers = (
{
layerId = "BADA37E3-C95E-4946-BA48-1F986F6D85A7";
paths = (
{
closed = 1;
nodes = (
"439 0 LINE",
"439 50 LINE",
"134 50 LINE",
"134 700 LINE",
"78 700 LINE",
"78 0 LINE"
);
},
{
closed = 1;
nodes = (
"283.667 -148.667 OFFCURVE",
"305 -111.667 OFFCURVE",
"305 -73 CURVE SMOOTH",
"305 -44.854 OFFCURVE",
"282.101 -34 OFFCURVE",
"263 -34 CURVE SMOOTH",
"240.886 -34 OFFCURVE",
"221.692 -76.666 OFFCURVE",
"254 -100 CURVE",
"264 -103 LINE",
"259 -110 LINE",
"250.333 -123.333 OFFCURVE",
"231 -138.667 OFFCURVE",
"201 -156 CURVE",
"241 -184 LINE"
);
}
);
width = 440;
},
{
layerId = "77B00D75-0619-4FB7-8D17-EB9FCD2DF18B";
paths = (
{
closed = 1;
nodes = (
"439 0 LINE",
"439 20 LINE",
"97 20 LINE",
"97 700 LINE",
"78 700 LINE",
"78 0 LINE"
);
},
{
closed = 1;
nodes = (
"276.667 -150.667 OFFCURVE",
"297 -118 OFFCURVE",
"297 -86 CURVE SMOOTH",
"297 -46.493 OFFCURVE",
"241.368 -92.085 OFFCURVE",
"280 -101 CURVE",
"282 -101 LINE",
"279 -112 LINE SMOOTH",
"275 -126.667 OFFCURVE",
"253.333 -154.333 OFFCURVE",
"220 -173 CURVE",
"236 -184 LINE"
);
}
);
width = 440;
},
{
layerId = "8A94633D-DA21-409C-A8B7-00A83612E8B2";
paths = (
{
closed = 1;
nodes = (
"439 0 LINE",
"439 101 LINE",
"188 101 LINE",
"188 700 LINE",
"78 700 LINE",
"78 0 LINE"
);
},
{
closed = 1;
nodes = (
"298 -173.667 OFFCURVE",
"317 -142.333 OFFCURVE",
"317 -97 CURVE SMOOTH",
"317 -67.667 OFFCURVE",
"301.667 -35.333 OFFCURVE",
"267 -34 CURVE",
"266.333 -34 OFFCURVE",
"265.333 -34 OFFCURVE",
"264 -34 CURVE SMOOTH",
"249.333 -34 OFFCURVE",
"237 -38.667 OFFCURVE",
"227 -48 CURVE SMOOTH",
"216.333 -58.667 OFFCURVE",
"211 -71.667 OFFCURVE",
"211 -87 CURVE SMOOTH",
"211 -109.667 OFFCURVE",
"221 -125.667 OFFCURVE",
"241 -135 CURVE",
"253 -138 LINE",
"246 -145 LINE",
"235.333 -154.333 OFFCURVE",
"209 -174 OFFCURVE",
"181 -190 CURVE",
"250 -219 LINE"
);
}
);
width = 440;
}
);
unicode = 013B;
},
{
glyphname = Lslash;
lastChange = "2018-08-09 15:14:16 +0000";
layers = (
{
layerId = "BADA37E3-C95E-4946-BA48-1F986F6D85A7";
paths = (
{
closed = 1;
nodes = (
"562 0 LINE",
"562 50 LINE",
"257 50 LINE",
"257 378 LINE",
"392 439 LINE",
"369 489 LINE",
"257 438 LINE",
"257 700 LINE",
"201 700 LINE",
"201 413 LINE",
"78 358 LINE",
"100 308 LINE",
"201 353 LINE",
"201 0 LINE"
);
}
);
width = 595;
},
{
layerId = "77B00D75-0619-4FB7-8D17-EB9FCD2DF18B";
paths = (
{
closed = 1;
nodes = (
"562 0 LINE",
"562 20 LINE",
"220 20 LINE",
"220 401 LINE",
"377 472 LINE",
"369 489 LINE",
"220 422 LINE",
"220 700 LINE",
"201 700 LINE",
"201 413 LINE",
"78 358 LINE",
"85 341 LINE",
"201 393 LINE",
"201 0 LINE"
);
}
);
width = 601;
},
{
layerId = "8A94633D-DA21-409C-A8B7-00A83612E8B2";
paths = (
{
closed = 1;
nodes = (
"547 0 LINE",
"547 101 LINE",
"296 101 LINE",
"296 359 LINE",
"406 409 LINE",
"369 490 LINE",
"296 457 LINE",
"296 700 LINE",
"186 700 LINE",
"186 407 LINE",
"78 358 LINE",
"114 277 LINE",
"186 309 LINE",
"186 0 LINE"
);
}
);
width = 586;
}
);
unicode = 0141;
},
{
glyphname = M;
lastChange = "2018-08-09 17:25:08 +0000";
layers = (
{
layerId = "BADA37E3-C95E-4946-BA48-1F986F6D85A7";
paths = (
{
closed = 1;
nodes = (
"134 0 LINE",
"134 535 LINE",
"315 0 LINE",
"376 0 LINE",
"558 535 LINE",
"558 0 LINE",
"614 0 LINE",
"614 700 LINE",
"558 700 LINE",
"345 86 LINE",
"134 700 LINE",
"78 700 LINE",
"78 0 LINE"
);
}
);
width = 694;
},
{
layerId = "77B00D75-0619-4FB7-8D17-EB9FCD2DF18B";
paths = (
{
closed = 1;
nodes = (
"96 0 LINE",
"96 648 LINE",
"336 0 LINE",
"354 0 LINE",
"596 648 LINE",
"596 0 LINE",
"614 0 LINE",
"614 700 LINE",
"596 700 LINE",
"346 30 LINE",
"96 700 LINE",
"78 700 LINE",
"78 0 LINE"
);
}
);
width = 694;
},
{
layerId = "8A94633D-DA21-409C-A8B7-00A83612E8B2";
paths = (
{
closed = 1;
nodes = (
"188 0 LINE",
"188 369 LINE",
"303 0 LINE",
"387 0 LINE",
"504 370 LINE",
"504 0 LINE",
"614 0 LINE",
"614 700 LINE",
"504 700 LINE",
"345 237 LINE",
"188 700 LINE",
"78 700 LINE",
"78 0 LINE"
);
}
);
width = 694;
}
);
leftKerningGroup = H;
rightKerningGroup = H;
unicode = 004D;
},
{
glyphname = N;
lastChange = "2018-08-09 17:25:15 +0000";
layers = (
{
layerId = "BADA37E3-C95E-4946-BA48-1F986F6D85A7";
paths = (
{
closed = 1;
nodes = (
"134 0 LINE",
"134 597 LINE",
"514 0 LINE",
"570 0 LINE",
"570 700 LINE",
"514 700 LINE",
"514 103 LINE",
"134 700 LINE",
"78 700 LINE",
"78 0 LINE"
);
}
);
width = 650;
},
{
layerId = "77B00D75-0619-4FB7-8D17-EB9FCD2DF18B";
paths = (
{
closed = 1;
nodes = (
"96 0 LINE",
"96 670 LINE",
"553 0 LINE",
"570 0 LINE",
"570 700 LINE",
"553 700 LINE",
"553 32 LINE",
"96 700 LINE",
"78 700 LINE",
"78 0 LINE"
);
}
);
width = 650;
},
{
layerId = "8A94633D-DA21-409C-A8B7-00A83612E8B2";
paths = (
{
closed = 1;
nodes = (
"188 0 LINE",
"188 473 LINE",
"459 0 LINE",
"570 0 LINE",
"570 700 LINE",
"459 700 LINE",
"459 230 LINE",
"188 700 LINE",
"78 700 LINE",
"78 0 LINE"
);
}
);
width = 650;
}
);
leftKerningGroup = H;
rightKerningGroup = H;
unicode = 004E;
},
{
glyphname = Nacute;
lastChange = "2018-08-09 15:14:16 +0000";
layers = (
{
layerId = "BADA37E3-C95E-4946-BA48-1F986F6D85A7";
paths = (
{
closed = 1;
nodes = (
"134 0 LINE",
"134 597 LINE",
"514 0 LINE",
"570 0 LINE",
"570 700 LINE",
"514 700 LINE",
"514 103 LINE",
"134 700 LINE",
"78 700 LINE",
"78 0 LINE"
);
},
{
closed = 1;
nodes = (
"322 730 LINE",
"391 822 LINE",
"394.333 826 OFFCURVE",
"396 830.333 OFFCURVE",
"396 835 CURVE SMOOTH",
"396 839.667 OFFCURVE",
"395.333 844 OFFCURVE",
"394 848 CURVE",
"390 863.333 OFFCURVE",
"379 871 OFFCURVE",
"361 871 CURVE SMOOTH",
"347 871 OFFCURVE",
"336.333 863.333 OFFCURVE",
"329 848 CURVE",
"278 730 LINE"
);
}
);
width = 650;
},
{
layerId = "77B00D75-0619-4FB7-8D17-EB9FCD2DF18B";
paths = (
{
closed = 1;
nodes = (
"96 0 LINE",
"96 670 LINE",
"553 0 LINE",
"570 0 LINE",
"570 700 LINE",
"553 700 LINE",
"553 32 LINE",
"96 700 LINE",
"78 700 LINE",
"78 0 LINE"
);
},
{
closed = 1;
nodes = (
"297 730 LINE",
"360 843 LINE",
"368 855.667 OFFCURVE",
"366.667 864.333 OFFCURVE",
"356 869 CURVE",
"353.333 870.333 OFFCURVE",
"350.667 871 OFFCURVE",
"348 871 CURVE SMOOTH",
"341.333 871 OFFCURVE",
"336.333 866.667 OFFCURVE",
"333 858 CURVE",
"278 730 LINE"
);
}
);
width = 650;
},
{
layerId = "8A94633D-DA21-409C-A8B7-00A83612E8B2";
paths = (
{
closed = 1;
nodes = (
"188 0 LINE",
"188 473 LINE",
"459 0 LINE",
"570 0 LINE",
"570 700 LINE",
"459 700 LINE",
"459 230 LINE",
"188 700 LINE",
"78 700 LINE",
"78 0 LINE"
);
},
{
closed = 1;
nodes = (
"351 730 LINE",
"400 793 LINE SMOOTH",
"410.667 807 OFFCURVE",
"416 820 OFFCURVE",
"416 832 CURVE SMOOTH",
"416 834 OFFCURVE",
"415.667 836 OFFCURVE",
"415 838 CURVE",
"412.333 851.333 OFFCURVE",
"404.333 861.333 OFFCURVE",
"391 868 CURVE",
"387 870.667 OFFCURVE",
"382 872 OFFCURVE",
"376 872 CURVE SMOOTH",
"370.667 872 OFFCURVE",
"364.333 870.667 OFFCURVE",
"357 868 CURVE",
"341.667 863.333 OFFCURVE",
"330.667 853.333 OFFCURVE",
"324 838 CURVE SMOOTH",
"278 730 LINE"
);
}
);
width = 650;
}
);
unicode = 0143;
},
{
glyphname = Ncaron;
lastChange = "2018-08-09 15:14:16 +0000";
layers = (
{
layerId = "BADA37E3-C95E-4946-BA48-1F986F6D85A7";
paths = (
{
closed = 1;
nodes = (
"134 0 LINE",
"134 597 LINE",
"514 0 LINE",
"570 0 LINE",
"570 700 LINE",
"514 700 LINE",
"514 103 LINE",
"134 700 LINE",
"78 700 LINE",
"78 0 LINE"
);
},
{
closed = 1;
nodes = (
"474 875 LINE",
"436 914 LINE",
"331 810 LINE",
"222 914 LINE",
"184 875 LINE",
"332 734 LINE"
);
}
);
width = 650;
},
{
layerId = "77B00D75-0619-4FB7-8D17-EB9FCD2DF18B";
paths = (
{
closed = 1;
nodes = (
"96 0 LINE",
"96 670 LINE",
"553 0 LINE",
"570 0 LINE",
"570 700 LINE",
"553 700 LINE",
"553 32 LINE",
"96 700 LINE",
"78 700 LINE",
"78 0 LINE"
);
},
{
closed = 1;
nodes = (
"474 875 LINE",
"459 890 LINE",
"331 764 LINE",
"199 890 LINE",
"184 875 LINE",
"332 734 LINE"
);
}
);
width = 650;
},
{
layerId = "8A94633D-DA21-409C-A8B7-00A83612E8B2";
paths = (
{
closed = 1;
nodes = (
"188 0 LINE",
"188 473 LINE",
"459 0 LINE",
"570 0 LINE",
"570 700 LINE",
"459 700 LINE",
"459 230 LINE",
"188 700 LINE",
"78 700 LINE",
"78 0 LINE"
);
},
{
closed = 1;
nodes = (
"474 875 LINE",
"407 914 LINE",
"331 831 LINE",
"250 914 LINE",
"184 875 LINE",
"332 734 LINE"
);
}
);
width = 650;
}
);
unicode = 0147;
},
{
glyphname = Ncommaaccent;
lastChange = "2018-08-09 15:14:16 +0000";
layers = (
{
layerId = "BADA37E3-C95E-4946-BA48-1F986F6D85A7";
paths = (
{
closed = 1;
nodes = (
"134 0 LINE",
"134 597 LINE",
"514 0 LINE",
"570 0 LINE",
"570 700 LINE",
"514 700 LINE",
"514 103 LINE",
"134 700 LINE",
"78 700 LINE",
"78 0 LINE"
);
},
{
closed = 1;
nodes = (
"356.667 -148.667 OFFCURVE",
"378 -111.667 OFFCURVE",
"378 -73 CURVE SMOOTH",
"378 -44.854 OFFCURVE",
"355.101 -34 OFFCURVE",
"336 -34 CURVE SMOOTH",
"313.886 -34 OFFCURVE",
"294.692 -76.666 OFFCURVE",
"327 -100 CURVE",
"337 -103 LINE",
"332 -110 LINE",
"323.333 -123.333 OFFCURVE",
"304 -138.667 OFFCURVE",
"274 -156 CURVE",
"314 -184 LINE"
);
}
);
width = 650;
},
{
layerId = "77B00D75-0619-4FB7-8D17-EB9FCD2DF18B";
paths = (
{
closed = 1;
nodes = (
"96 0 LINE",
"96 670 LINE",
"553 0 LINE",
"570 0 LINE",
"570 700 LINE",
"553 700 LINE",
"553 32 LINE",
"96 700 LINE",
"78 700 LINE",
"78 0 LINE"
);
},
{
closed = 1;
nodes = (
"349.667 -150.667 OFFCURVE",
"370 -118 OFFCURVE",
"370 -86 CURVE SMOOTH",
"370 -46.493 OFFCURVE",
"314.368 -92.085 OFFCURVE",
"353 -101 CURVE",
"355 -101 LINE",
"352 -112 LINE SMOOTH",
"348 -126.667 OFFCURVE",
"326.333 -154.333 OFFCURVE",
"293 -173 CURVE",
"309 -184 LINE"
);
}
);
width = 650;
},
{
layerId = "8A94633D-DA21-409C-A8B7-00A83612E8B2";
paths = (
{
closed = 1;
nodes = (
"188 0 LINE",
"188 473 LINE",
"459 0 LINE",
"570 0 LINE",
"570 700 LINE",
"459 700 LINE",
"459 230 LINE",
"188 700 LINE",
"78 700 LINE",
"78 0 LINE"
);
},
{
closed = 1;
nodes = (
"362 -168.667 OFFCURVE",
"381 -137.333 OFFCURVE",
"381 -92 CURVE SMOOTH",
"381 -62.667 OFFCURVE",
"365.667 -30.333 OFFCURVE",
"331 -29 CURVE",
"330.333 -29 OFFCURVE",
"329.333 -29 OFFCURVE",
"328 -29 CURVE SMOOTH",
"313.333 -29 OFFCURVE",
"301 -34 OFFCURVE",
"291 -44 CURVE SMOOTH",
"280.333 -54 OFFCURVE",
"275 -66.667 OFFCURVE",
"275 -82 CURVE SMOOTH",
"275 -104.667 OFFCURVE",
"285 -120.667 OFFCURVE",
"305 -130 CURVE",
"317 -133 LINE",
"310 -140 LINE",
"299.333 -149.333 OFFCURVE",
"273 -169 OFFCURVE",
"245 -185 CURVE",
"314 -214 LINE"
);
}
);
width = 650;
}
);
unicode = 0145;
},
{
glyphname = Eng;
lastChange = "2018-08-09 15:14:16 +0000";
layers = (
{
layerId = "BADA37E3-C95E-4946-BA48-1F986F6D85A7";
paths = (
{
closed = 1;
nodes = (
"523.667 -37 OFFCURVE",
"571 19.333 OFFCURVE",
"571 118 CURVE SMOOTH",
"571 700 LINE",
"446 700 LINE",
"446 651 LINE",
"513 649 LINE",
"513 105 LINE",
"498.333 134.333 OFFCURVE",
"372 332.667 OFFCURVE",
"134 700 CURVE",
"78 700 LINE",
"78 0 LINE",
"134 0 LINE",
"134 597 LINE",
"174 534.333 OFFCURVE",
"233.833 440.333 OFFCURVE",
"313.5 315 CURVE SMOOTH",
"393.167 189.667 OFFCURVE",
"453 95.667 OFFCURVE",
"493 33 CURVE",
"479 11 OFFCURVE",
"458.667 0 OFFCURVE",
"432 0 CURVE",
"433.333 -4 OFFCURVE",
"435.5 -10.167 OFFCURVE",
"438.5 -18.5 CURVE SMOOTH",
"441.5 -26.833 OFFCURVE",
"443.667 -33 OFFCURVE",
"445 -37 CURVE"
);
}
);
width = 651;
},
{
layerId = "77B00D75-0619-4FB7-8D17-EB9FCD2DF18B";
paths = (
{
closed = 1;
nodes = (
"540.667 -23.667 OFFCURVE",
"570 22 OFFCURVE",
"570 122 CURVE SMOOTH",
"570 700 LINE",
"468 700 LINE",
"468 681 LINE",
"552 679 LINE",
"552 122 LINE SMOOTH",
"552 89.333 OFFCURVE",
"549 64 OFFCURVE",
"543 46 CURVE",
"493.667 118 OFFCURVE",
"419.333 227 OFFCURVE",
"320 373 CURVE SMOOTH",
"220.667 519 OFFCURVE",
"146 628 OFFCURVE",
"96 700 CURVE",
"78 700 LINE",
"78 0 LINE",
"96 0 LINE",
"96 670 LINE",
"144.667 598.667 OFFCURVE",
"217.5 491.667 OFFCURVE",
"314.5 349 CURVE SMOOTH",
"411.5 206.333 OFFCURVE",
"484.333 99.333 OFFCURVE",
"533 28 CURVE",
"517.667 2 OFFCURVE",
"493.333 -13.667 OFFCURVE",
"460 -19 CURVE",
"466 -37 LINE"
);
}
);
width = 650;
},
{
layerId = "8A94633D-DA21-409C-A8B7-00A83612E8B2";
paths = (
{
closed = 1;
nodes = (
"487.667 -35.667 OFFCURVE",
"570 28.333 OFFCURVE",
"570 163 CURVE SMOOTH",
"570 700 LINE",
"402 700 LINE",
"402 594 LINE",
"459 592 LINE",
"459 230 LINE",
"429 282.667 OFFCURVE",
"383.833 361.167 OFFCURVE",
"323.5 465.5 CURVE SMOOTH",
"263.167 569.833 OFFCURVE",
"218 648 OFFCURVE",
"188 700 CURVE",
"78 700 LINE",
"78 0 LINE",
"188 0 LINE",
"188 473 LINE",
"224.667 407 OFFCURVE",
"301.667 272.333 OFFCURVE",
"419 69 CURVE",
"403.667 61 OFFCURVE",
"383 57 OFFCURVE",
"357 57 CURVE",
"361 46.333 OFFCURVE",
"367 30.667 OFFCURVE",
"375 10 CURVE SMOOTH",
"383 -10.667 OFFCURVE",
"389 -26.333 OFFCURVE",
"393 -37 CURVE"
);
}
);
width = 650;
}
);
unicode = 014A;
},
{
glyphname = Ntilde;
lastChange = "2018-08-09 15:14:16 +0000";
layers = (
{
layerId = "BADA37E3-C95E-4946-BA48-1F986F6D85A7";
paths = (
{
closed = 1;
nodes = (
"134 0 LINE",
"134 597 LINE",
"514 0 LINE",
"570 0 LINE",
"570 700 LINE",
"514 700 LINE",
"514 103 LINE",
"134 700 LINE",
"78 700 LINE",
"78 0 LINE"
);
},
{
closed = 1;
nodes = (
"430 728 OFFCURVE",
"462 745.667 OFFCURVE",
"492 781 CURVE",
"467 820 LINE",
"446.333 796.667 OFFCURVE",
"423 785 OFFCURVE",
"397 785 CURVE SMOOTH",
"342.578 785 OFFCURVE",
"302.11 826 OFFCURVE",
"258 826 CURVE SMOOTH",
"222.667 826 OFFCURVE",
"189.333 808.333 OFFCURVE",
"158 773 CURVE",
"183 734 LINE",
"205.667 758 OFFCURVE",
"230.667 770 OFFCURVE",
"258 770 CURVE SMOOTH",
"311.488 770 OFFCURVE",
"352.716 728 OFFCURVE",
"396 728 CURVE SMOOTH"
);
}
);
width = 650;
},
{
layerId = "77B00D75-0619-4FB7-8D17-EB9FCD2DF18B";
paths = (
{
closed = 1;
nodes = (
"96 0 LINE",
"96 670 LINE",
"553 0 LINE",
"570 0 LINE",
"570 700 LINE",
"553 700 LINE",
"553 32 LINE",
"96 700 LINE",
"78 700 LINE",
"78 0 LINE"
);
},
{
closed = 1;
nodes = (
"194.333 789.333 OFFCURVE",
"222.333 804 OFFCURVE",
"253 804 CURVE SMOOTH",
"301.769 804 OFFCURVE",
"340.054 761 OFFCURVE",
"397 761 CURVE SMOOTH",
"426.333 761 OFFCURVE",
"453.667 772.667 OFFCURVE",
"479 796 CURVE",
"469 813 LINE",
"448.333 791.667 OFFCURVE",
"427.333 781 OFFCURVE",
"406 781 CURVE SMOOTH",
"384.667 781 OFFCURVE",
"365.667 785 OFFCURVE",
"349 793 CURVE SMOOTH",
"305.667 814.333 OFFCURVE",
"275 825 OFFCURVE",
"257 825 CURVE SMOOTH",
"222.333 825 OFFCURVE",
"189.333 808.667 OFFCURVE",
"158 776 CURVE",
"169 760 LINE"
);
}
);
width = 650;
},
{
layerId = "8A94633D-DA21-409C-A8B7-00A83612E8B2";
paths = (
{
closed = 1;
nodes = (
"188 0 LINE",
"188 473 LINE",
"459 0 LINE",
"570 0 LINE",
"570 700 LINE",
"459 700 LINE",
"459 230 LINE",
"188 700 LINE",
"78 700 LINE",
"78 0 LINE"
);
},
{
closed = 1;
nodes = (
"421.667 727 OFFCURVE",
"431 728.333 OFFCURVE",
"441 731 CURVE SMOOTH",
"463.667 737 OFFCURVE",
"486.333 753.333 OFFCURVE",
"509 780 CURVE",
"467 845 LINE",
"448.333 824.333 OFFCURVE",
"428.667 813 OFFCURVE",
"408 811 CURVE",
"404.667 810.333 OFFCURVE",
"401 810 OFFCURVE",
"397 810 CURVE SMOOTH",
"380.333 810 OFFCURVE",
"364.667 813.333 OFFCURVE",
"350 820 CURVE SMOOTH",
"330.667 828.667 OFFCURVE",
"311.333 836.667 OFFCURVE",
"292 844 CURVE",
"281.333 848.667 OFFCURVE",
"270 851 OFFCURVE",
"258 851 CURVE SMOOTH",
"248.667 851 OFFCURVE",
"238.667 849.333 OFFCURVE",
"228 846 CURVE",
"204.667 840 OFFCURVE",
"181.333 824 OFFCURVE",
"158 798 CURVE",
"197 733 LINE",
"217 754.333 OFFCURVE",
"238 766 OFFCURVE",
"260 768 CURVE",
"264 768.667 OFFCURVE",
"268.333 769 OFFCURVE",
"273 769 CURVE SMOOTH",
"289.667 769 OFFCURVE",
"305.333 765.667 OFFCURVE",
"320 759 CURVE SMOOTH",
"339.333 750.333 OFFCURVE",
"358.667 742 OFFCURVE",
"378 734 CURVE SMOOTH",
"389.333 729.333 OFFCURVE",
"401 727 OFFCURVE",
"413 727 CURVE SMOOTH"
);
}
);
width = 650;
}
);
unicode = 00D1;
},
{
glyphname = O;
lastChange = "2018-08-09 17:25:19 +0000";
layers = (
{
layerId = "BADA37E3-C95E-4946-BA48-1F986F6D85A7";
paths = (
{
closed = 1;
nodes = (
"388.667 -11 OFFCURVE",
"483 50.333 OFFCURVE",
"483 185 CURVE SMOOTH",
"483 506 LINE SMOOTH",
"483 636.667 OFFCURVE",
"407 716 OFFCURVE",
"275 716 CURVE SMOOTH",
"143 716 OFFCURVE",
"63 644.333 OFFCURVE",
"63 507 CURVE SMOOTH",
"63 185 LINE SMOOTH",
"63 50.333 OFFCURVE",
"159.333 -11 OFFCURVE",
"274 -11 CURVE SMOOTH"
);
},
{
closed = 1;
nodes = (
"197 40 OFFCURVE",
"119 89 OFFCURVE",
"119 186 CURVE SMOOTH",
"119 516 LINE SMOOTH",
"119 613.333 OFFCURVE",
"179.667 663 OFFCURVE",
"273 663 CURVE SMOOTH",
"366.333 663 OFFCURVE",
"428 613.333 OFFCURVE",
"428 516 CURVE SMOOTH",
"428 187 LINE SMOOTH",
"428 88 OFFCURVE",
"352 40 OFFCURVE",
"275 40 CURVE SMOOTH"
);
}
);
width = 549;
},
{
layerId = "77B00D75-0619-4FB7-8D17-EB9FCD2DF18B";
paths = (
{
closed = 1;
nodes = (
"388.667 -11 OFFCURVE",
"483 50.333 OFFCURVE",
"483 185 CURVE SMOOTH",
"483 506 LINE SMOOTH",
"483 636.667 OFFCURVE",
"407 716 OFFCURVE",
"275 716 CURVE SMOOTH",
"143 716 OFFCURVE",
"63 644.333 OFFCURVE",
"63 507 CURVE SMOOTH",
"63 185 LINE SMOOTH",
"63 50.333 OFFCURVE",
"159.333 -11 OFFCURVE",
"274 -11 CURVE SMOOTH"
);
},
{
closed = 1;
nodes = (
"167.333 8 OFFCURVE",
"82 68 OFFCURVE",
"82 184 CURVE SMOOTH",
"82 508 LINE SMOOTH",
"82 622.667 OFFCURVE",
"146.333 695 OFFCURVE",
"273 695 CURVE SMOOTH",
"399.667 695 OFFCURVE",
"464 624.667 OFFCURVE",
"464 510 CURVE SMOOTH",
"464 184 LINE SMOOTH",
"464 61.333 OFFCURVE",
"380.667 8 OFFCURVE",
"274 8 CURVE SMOOTH"
);
}
);
width = 549;
},
{
layerId = "8A94633D-DA21-409C-A8B7-00A83612E8B2";
paths = (
{
closed = 1;
nodes = (
"388.667 -11 OFFCURVE",
"483 50.333 OFFCURVE",
"483 185 CURVE SMOOTH",
"483 506 LINE SMOOTH",
"483 636.667 OFFCURVE",
"407 716 OFFCURVE",
"275 716 CURVE SMOOTH",
"143 716 OFFCURVE",
"63 644.333 OFFCURVE",
"63 507 CURVE SMOOTH",
"63 185 LINE SMOOTH",
"63 50.333 OFFCURVE",
"159.333 -11 OFFCURVE",
"274 -11 CURVE SMOOTH"
);
},
{
closed = 1;
nodes = (
"205 101 OFFCURVE",
"173 140 OFFCURVE",
"173 204 CURVE SMOOTH",
"173 471 LINE SMOOTH",
"173 557.667 OFFCURVE",
"191.667 597 OFFCURVE",
"273 597 CURVE SMOOTH",
"354.333 597 OFFCURVE",
"373 555.333 OFFCURVE",
"373 470 CURVE SMOOTH",
"373 206 LINE SMOOTH",
"373 143.333 OFFCURVE",
"335.667 101 OFFCURVE",
"273 101 CURVE SMOOTH"
);
}
);
width = 549;
}
);
leftKerningGroup = O;
rightKerningGroup = O;
unicode = 004F;
},
{
glyphname = Oacute;
lastChange = "2018-08-09 15:14:23 +0000";
layers = (
{
layerId = "BADA37E3-C95E-4946-BA48-1F986F6D85A7";
paths = (
{
closed = 1;
nodes = (
"388.667 -11 OFFCURVE",
"483 50.333 OFFCURVE",
"483 185 CURVE SMOOTH",
"483 506 LINE SMOOTH",
"483 636.667 OFFCURVE",
"407 716 OFFCURVE",
"275 716 CURVE SMOOTH",
"143 716 OFFCURVE",
"63 644.333 OFFCURVE",
"63 507 CURVE SMOOTH",
"63 185 LINE SMOOTH",
"63 50.333 OFFCURVE",
"159.333 -11 OFFCURVE",
"274 -11 CURVE SMOOTH"
);
},
{
closed = 1;
nodes = (
"119 516 LINE SMOOTH",
"119 613.333 OFFCURVE",
"179.667 663 OFFCURVE",
"273 663 CURVE SMOOTH",
"366.333 663 OFFCURVE",
"428 613.333 OFFCURVE",
"428 516 CURVE SMOOTH",
"428 187 LINE SMOOTH",
"428 -11.522 OFFCURVE",
"119 -6.571 OFFCURVE",
"119 186 CURVE SMOOTH"
);
},
{
closed = 1;
nodes = (
"301 730 LINE",
"370 822 LINE",
"373.333 826 OFFCURVE",
"375 830.333 OFFCURVE",
"375 835 CURVE SMOOTH",
"375 839.667 OFFCURVE",
"374.667 844 OFFCURVE",
"374 848 CURVE",
"369.333 863.333 OFFCURVE",
"358 871 OFFCURVE",
"340 871 CURVE SMOOTH",
"326 871 OFFCURVE",
"315.333 863.333 OFFCURVE",
"308 848 CURVE",
"257 730 LINE"
);
}
);
width = 549;
},
{
layerId = "77B00D75-0619-4FB7-8D17-EB9FCD2DF18B";
paths = (
{
closed = 1;
nodes = (
"388.667 -11 OFFCURVE",
"483 50.333 OFFCURVE",
"483 185 CURVE SMOOTH",
"483 506 LINE SMOOTH",
"483 636.667 OFFCURVE",
"407 716 OFFCURVE",
"275 716 CURVE SMOOTH",
"143 716 OFFCURVE",
"63 644.333 OFFCURVE",
"63 507 CURVE SMOOTH",
"63 185 LINE SMOOTH",
"63 50.333 OFFCURVE",
"159.333 -11 OFFCURVE",
"274 -11 CURVE SMOOTH"
);
},
{
closed = 1;
nodes = (
"167.333 8 OFFCURVE",
"82 68 OFFCURVE",
"82 184 CURVE SMOOTH",
"82 508 LINE SMOOTH",
"82 622.667 OFFCURVE",
"146.333 695 OFFCURVE",
"273 695 CURVE SMOOTH",
"399.667 695 OFFCURVE",
"464 624.667 OFFCURVE",
"464 510 CURVE SMOOTH",
"464 184 LINE SMOOTH",
"464 61.333 OFFCURVE",
"380.667 8 OFFCURVE",
"274 8 CURVE SMOOTH"
);
},
{
closed = 1;
nodes = (
"276 730 LINE",
"339 843 LINE",
"347 855.667 OFFCURVE",
"345.667 864.333 OFFCURVE",
"335 869 CURVE",
"332.333 870.333 OFFCURVE",
"329.667 871 OFFCURVE",
"327 871 CURVE SMOOTH",
"320.333 871 OFFCURVE",
"315.333 866.667 OFFCURVE",
"312 858 CURVE",
"257 730 LINE"
);
}
);
width = 549;
},
{
layerId = "8A94633D-DA21-409C-A8B7-00A83612E8B2";
paths = (
{
closed = 1;
nodes = (
"388.667 -11 OFFCURVE",
"483 50.333 OFFCURVE",
"483 185 CURVE SMOOTH",
"483 506 LINE SMOOTH",
"483 636.667 OFFCURVE",
"407 716 OFFCURVE",
"275 716 CURVE SMOOTH",
"143 716 OFFCURVE",
"63 644.333 OFFCURVE",
"63 507 CURVE SMOOTH",
"63 185 LINE SMOOTH",
"63 50.333 OFFCURVE",
"159.333 -11 OFFCURVE",
"274 -11 CURVE SMOOTH"
);
},
{
closed = 1;
nodes = (
"205 101 OFFCURVE",
"173 140 OFFCURVE",
"173 204 CURVE SMOOTH",
"173 471 LINE SMOOTH",
"173 557.667 OFFCURVE",
"191.667 597 OFFCURVE",
"273 597 CURVE SMOOTH",
"354.333 597 OFFCURVE",
"373 555.333 OFFCURVE",
"373 470 CURVE SMOOTH",
"373 206 LINE SMOOTH",
"373 143.333 OFFCURVE",
"335.667 101 OFFCURVE",
"273 101 CURVE SMOOTH"
);
},
{
closed = 1;
nodes = (
"330 730 LINE",
"379 793 LINE SMOOTH",
"389.667 807 OFFCURVE",
"395 820 OFFCURVE",
"395 832 CURVE SMOOTH",
"395 834 OFFCURVE",
"394.667 836 OFFCURVE",
"394 838 CURVE",
"391.333 851.333 OFFCURVE",
"383.333 861.333 OFFCURVE",
"370 868 CURVE",
"366 870.667 OFFCURVE",
"361 872 OFFCURVE",
"355 872 CURVE SMOOTH",
"349.667 872 OFFCURVE",
"343.333 870.667 OFFCURVE",
"336 868 CURVE",
"320.667 863.333 OFFCURVE",
"309.667 853.333 OFFCURVE",
"303 838 CURVE SMOOTH",
"257 730 LINE"
);
}
);
width = 549;
}
);
unicode = 00D3;
},
{
glyphname = Ocircumflex;
lastChange = "2018-08-09 15:14:23 +0000";
layers = (
{
layerId = "BADA37E3-C95E-4946-BA48-1F986F6D85A7";
paths = (
{
closed = 1;
nodes = (
"388.667 -11 OFFCURVE",
"483 50.333 OFFCURVE",
"483 185 CURVE SMOOTH",
"483 506 LINE SMOOTH",
"483 636.667 OFFCURVE",
"407 716 OFFCURVE",
"275 716 CURVE SMOOTH",
"143 716 OFFCURVE",
"63 644.333 OFFCURVE",
"63 507 CURVE SMOOTH",
"63 185 LINE SMOOTH",
"63 50.333 OFFCURVE",
"159.333 -11 OFFCURVE",
"274 -11 CURVE SMOOTH"
);
},
{
closed = 1;
nodes = (
"119 516 LINE SMOOTH",
"119 613.333 OFFCURVE",
"179.667 663 OFFCURVE",
"273 663 CURVE SMOOTH",
"366.333 663 OFFCURVE",
"428 613.333 OFFCURVE",
"428 516 CURVE SMOOTH",
"428 187 LINE SMOOTH",
"428 -11.522 OFFCURVE",
"119 -6.571 OFFCURVE",
"119 186 CURVE SMOOTH"
);
},
{
closed = 1;
nodes = (
"279 837 LINE",
"384 733 LINE",
"422 772 LINE",
"280 913 LINE",
"132 772 LINE",
"170 733 LINE"
);
}
);
width = 549;
},
{
layerId = "77B00D75-0619-4FB7-8D17-EB9FCD2DF18B";
paths = (
{
closed = 1;
nodes = (
"388.667 -11 OFFCURVE",
"483 50.333 OFFCURVE",
"483 185 CURVE SMOOTH",
"483 506 LINE SMOOTH",
"483 636.667 OFFCURVE",
"407 716 OFFCURVE",
"275 716 CURVE SMOOTH",
"143 716 OFFCURVE",
"63 644.333 OFFCURVE",
"63 507 CURVE SMOOTH",
"63 185 LINE SMOOTH",
"63 50.333 OFFCURVE",
"159.333 -11 OFFCURVE",
"274 -11 CURVE SMOOTH"
);
},
{
closed = 1;
nodes = (
"167.333 8 OFFCURVE",
"82 68 OFFCURVE",
"82 184 CURVE SMOOTH",
"82 508 LINE SMOOTH",
"82 622.667 OFFCURVE",
"146.333 695 OFFCURVE",
"273 695 CURVE SMOOTH",
"399.667 695 OFFCURVE",
"464 624.667 OFFCURVE",
"464 510 CURVE SMOOTH",
"464 184 LINE SMOOTH",
"464 61.333 OFFCURVE",
"380.667 8 OFFCURVE",
"274 8 CURVE SMOOTH"
);
},
{
closed = 1;
nodes = (
"273 883 LINE",
"399 756 LINE",
"416 772 LINE",
"274 913 LINE",
"126 772 LINE",
"142 756 LINE"
);
}
);
width = 549;
},
{
layerId = "8A94633D-DA21-409C-A8B7-00A83612E8B2";
paths = (
{
closed = 1;
nodes = (
"388.667 -11 OFFCURVE",
"483 50.333 OFFCURVE",
"483 185 CURVE SMOOTH",
"483 506 LINE SMOOTH",
"483 636.667 OFFCURVE",
"407 716 OFFCURVE",
"275 716 CURVE SMOOTH",
"143 716 OFFCURVE",
"63 644.333 OFFCURVE",
"63 507 CURVE SMOOTH",
"63 185 LINE SMOOTH",
"63 50.333 OFFCURVE",
"159.333 -11 OFFCURVE",
"274 -11 CURVE SMOOTH"
);
},
{
closed = 1;
nodes = (
"205 101 OFFCURVE",
"173 140 OFFCURVE",
"173 204 CURVE SMOOTH",
"173 471 LINE SMOOTH",
"173 557.667 OFFCURVE",
"191.667 597 OFFCURVE",
"273 597 CURVE SMOOTH",
"354.333 597 OFFCURVE",
"373 555.333 OFFCURVE",
"373 470 CURVE SMOOTH",
"373 206 LINE SMOOTH",
"373 143.333 OFFCURVE",
"335.667 101 OFFCURVE",
"273 101 CURVE SMOOTH"
);
},
{
closed = 1;
nodes = (
"277 814 LINE",
"353 731 LINE",
"420 770 LINE",
"278 911 LINE",
"130 770 LINE",
"196 731 LINE"
);
}
);
width = 549;
}
);
unicode = 00D4;
},
{
glyphname = Odieresis;
lastChange = "2018-08-09 15:14:23 +0000";
layers = (
{
layerId = "BADA37E3-C95E-4946-BA48-1F986F6D85A7";
paths = (
{
closed = 1;
nodes = (
"388.667 -11 OFFCURVE",
"483 50.333 OFFCURVE",
"483 185 CURVE SMOOTH",
"483 506 LINE SMOOTH",
"483 636.667 OFFCURVE",
"407 716 OFFCURVE",
"275 716 CURVE SMOOTH",
"143 716 OFFCURVE",
"63 644.333 OFFCURVE",
"63 507 CURVE SMOOTH",
"63 185 LINE SMOOTH",
"63 50.333 OFFCURVE",
"159.333 -11 OFFCURVE",
"274 -11 CURVE SMOOTH"
);
},
{
closed = 1;
nodes = (
"119 516 LINE SMOOTH",
"119 613.333 OFFCURVE",
"179.667 663 OFFCURVE",
"273 663 CURVE SMOOTH",
"366.333 663 OFFCURVE",
"428 613.333 OFFCURVE",
"428 516 CURVE SMOOTH",
"428 187 LINE SMOOTH",
"428 -11.522 OFFCURVE",
"119 -6.571 OFFCURVE",
"119 186 CURVE SMOOTH"
);
},
{
closed = 1;
nodes = (
"246.68 770.68 OFFCURVE",
"201.783 817.694 OFFCURVE",
"170 787.5 CURVE SMOOTH",
"139.57 758.591 OFFCURVE",
"183.043 710.339 OFFCURVE",
"216 740 CURVE"
);
},
{
closed = 1;
nodes = (
"402.68 770.68 OFFCURVE",
"357.783 817.694 OFFCURVE",
"326 787.5 CURVE SMOOTH",
"295.57 758.591 OFFCURVE",
"339.043 710.339 OFFCURVE",
"372 740 CURVE"
);
}
);
width = 549;
},
{
layerId = "77B00D75-0619-4FB7-8D17-EB9FCD2DF18B";
paths = (
{
closed = 1;
nodes = (
"388.667 -11 OFFCURVE",
"483 50.333 OFFCURVE",
"483 185 CURVE SMOOTH",
"483 506 LINE SMOOTH",
"483 636.667 OFFCURVE",
"407 716 OFFCURVE",
"275 716 CURVE SMOOTH",
"143 716 OFFCURVE",
"63 644.333 OFFCURVE",
"63 507 CURVE SMOOTH",
"63 185 LINE SMOOTH",
"63 50.333 OFFCURVE",
"159.333 -11 OFFCURVE",
"274 -11 CURVE SMOOTH"
);
},
{
closed = 1;
nodes = (
"167.333 8 OFFCURVE",
"82 68 OFFCURVE",
"82 184 CURVE SMOOTH",
"82 508 LINE SMOOTH",
"82 622.667 OFFCURVE",
"146.333 695 OFFCURVE",
"273 695 CURVE SMOOTH",
"399.667 695 OFFCURVE",
"464 624.667 OFFCURVE",
"464 510 CURVE SMOOTH",
"464 184 LINE SMOOTH",
"464 61.333 OFFCURVE",
"380.667 8 OFFCURVE",
"274 8 CURVE SMOOTH"
);
},
{
closed = 1;
nodes = (
"214.624 816.624 OFFCURVE",
"193.287 837.287 OFFCURVE",
"179.5 823.5 CURVE SMOOTH",
"165.717 809.717 OFFCURVE",
"186.951 788.951 OFFCURVE",
"200 802 CURVE SMOOTH"
);
},
{
closed = 1;
nodes = (
"373.624 817.624 OFFCURVE",
"352.287 838.287 OFFCURVE",
"338.5 824.5 CURVE SMOOTH",
"324.717 810.717 OFFCURVE",
"345.951 789.951 OFFCURVE",
"359 803 CURVE SMOOTH"
);
}
);
width = 549;
},
{
layerId = "8A94633D-DA21-409C-A8B7-00A83612E8B2";
paths = (
{
closed = 1;
nodes = (
"388.667 -11 OFFCURVE",
"483 50.333 OFFCURVE",
"483 185 CURVE SMOOTH",
"483 506 LINE SMOOTH",
"483 636.667 OFFCURVE",
"407 716 OFFCURVE",
"275 716 CURVE SMOOTH",
"143 716 OFFCURVE",
"63 644.333 OFFCURVE",
"63 507 CURVE SMOOTH",
"63 185 LINE SMOOTH",
"63 50.333 OFFCURVE",
"159.333 -11 OFFCURVE",
"274 -11 CURVE SMOOTH"
);
},
{
closed = 1;
nodes = (
"205 101 OFFCURVE",
"173 140 OFFCURVE",
"173 204 CURVE SMOOTH",
"173 471 LINE SMOOTH",
"173 557.667 OFFCURVE",
"191.667 597 OFFCURVE",
"273 597 CURVE SMOOTH",
"354.333 597 OFFCURVE",
"373 555.333 OFFCURVE",
"373 470 CURVE SMOOTH",
"373 206 LINE SMOOTH",
"373 143.333 OFFCURVE",
"335.667 101 OFFCURVE",
"273 101 CURVE SMOOTH"
);
},
{
closed = 1;
nodes = (
"229.333 731 OFFCURVE",
"249 751 OFFCURVE",
"249 775 CURVE SMOOTH",
"249 800.333 OFFCURVE",
"229.333 820 OFFCURVE",
"204 820 CURVE SMOOTH",
"180 820 OFFCURVE",
"160 800.333 OFFCURVE",
"160 775 CURVE SMOOTH",
"160 751 OFFCURVE",
"180 731 OFFCURVE",
"204 731 CURVE SMOOTH"
);
},
{
closed = 1;
nodes = (
"411.002 786.002 OFFCURVE",
"347.002 850.002 OFFCURVE",
"305 808 CURVE SMOOTH",
"262.998 765.998 OFFCURVE",
"326.998 701.998 OFFCURVE",
"369 744 CURVE SMOOTH"
);
}
);
width = 549;
}
);
unicode = 00D6;
},
{
glyphname = Ograve;
lastChange = "2018-08-09 15:14:23 +0000";
layers = (
{
layerId = "BADA37E3-C95E-4946-BA48-1F986F6D85A7";
paths = (
{
closed = 1;
nodes = (
"388.667 -11 OFFCURVE",
"483 50.333 OFFCURVE",
"483 185 CURVE SMOOTH",
"483 506 LINE SMOOTH",
"483 636.667 OFFCURVE",
"407 716 OFFCURVE",
"275 716 CURVE SMOOTH",
"143 716 OFFCURVE",
"63 644.333 OFFCURVE",
"63 507 CURVE SMOOTH",
"63 185 LINE SMOOTH",
"63 50.333 OFFCURVE",
"159.333 -11 OFFCURVE",
"274 -11 CURVE SMOOTH"
);
},
{
closed = 1;
nodes = (
"119 516 LINE SMOOTH",
"119 613.333 OFFCURVE",
"179.667 663 OFFCURVE",
"273 663 CURVE SMOOTH",
"366.333 663 OFFCURVE",
"428 613.333 OFFCURVE",
"428 516 CURVE SMOOTH",
"428 187 LINE SMOOTH",
"428 -11.522 OFFCURVE",
"119 -6.571 OFFCURVE",
"119 186 CURVE SMOOTH"
);
},
{
closed = 1;
nodes = (
"290 732 LINE",
"239 850 LINE",
"231.667 865.333 OFFCURVE",
"221 873 OFFCURVE",
"207 873 CURVE SMOOTH",
"203 873 OFFCURVE",
"198.667 872.333 OFFCURVE",
"194 871 CURVE SMOOTH",
"179.333 866.333 OFFCURVE",
"172 855 OFFCURVE",
"172 837 CURVE SMOOTH",
"172 832.333 OFFCURVE",
"173.667 828 OFFCURVE",
"177 824 CURVE",
"246 732 LINE"
);
}
);
width = 549;
},
{
layerId = "77B00D75-0619-4FB7-8D17-EB9FCD2DF18B";
paths = (
{
closed = 1;
nodes = (
"388.667 -11 OFFCURVE",
"483 50.333 OFFCURVE",
"483 185 CURVE SMOOTH",
"483 506 LINE SMOOTH",
"483 636.667 OFFCURVE",
"407 716 OFFCURVE",
"275 716 CURVE SMOOTH",
"143 716 OFFCURVE",
"63 644.333 OFFCURVE",
"63 507 CURVE SMOOTH",
"63 185 LINE SMOOTH",
"63 50.333 OFFCURVE",
"159.333 -11 OFFCURVE",
"274 -11 CURVE SMOOTH"
);
},
{
closed = 1;
nodes = (
"167.333 8 OFFCURVE",
"82 68 OFFCURVE",
"82 184 CURVE SMOOTH",
"82 508 LINE SMOOTH",
"82 622.667 OFFCURVE",
"146.333 695 OFFCURVE",
"273 695 CURVE SMOOTH",
"399.667 695 OFFCURVE",
"464 624.667 OFFCURVE",
"464 510 CURVE SMOOTH",
"464 184 LINE SMOOTH",
"464 61.333 OFFCURVE",
"380.667 8 OFFCURVE",
"274 8 CURVE SMOOTH"
);
},
{
closed = 1;
nodes = (
"292 730 LINE",
"237 858 LINE",
"233.667 866.667 OFFCURVE",
"228.667 871 OFFCURVE",
"222 871 CURVE SMOOTH",
"219.333 871 OFFCURVE",
"216.667 870.333 OFFCURVE",
"214 869 CURVE",
"203.333 864.333 OFFCURVE",
"202 855.667 OFFCURVE",
"210 843 CURVE",
"273 730 LINE"
);
}
);
width = 549;
},
{
layerId = "8A94633D-DA21-409C-A8B7-00A83612E8B2";
paths = (
{
closed = 1;
nodes = (
"388.667 -11 OFFCURVE",
"483 50.333 OFFCURVE",
"483 185 CURVE SMOOTH",
"483 506 LINE SMOOTH",
"483 636.667 OFFCURVE",
"407 716 OFFCURVE",
"275 716 CURVE SMOOTH",
"143 716 OFFCURVE",
"63 644.333 OFFCURVE",
"63 507 CURVE SMOOTH",
"63 185 LINE SMOOTH",
"63 50.333 OFFCURVE",
"159.333 -11 OFFCURVE",
"274 -11 CURVE SMOOTH"
);
},
{
closed = 1;
nodes = (
"205 101 OFFCURVE",
"173 140 OFFCURVE",
"173 204 CURVE SMOOTH",
"173 471 LINE SMOOTH",
"173 557.667 OFFCURVE",
"191.667 597 OFFCURVE",
"273 597 CURVE SMOOTH",
"354.333 597 OFFCURVE",
"373 555.333 OFFCURVE",
"373 470 CURVE SMOOTH",
"373 206 LINE SMOOTH",
"373 143.333 OFFCURVE",
"335.667 101 OFFCURVE",
"273 101 CURVE SMOOTH"
);
},
{
closed = 1;
nodes = (
"302 732 LINE",
"256 840 LINE SMOOTH",
"249.333 855.333 OFFCURVE",
"238.333 865.333 OFFCURVE",
"223 870 CURVE",
"215.667 872.667 OFFCURVE",
"209.333 874 OFFCURVE",
"204 874 CURVE SMOOTH",
"198 874 OFFCURVE",
"193 872.667 OFFCURVE",
"189 870 CURVE",
"175.667 863.333 OFFCURVE",
"167.667 853.333 OFFCURVE",
"165 840 CURVE",
"164.333 838 OFFCURVE",
"164 836 OFFCURVE",
"164 834 CURVE SMOOTH",
"164 822 OFFCURVE",
"169.333 809 OFFCURVE",
"180 795 CURVE SMOOTH",
"229 732 LINE"
);
}
);
width = 549;
}
);
unicode = 00D2;
},
{
glyphname = Ohungarumlaut;
lastChange = "2018-08-09 15:14:23 +0000";
layers = (
{
layerId = "BADA37E3-C95E-4946-BA48-1F986F6D85A7";
paths = (
{
closed = 1;
nodes = (
"388.667 -11 OFFCURVE",
"483 50.333 OFFCURVE",
"483 185 CURVE SMOOTH",
"483 506 LINE SMOOTH",
"483 636.667 OFFCURVE",
"407 716 OFFCURVE",
"275 716 CURVE SMOOTH",
"143 716 OFFCURVE",
"63 644.333 OFFCURVE",
"63 507 CURVE SMOOTH",
"63 185 LINE SMOOTH",
"63 50.333 OFFCURVE",
"159.333 -11 OFFCURVE",
"274 -11 CURVE SMOOTH"
);
},
{
closed = 1;
nodes = (
"119 516 LINE SMOOTH",
"119 613.333 OFFCURVE",
"179.667 663 OFFCURVE",
"273 663 CURVE SMOOTH",
"366.333 663 OFFCURVE",
"428 613.333 OFFCURVE",
"428 516 CURVE SMOOTH",
"428 187 LINE SMOOTH",
"428 -11.522 OFFCURVE",
"119 -6.571 OFFCURVE",
"119 186 CURVE SMOOTH"
);
},
{
closed = 1;
nodes = (
"233 731 LINE",
"302 823 LINE",
"305.333 827 OFFCURVE",
"307 831.333 OFFCURVE",
"307 836 CURVE SMOOTH",
"307 840.667 OFFCURVE",
"306.667 845 OFFCURVE",
"306 849 CURVE",
"301.333 864.333 OFFCURVE",
"290 872 OFFCURVE",
"272 872 CURVE SMOOTH",
"258 872 OFFCURVE",
"247.333 864.333 OFFCURVE",
"240 849 CURVE",
"189 731 LINE"
);
},
{
closed = 1;
nodes = (
"345 731 LINE",
"414 823 LINE",
"417.333 827 OFFCURVE",
"419 831.333 OFFCURVE",
"419 836 CURVE SMOOTH",
"419 840.667 OFFCURVE",
"418.667 845 OFFCURVE",
"418 849 CURVE",
"413.333 864.333 OFFCURVE",
"402 872 OFFCURVE",
"384 872 CURVE SMOOTH",
"370 872 OFFCURVE",
"359.333 864.333 OFFCURVE",
"352 849 CURVE",
"301 731 LINE"
);
}
);
width = 549;
},
{
layerId = "77B00D75-0619-4FB7-8D17-EB9FCD2DF18B";
paths = (
{
closed = 1;
nodes = (
"388.667 -11 OFFCURVE",
"483 50.333 OFFCURVE",
"483 185 CURVE SMOOTH",
"483 506 LINE SMOOTH",
"483 636.667 OFFCURVE",
"407 716 OFFCURVE",
"275 716 CURVE SMOOTH",
"143 716 OFFCURVE",
"63 644.333 OFFCURVE",
"63 507 CURVE SMOOTH",
"63 185 LINE SMOOTH",
"63 50.333 OFFCURVE",
"159.333 -11 OFFCURVE",
"274 -11 CURVE SMOOTH"
);
},
{
closed = 1;
nodes = (
"167.333 8 OFFCURVE",
"82 68 OFFCURVE",
"82 184 CURVE SMOOTH",
"82 508 LINE SMOOTH",
"82 622.667 OFFCURVE",
"146.333 695 OFFCURVE",
"273 695 CURVE SMOOTH",
"399.667 695 OFFCURVE",
"464 624.667 OFFCURVE",
"464 510 CURVE SMOOTH",
"464 184 LINE SMOOTH",
"464 61.333 OFFCURVE",
"380.667 8 OFFCURVE",
"274 8 CURVE SMOOTH"
);
},
{
closed = 1;
nodes = (
"208 731 LINE",
"271 844 LINE",
"279 856.667 OFFCURVE",
"277.667 865.333 OFFCURVE",
"267 870 CURVE",
"264.333 871.333 OFFCURVE",
"261.667 872 OFFCURVE",
"259 872 CURVE SMOOTH",
"252.333 872 OFFCURVE",
"247.333 867.667 OFFCURVE",
"244 859 CURVE",
"189 731 LINE"
);
},
{
closed = 1;
nodes = (
"320 731 LINE",
"383 844 LINE",
"391 856.667 OFFCURVE",
"389.667 865.333 OFFCURVE",
"379 870 CURVE",
"376.333 871.333 OFFCURVE",
"373.667 872 OFFCURVE",
"371 872 CURVE SMOOTH",
"364.333 872 OFFCURVE",
"359.333 867.667 OFFCURVE",
"356 859 CURVE",
"301 731 LINE"
);
}
);
width = 549;
},
{
layerId = "8A94633D-DA21-409C-A8B7-00A83612E8B2";
paths = (
{
closed = 1;
nodes = (
"388.667 -11 OFFCURVE",
"483 50.333 OFFCURVE",
"483 185 CURVE SMOOTH",
"483 506 LINE SMOOTH",
"483 636.667 OFFCURVE",
"407 716 OFFCURVE",
"275 716 CURVE SMOOTH",
"143 716 OFFCURVE",
"63 644.333 OFFCURVE",
"63 507 CURVE SMOOTH",
"63 185 LINE SMOOTH",
"63 50.333 OFFCURVE",
"159.333 -11 OFFCURVE",
"274 -11 CURVE SMOOTH"
);
},
{
closed = 1;
nodes = (
"205 101 OFFCURVE",
"173 140 OFFCURVE",
"173 204 CURVE SMOOTH",
"173 471 LINE SMOOTH",
"173 557.667 OFFCURVE",
"191.667 597 OFFCURVE",
"273 597 CURVE SMOOTH",
"354.333 597 OFFCURVE",
"373 555.333 OFFCURVE",
"373 470 CURVE SMOOTH",
"373 206 LINE SMOOTH",
"373 143.333 OFFCURVE",
"335.667 101 OFFCURVE",
"273 101 CURVE SMOOTH"
);
},
{
closed = 1;
nodes = (
"218 734 LINE",
"267 797 LINE SMOOTH",
"277.667 811 OFFCURVE",
"283 824 OFFCURVE",
"283 836 CURVE SMOOTH",
"283 838 OFFCURVE",
"282.667 840 OFFCURVE",
"282 842 CURVE",
"279.333 855.333 OFFCURVE",
"271.333 865.333 OFFCURVE",
"258 872 CURVE",
"254 874.667 OFFCURVE",
"249 876 OFFCURVE",
"243 876 CURVE SMOOTH",
"237.667 876 OFFCURVE",
"231.333 874.667 OFFCURVE",
"224 872 CURVE",
"208.667 867.333 OFFCURVE",
"197.667 857.333 OFFCURVE",
"191 842 CURVE SMOOTH",
"145 734 LINE"
);
},
{
closed = 1;
nodes = (
"359 734 LINE",
"408 797 LINE SMOOTH",
"418.667 811 OFFCURVE",
"424 824 OFFCURVE",
"424 836 CURVE SMOOTH",
"424 838 OFFCURVE",
"423.667 840 OFFCURVE",
"423 842 CURVE",
"420.333 855.333 OFFCURVE",
"412.333 865.333 OFFCURVE",
"399 872 CURVE",
"395 874.667 OFFCURVE",
"390 876 OFFCURVE",
"384 876 CURVE SMOOTH",
"378.667 876 OFFCURVE",
"372.333 874.667 OFFCURVE",
"365 872 CURVE",
"349.667 867.333 OFFCURVE",
"338.667 857.333 OFFCURVE",
"332 842 CURVE SMOOTH",
"286 734 LINE"
);
}
);
width = 549;
}
);
unicode = 0150;
},
{
glyphname = Omacron;
lastChange = "2018-08-09 15:14:23 +0000";
layers = (
{
layerId = "BADA37E3-C95E-4946-BA48-1F986F6D85A7";
paths = (
{
closed = 1;
nodes = (
"388.667 -11 OFFCURVE",
"483 50.333 OFFCURVE",
"483 185 CURVE SMOOTH",
"483 506 LINE SMOOTH",
"483 636.667 OFFCURVE",
"407 716 OFFCURVE",
"275 716 CURVE SMOOTH",
"143 716 OFFCURVE",
"63 644.333 OFFCURVE",
"63 507 CURVE SMOOTH",
"63 185 LINE SMOOTH",
"63 50.333 OFFCURVE",
"159.333 -11 OFFCURVE",
"274 -11 CURVE SMOOTH"
);
},
{
closed = 1;
nodes = (
"119 516 LINE SMOOTH",
"119 613.333 OFFCURVE",
"179.667 663 OFFCURVE",
"273 663 CURVE SMOOTH",
"366.333 663 OFFCURVE",
"428 613.333 OFFCURVE",
"428 516 CURVE SMOOTH",
"428 187 LINE SMOOTH",
"428 -11.522 OFFCURVE",
"119 -6.571 OFFCURVE",
"119 186 CURVE SMOOTH"
);
},
{
closed = 1;
nodes = (
"377 730 LINE",
"377 788 LINE",
"160 788 LINE",
"160 730 LINE"
);
}
);
width = 549;
},
{
layerId = "77B00D75-0619-4FB7-8D17-EB9FCD2DF18B";
paths = (
{
closed = 1;
nodes = (
"388.667 -11 OFFCURVE",
"483 50.333 OFFCURVE",
"483 185 CURVE SMOOTH",
"483 506 LINE SMOOTH",
"483 636.667 OFFCURVE",
"407 716 OFFCURVE",
"275 716 CURVE SMOOTH",
"143 716 OFFCURVE",
"63 644.333 OFFCURVE",
"63 507 CURVE SMOOTH",
"63 185 LINE SMOOTH",
"63 50.333 OFFCURVE",
"159.333 -11 OFFCURVE",
"274 -11 CURVE SMOOTH"
);
},
{
closed = 1;
nodes = (
"167.333 8 OFFCURVE",
"82 68 OFFCURVE",
"82 184 CURVE SMOOTH",
"82 508 LINE SMOOTH",
"82 622.667 OFFCURVE",
"146.333 695 OFFCURVE",
"273 695 CURVE SMOOTH",
"399.667 695 OFFCURVE",
"464 624.667 OFFCURVE",
"464 510 CURVE SMOOTH",
"464 184 LINE SMOOTH",
"464 61.333 OFFCURVE",
"380.667 8 OFFCURVE",
"274 8 CURVE SMOOTH"
);
},
{
closed = 1;
nodes = (
"377 769 LINE",
"377 788 LINE",
"160 788 LINE",
"160 769 LINE"
);
}
);
width = 549;
},
{
layerId = "8A94633D-DA21-409C-A8B7-00A83612E8B2";
paths = (
{
closed = 1;
nodes = (
"388.667 -11 OFFCURVE",
"483 50.333 OFFCURVE",
"483 185 CURVE SMOOTH",
"483 506 LINE SMOOTH",
"483 636.667 OFFCURVE",
"407 716 OFFCURVE",
"275 716 CURVE SMOOTH",
"143 716 OFFCURVE",
"63 644.333 OFFCURVE",
"63 507 CURVE SMOOTH",
"63 185 LINE SMOOTH",
"63 50.333 OFFCURVE",
"159.333 -11 OFFCURVE",
"274 -11 CURVE SMOOTH"
);
},
{
closed = 1;
nodes = (
"205 101 OFFCURVE",
"173 140 OFFCURVE",
"173 204 CURVE SMOOTH",
"173 471 LINE SMOOTH",
"173 557.667 OFFCURVE",
"191.667 597 OFFCURVE",
"273 597 CURVE SMOOTH",
"354.333 597 OFFCURVE",
"373 555.333 OFFCURVE",
"373 470 CURVE SMOOTH",
"373 206 LINE SMOOTH",
"373 143.333 OFFCURVE",
"335.667 101 OFFCURVE",
"273 101 CURVE SMOOTH"
);
},
{
closed = 1;
nodes = (
"377 730 LINE",
"377 821 LINE",
"160 821 LINE",
"160 730 LINE"
);
}
);
width = 549;
}
);
unicode = 014C;
},
{
glyphname = Oslash;
lastChange = "2018-08-09 15:14:23 +0000";
layers = (
{
layerId = "BADA37E3-C95E-4946-BA48-1F986F6D85A7";
paths = (
{
closed = 1;
nodes = (
"161 -114 LINE",
"201 3 LINE",
"227 -6.333 OFFCURVE",
"256.333 -11 OFFCURVE",
"289 -11 CURVE SMOOTH",
"403.667 -11 OFFCURVE",
"498 50.333 OFFCURVE",
"498 185 CURVE SMOOTH",
"498 506 LINE SMOOTH",
"498 579.333 OFFCURVE",
"475.667 634.333 OFFCURVE",
"431 671 CURVE",
"481 817 LINE",
"424 817 LINE",
"383 700 LINE",
"354.333 710.667 OFFCURVE",
"323.333 716 OFFCURVE",
"290 716 CURVE SMOOTH",
"158 716 OFFCURVE",
"78 644.333 OFFCURVE",
"78 507 CURVE SMOOTH",
"78 185 LINE SMOOTH",
"78 116.333 OFFCURVE",
"102 64.333 OFFCURVE",
"150 29 CURVE",
"100 -114 LINE"
);
},
{
closed = 1;
nodes = (
"145.667 110.667 OFFCURVE",
"134 144 OFFCURVE",
"134 186 CURVE SMOOTH",
"134 516 LINE SMOOTH",
"134 613.333 OFFCURVE",
"194.667 663 OFFCURVE",
"288 663 CURVE SMOOTH",
"317.333 663 OFFCURVE",
"343 658 OFFCURVE",
"365 648 CURVE",
"169 86 LINE"
);
},
{
closed = 1;
nodes = (
"262 42 OFFCURVE",
"238.667 46 OFFCURVE",
"218 54 CURVE",
"411 614 LINE",
"432.333 589.333 OFFCURVE",
"443 556.667 OFFCURVE",
"443 516 CURVE SMOOTH",
"443 187 LINE SMOOTH",
"443 88.333 OFFCURVE",
"378.667 42 OFFCURVE",
"288 42 CURVE SMOOTH"
);
}
);
width = 531;
},
{
layerId = "77B00D75-0619-4FB7-8D17-EB9FCD2DF18B";
paths = (
{
closed = 1;
nodes = (
"120 -114 LINE",
"166 19 LINE",
"240.847 -23.366 OFFCURVE",
"359.165 -23.23 OFFCURVE",
"436.5 36.5 CURVE SMOOTH",
"477.5 68.167 OFFCURVE",
"498 117.667 OFFCURVE",
"498 185 CURVE SMOOTH",
"498 506 LINE SMOOTH",
"498 596 OFFCURVE",
"465.333 658 OFFCURVE",
"400 692 CURVE",
"444 817 LINE",
"424 817 LINE",
"383 700 LINE",
"354.333 710.667 OFFCURVE",
"323.333 716 OFFCURVE",
"290 716 CURVE SMOOTH",
"158 716 OFFCURVE",
"78 644.333 OFFCURVE",
"78 507 CURVE SMOOTH",
"78 185 LINE SMOOTH",
"78 116.333 OFFCURVE",
"102 64.333 OFFCURVE",
"150 29 CURVE",
"100 -114 LINE"
);
},
{
closed = 1;
nodes = (
"117 81 OFFCURVE",
"97 126 OFFCURVE",
"97 184 CURVE SMOOTH",
"97 508 LINE SMOOTH",
"97 622.667 OFFCURVE",
"161.333 695 OFFCURVE",
"288 695 CURVE SMOOTH",
"318.667 695 OFFCURVE",
"348 690 OFFCURVE",
"376 680 CURVE",
"157 49 LINE"
);
},
{
closed = 1;
nodes = (
"245.667 8 OFFCURVE",
"204.667 18 OFFCURVE",
"172 38 CURVE",
"393 672 LINE",
"450.333 642.667 OFFCURVE",
"479 588.667 OFFCURVE",
"479 510 CURVE SMOOTH",
"479 184 LINE SMOOTH",
"479 61.333 OFFCURVE",
"393.667 8 OFFCURVE",
"295 8 CURVE SMOOTH"
);
}
);
width = 537;
},
{
layerId = "8A94633D-DA21-409C-A8B7-00A83612E8B2";
paths = (
{
closed = 1;
nodes = (
"195 -114 LINE",
"233 -4 LINE",
"252.333 -8.667 OFFCURVE",
"273.667 -11 OFFCURVE",
"297 -11 CURVE SMOOTH",
"411.667 -11 OFFCURVE",
"506 50.333 OFFCURVE",
"506 185 CURVE SMOOTH",
"506 506 LINE SMOOTH",
"506 564 OFFCURVE",
"491.333 611.333 OFFCURVE",
"462 648 CURVE",
"522 817 LINE",
"402 817 LINE",
"364 708 LINE",
"342.667 713.333 OFFCURVE",
"320.667 716 OFFCURVE",
"298 716 CURVE SMOOTH",
"166 716 OFFCURVE",
"86 644.333 OFFCURVE",
"86 507 CURVE SMOOTH",
"86 185 LINE SMOOTH",
"86 128.333 OFFCURVE",
"102.333 83 OFFCURVE",
"135 49 CURVE",
"78 -114 LINE"
);
},
{
closed = 1;
nodes = (
"284 101 OFFCURVE",
"275.667 101.667 OFFCURVE",
"271 103 CURVE",
"396 458 LINE",
"396 206 LINE SMOOTH",
"396 143.333 OFFCURVE",
"358.667 101 OFFCURVE",
"296 101 CURVE SMOOTH"
);
},
{
closed = 1;
nodes = (
"196 471 LINE SMOOTH",
"196 557.667 OFFCURVE",
"214.667 597 OFFCURVE",
"296 597 CURVE SMOOTH",
"306.667 597 OFFCURVE",
"316 596 OFFCURVE",
"324 594 CURVE",
"196 225 LINE"
);
}
);
width = 561;
}
);
unicode = 00D8;
},
{
glyphname = Otilde;
lastChange = "2018-08-09 15:14:23 +0000";
layers = (
{
layerId = "BADA37E3-C95E-4946-BA48-1F986F6D85A7";
paths = (
{
closed = 1;
nodes = (
"388.667 -11 OFFCURVE",
"483 50.333 OFFCURVE",
"483 185 CURVE SMOOTH",
"483 506 LINE SMOOTH",
"483 636.667 OFFCURVE",
"407 716 OFFCURVE",
"275 716 CURVE SMOOTH",
"143 716 OFFCURVE",
"63 644.333 OFFCURVE",
"63 507 CURVE SMOOTH",
"63 185 LINE SMOOTH",
"63 50.333 OFFCURVE",
"159.333 -11 OFFCURVE",
"274 -11 CURVE SMOOTH"
);
},
{
closed = 1;
nodes = (
"119 516 LINE SMOOTH",
"119 613.333 OFFCURVE",
"179.667 663 OFFCURVE",
"273 663 CURVE SMOOTH",
"366.333 663 OFFCURVE",
"428 613.333 OFFCURVE",
"428 516 CURVE SMOOTH",
"428 187 LINE SMOOTH",
"428 -11.522 OFFCURVE",
"119 -6.571 OFFCURVE",
"119 186 CURVE SMOOTH"
);
},
{
closed = 1;
nodes = (
"383 728 OFFCURVE",
"415 745.667 OFFCURVE",
"445 781 CURVE",
"420 820 LINE",
"399.333 796.667 OFFCURVE",
"376 785 OFFCURVE",
"350 785 CURVE SMOOTH",
"295.578 785 OFFCURVE",
"255.11 826 OFFCURVE",
"211 826 CURVE SMOOTH",
"175.667 826 OFFCURVE",
"142.333 808.333 OFFCURVE",
"111 773 CURVE",
"136 734 LINE",
"158.667 758 OFFCURVE",
"183.667 770 OFFCURVE",
"211 770 CURVE SMOOTH",
"264.488 770 OFFCURVE",
"305.716 728 OFFCURVE",
"349 728 CURVE SMOOTH"
);
}
);
width = 549;
},
{
layerId = "77B00D75-0619-4FB7-8D17-EB9FCD2DF18B";
paths = (
{
closed = 1;
nodes = (
"388.667 -11 OFFCURVE",
"483 50.333 OFFCURVE",
"483 185 CURVE SMOOTH",
"483 506 LINE SMOOTH",
"483 636.667 OFFCURVE",
"407 716 OFFCURVE",
"275 716 CURVE SMOOTH",
"143 716 OFFCURVE",
"63 644.333 OFFCURVE",
"63 507 CURVE SMOOTH",
"63 185 LINE SMOOTH",
"63 50.333 OFFCURVE",
"159.333 -11 OFFCURVE",
"274 -11 CURVE SMOOTH"
);
},
{
closed = 1;
nodes = (
"167.333 8 OFFCURVE",
"82 68 OFFCURVE",
"82 184 CURVE SMOOTH",
"82 508 LINE SMOOTH",
"82 622.667 OFFCURVE",
"146.333 695 OFFCURVE",
"273 695 CURVE SMOOTH",
"399.667 695 OFFCURVE",
"464 624.667 OFFCURVE",
"464 510 CURVE SMOOTH",
"464 184 LINE SMOOTH",
"464 61.333 OFFCURVE",
"380.667 8 OFFCURVE",
"274 8 CURVE SMOOTH"
);
},
{
closed = 1;
nodes = (
"147.333 789.333 OFFCURVE",
"175.333 804 OFFCURVE",
"206 804 CURVE SMOOTH",
"253.704 804 OFFCURVE",
"293.872 761 OFFCURVE",
"350 761 CURVE SMOOTH",
"379.333 761 OFFCURVE",
"406.667 772.667 OFFCURVE",
"432 796 CURVE",
"422 813 LINE",
"401.333 791.667 OFFCURVE",
"380.333 781 OFFCURVE",
"359 781 CURVE SMOOTH",
"337.667 781 OFFCURVE",
"318.667 785 OFFCURVE",
"302 793 CURVE SMOOTH",
"258.667 814.333 OFFCURVE",
"228 825 OFFCURVE",
"210 825 CURVE SMOOTH",
"175.333 825 OFFCURVE",
"142.333 808.667 OFFCURVE",
"111 776 CURVE",
"122 760 LINE"
);
}
);
width = 549;
},
{
layerId = "8A94633D-DA21-409C-A8B7-00A83612E8B2";
paths = (
{
closed = 1;
nodes = (
"388.667 -11 OFFCURVE",
"483 50.333 OFFCURVE",
"483 185 CURVE SMOOTH",
"483 506 LINE SMOOTH",
"483 636.667 OFFCURVE",
"407 716 OFFCURVE",
"275 716 CURVE SMOOTH",
"143 716 OFFCURVE",
"63 644.333 OFFCURVE",
"63 507 CURVE SMOOTH",
"63 185 LINE SMOOTH",
"63 50.333 OFFCURVE",
"159.333 -11 OFFCURVE",
"274 -11 CURVE SMOOTH"
);
},
{
closed = 1;
nodes = (
"205 101 OFFCURVE",
"173 140 OFFCURVE",
"173 204 CURVE SMOOTH",
"173 471 LINE SMOOTH",
"173 557.667 OFFCURVE",
"191.667 597 OFFCURVE",
"273 597 CURVE SMOOTH",
"354.333 597 OFFCURVE",
"373 555.333 OFFCURVE",
"373 470 CURVE SMOOTH",
"373 206 LINE SMOOTH",
"373 143.333 OFFCURVE",
"335.667 101 OFFCURVE",
"273 101 CURVE SMOOTH"
);
},
{
closed = 1;
nodes = (
"374.667 729 OFFCURVE",
"384 730.333 OFFCURVE",
"394 733 CURVE SMOOTH",
"416.667 739 OFFCURVE",
"439.333 755.333 OFFCURVE",
"462 782 CURVE",
"420 847 LINE",
"401.333 826.333 OFFCURVE",
"382 815 OFFCURVE",
"362 813 CURVE",
"358 812.333 OFFCURVE",
"354 812 OFFCURVE",
"350 812 CURVE SMOOTH",
"333.333 812 OFFCURVE",
"317.333 815.333 OFFCURVE",
"302 822 CURVE SMOOTH",
"283.333 830.667 OFFCURVE",
"264.333 838.667 OFFCURVE",
"245 846 CURVE",
"234.333 850.667 OFFCURVE",
"223 853 OFFCURVE",
"211 853 CURVE SMOOTH",
"201.667 853 OFFCURVE",
"191.667 851.333 OFFCURVE",
"181 848 CURVE",
"157.667 842 OFFCURVE",
"134.333 826 OFFCURVE",
"111 800 CURVE",
"150 735 LINE",
"170 756.333 OFFCURVE",
"190.667 768 OFFCURVE",
"212 770 CURVE",
"216.667 770.667 OFFCURVE",
"221.333 771 OFFCURVE",
"226 771 CURVE SMOOTH",
"242.667 771 OFFCURVE",
"258.667 767.667 OFFCURVE",
"274 761 CURVE SMOOTH",
"292.667 752.333 OFFCURVE",
"311.667 744 OFFCURVE",
"331 736 CURVE SMOOTH",
"342.333 731.333 OFFCURVE",
"354 729 OFFCURVE",
"366 729 CURVE SMOOTH"
);
}
);
width = 549;
}
);
unicode = 00D5;
},
{
glyphname = OE;
lastChange = "2018-08-09 15:14:23 +0000";
layers = (
{
layerId = "BADA37E3-C95E-4946-BA48-1F986F6D85A7";
paths = (
{
closed = 1;
nodes = (
"353.833 -11 OFFCURVE",
"403 6 OFFCURVE",
"441 40 CURVE",
"441 0 LINE",
"773 0 LINE",
"773 50 LINE",
"497 50 LINE",
"497 163 LINE",
"498 185 LINE",
"498 358 LINE",
"669 358 LINE",
"688 413 LINE",
"498 413 LINE",
"498 506 LINE SMOOTH",
"498 518.667 OFFCURVE",
"497.667 528 OFFCURVE",
"497 534 CURVE",
"497 648 LINE",
"775 648 LINE",
"775 700 LINE",
"441 700 LINE",
"441 662 LINE",
"368.607 734.393 OFFCURVE",
"210.181 733.993 OFFCURVE",
"134.5 663 CURVE SMOOTH",
"96.833 627.667 OFFCURVE",
"78 575.667 OFFCURVE",
"78 507 CURVE SMOOTH",
"78 185 LINE SMOOTH",
"78 50.333 OFFCURVE",
"172.833 -11 OFFCURVE",
"293.5 -11 CURVE SMOOTH"
);
},
{
closed = 1;
nodes = (
"199.833 42 OFFCURVE",
"134 91.333 OFFCURVE",
"134 186 CURVE SMOOTH",
"134 516 LINE SMOOTH",
"134 613.333 OFFCURVE",
"195.833 663 OFFCURVE",
"284.5 663 CURVE SMOOTH",
"373.167 663 OFFCURVE",
"429 622.667 OFFCURVE",
"441 544 CURVE",
"441 157 LINE",
"429 79.667 OFFCURVE",
"369.167 42 OFFCURVE",
"284.5 42 CURVE SMOOTH"
);
}
);
width = 808;
},
{
layerId = "77B00D75-0619-4FB7-8D17-EB9FCD2DF18B";
paths = (
{
closed = 1;
nodes = (
"373 -11 OFFCURVE",
"449 22.667 OFFCURVE",
"481 96 CURVE",
"481 0 LINE",
"813 0 LINE",
"813 19 LINE",
"500 19 LINE",
"500 394 LINE",
"721 394 LINE",
"728 413 LINE",
"500 413 LINE",
"500 681 LINE",
"815 681 LINE",
"815 700 LINE",
"481 700 LINE",
"481 602 LINE",
"450.333 678 OFFCURVE",
"386.667 716 OFFCURVE",
"290 716 CURVE SMOOTH",
"158 716 OFFCURVE",
"78 644.333 OFFCURVE",
"78 507 CURVE SMOOTH",
"78 185 LINE SMOOTH",
"78 50.333 OFFCURVE",
"174.333 -11 OFFCURVE",
"289 -11 CURVE SMOOTH"
);
},
{
closed = 1;
nodes = (
"182.333 8 OFFCURVE",
"97 68 OFFCURVE",
"97 184 CURVE SMOOTH",
"97 508 LINE SMOOTH",
"97 622.667 OFFCURVE",
"161.333 695 OFFCURVE",
"288 695 CURVE SMOOTH",
"414.667 695 OFFCURVE",
"479 624.667 OFFCURVE",
"479 510 CURVE SMOOTH",
"479 184 LINE SMOOTH",
"479 61.333 OFFCURVE",
"395.667 8 OFFCURVE",
"289 8 CURVE SMOOTH"
);
}
);
width = 854;
},
{
layerId = "8A94633D-DA21-409C-A8B7-00A83612E8B2";
paths = (
{
closed = 1;
nodes = (
"324.333 -11 OFFCURVE",
"357.333 -5 OFFCURVE",
"388 7 CURVE",
"388 0 LINE",
"720 0 LINE",
"720 100 LINE",
"498 100 LINE",
"498 174 LINE",
"498 185 LINE",
"498 308 LINE",
"604 308 LINE",
"635 413 LINE",
"498 413 LINE",
"498 506 LINE",
"498 515 LINE",
"498 590 LINE",
"722 590 LINE",
"722 700 LINE",
"388 700 LINE",
"388 698 LINE",
"360 710 OFFCURVE",
"327.333 716 OFFCURVE",
"290 716 CURVE SMOOTH",
"158 716 OFFCURVE",
"78 644.333 OFFCURVE",
"78 507 CURVE SMOOTH",
"78 185 LINE SMOOTH",
"78 50.333 OFFCURVE",
"174.333 -11 OFFCURVE",
"289 -11 CURVE SMOOTH"
);
},
{
closed = 1;
nodes = (
"220 101 OFFCURVE",
"188 140 OFFCURVE",
"188 204 CURVE SMOOTH",
"188 471 LINE SMOOTH",
"188 557.667 OFFCURVE",
"206.667 597 OFFCURVE",
"288 597 CURVE SMOOTH",
"369.333 597 OFFCURVE",
"388 555.333 OFFCURVE",
"388 470 CURVE SMOOTH",
"388 201 LINE",
"385.333 141 OFFCURVE",
"349.333 101 OFFCURVE",
"288 101 CURVE SMOOTH"
);
}
);
width = 761;
}
);
unicode = 0152;
},
{
glyphname = P;
lastChange = "2018-08-09 17:25:25 +0000";
layers = (
{
layerId = "BADA37E3-C95E-4946-BA48-1F986F6D85A7";
paths = (
{
closed = 1;
nodes = (
"134 0 LINE",
"134 245 LINE",
"331 245 LINE SMOOTH",
"482 245 OFFCURVE",
"506 348 OFFCURVE",
"511 477 CURVE SMOOTH",
"517 621 OFFCURVE",
"450.667 700 OFFCURVE",
"324 700 CURVE SMOOTH",
"78 700 LINE",
"78 0 LINE"
);
},
{
closed = 1;
nodes = (
"134 647 LINE",
"328 647 LINE SMOOTH",
"406.667 647 OFFCURVE",
"456 598 OFFCURVE",
"456 477 CURVE SMOOTH",
"456 382 OFFCURVE",
"433 300 OFFCURVE",
"332 300 CURVE SMOOTH",
"134 300 LINE"
);
}
);
width = 545;
},
{
layerId = "77B00D75-0619-4FB7-8D17-EB9FCD2DF18B";
paths = (
{
closed = 1;
nodes = (
"97 0 LINE",
"97 281 LINE",
"311 281 LINE SMOOTH",
"445 281 OFFCURVE",
"512 349.333 OFFCURVE",
"512 486 CURVE SMOOTH",
"512 616.667 OFFCURVE",
"450.667 700 OFFCURVE",
"324 700 CURVE SMOOTH",
"78 700 LINE",
"78 0 LINE"
);
},
{
closed = 1;
nodes = (
"97 680 LINE",
"325 680 LINE SMOOTH",
"441 680 OFFCURVE",
"493 604.667 OFFCURVE",
"493 486 CURVE SMOOTH",
"493 362 OFFCURVE",
"431.667 300 OFFCURVE",
"309 300 CURVE SMOOTH",
"97 300 LINE"
);
}
);
width = 551;
},
{
layerId = "8A94633D-DA21-409C-A8B7-00A83612E8B2";
paths = (
{
closed = 1;
nodes = (
"188 0 LINE",
"188 195 LINE",
"315 195 LINE SMOOTH",
"446.333 195 OFFCURVE",
"512 284.333 OFFCURVE",
"512 453 CURVE SMOOTH",
"512 599 OFFCURVE",
"446 700 OFFCURVE",
"306 700 CURVE SMOOTH",
"78 700 LINE",
"78 0 LINE"
);
},
{
closed = 1;
nodes = (
"188 590 LINE",
"278 590 LINE SMOOTH",
"375 590 OFFCURVE",
"402 553 OFFCURVE",
"402 452 CURVE SMOOTH",
"402 356 OFFCURVE",
"380 300 OFFCURVE",
"281 300 CURVE SMOOTH",
"188 300 LINE"
);
}
);
width = 551;
}
);
leftKerningGroup = O;
rightKerningGroup = P;
unicode = 0050;
},
{
glyphname = Thorn;
lastChange = "2018-08-09 15:14:23 +0000";
layers = (
{
layerId = "BADA37E3-C95E-4946-BA48-1F986F6D85A7";
paths = (
{
closed = 1;
nodes = (
"134 0 LINE",
"134 185 LINE",
"160.667 142.333 OFFCURVE",
"219.667 116 OFFCURVE",
"269 116 CURVE SMOOTH",
"379.667 116 OFFCURVE",
"455 191 OFFCURVE",
"455 311 CURVE SMOOTH",
"455 371 OFFCURVE",
"438.833 419 OFFCURVE",
"406.5 455 CURVE SMOOTH",
"374.167 491 OFFCURVE",
"283.333 491 OFFCURVE",
"134 455 CURVE",
"134 700 LINE",
"78 700 LINE",
"78 0 LINE"
);
},
{
closed = 1;
nodes = (
"188.333 170 OFFCURVE",
"134 221.333 OFFCURVE",
"134 324 CURVE",
"141.829 504.073 OFFCURVE",
"399 508.249 OFFCURVE",
"399 317 CURVE SMOOTH",
"399 217 OFFCURVE",
"345.667 170 OFFCURVE",
"267 170 CURVE SMOOTH"
);
}
);
width = 488;
},
{
layerId = "77B00D75-0619-4FB7-8D17-EB9FCD2DF18B";
paths = (
{
closed = 1;
nodes = (
"97 0 LINE",
"97 235 LINE",
"126.387 161.532 OFFCURVE",
"213.619 116 OFFCURVE",
"268 116 CURVE SMOOTH",
"372 116 OFFCURVE",
"456 192.667 OFFCURVE",
"456 310 CURVE SMOOTH",
"456 427.333 OFFCURVE",
"388.667 510 OFFCURVE",
"266 510 CURVE SMOOTH",
"193.333 510 OFFCURVE",
"137 476.667 OFFCURVE",
"97 410 CURVE",
"97 700 LINE",
"78 700 LINE",
"78 0 LINE"
);
},
{
closed = 1;
nodes = (
"171.167 134 OFFCURVE",
"99 209.333 OFFCURVE",
"99 320 CURVE SMOOTH",
"99 432 OFFCURVE",
"183.5 494 OFFCURVE",
"269.5 494 CURVE SMOOTH",
"355.5 494 OFFCURVE",
"437 431 OFFCURVE",
"437 315 CURVE SMOOTH",
"437 199 OFFCURVE",
"361.833 134 OFFCURVE",
"266.5 134 CURVE SMOOTH"
);
}
);
width = 495;
},
{
layerId = "8A94633D-DA21-409C-A8B7-00A83612E8B2";
paths = (
{
closed = 1;
nodes = (
"186 0 LINE",
"186 139 LINE",
"208 123.667 OFFCURVE",
"235.667 116 OFFCURVE",
"269 116 CURVE SMOOTH",
"379.667 116 OFFCURVE",
"455 189.667 OFFCURVE",
"455 315 CURVE SMOOTH",
"455 429.667 OFFCURVE",
"389 509 OFFCURVE",
"265 509 CURVE SMOOTH",
"237.667 509 OFFCURVE",
"211.333 503.333 OFFCURVE",
"186 492 CURVE",
"186 700 LINE",
"78 700 LINE",
"78 0 LINE"
);
},
{
closed = 1;
nodes = (
"223.667 220 OFFCURVE",
"186 248.667 OFFCURVE",
"186 318 CURVE SMOOTH",
"186 368.667 OFFCURVE",
"227.667 404 OFFCURVE",
"269 404 CURVE SMOOTH",
"322.333 404 OFFCURVE",
"346 360 OFFCURVE",
"346 316 CURVE SMOOTH",
"346 248 OFFCURVE",
"309 220 OFFCURVE",
"269 220 CURVE SMOOTH"
);
}
);
width = 494;
}
);
unicode = 00DE;
},
{
glyphname = Q;
lastChange = "2018-08-09 17:25:30 +0000";
layers = (
{
layerId = "BADA37E3-C95E-4946-BA48-1F986F6D85A7";
paths = (
{
closed = 1;
nodes = (
"428 -40 LINE",
"389 -40 OFFCURVE",
"345 -35 OFFCURVE",
"322 -7 CURVE",
"415.333 9 OFFCURVE",
"483 69 OFFCURVE",
"483 185 CURVE SMOOTH",
"483 506 LINE SMOOTH",
"483 636.667 OFFCURVE",
"407 716 OFFCURVE",
"275 716 CURVE SMOOTH",
"143 716 OFFCURVE",
"63 644.333 OFFCURVE",
"63 507 CURVE SMOOTH",
"63 185 LINE SMOOTH",
"63 62 OFFCURVE",
"144 -8 OFFCURVE",
"266 -11 CURVE",
"294 -66.333 OFFCURVE",
"348 -94 OFFCURVE",
"428 -94 CURVE"
);
},
{
closed = 1;
nodes = (
"170.667 51 OFFCURVE",
"119 100.667 OFFCURVE",
"119 186 CURVE SMOOTH",
"119 516 LINE SMOOTH",
"119 613.333 OFFCURVE",
"179.667 663 OFFCURVE",
"273 663 CURVE SMOOTH",
"366.333 663 OFFCURVE",
"428 613.333 OFFCURVE",
"428 516 CURVE SMOOTH",
"428 187 LINE SMOOTH",
"428 100.333 OFFCURVE",
"379 53.333 OFFCURVE",
"303 44 CURVE",
"301 55.333 OFFCURVE",
"300 74.667 OFFCURVE",
"300 102 CURVE SMOOTH",
"300 174 LINE",
"244 174 LINE",
"244 101 LINE SMOOTH",
"244 78.333 OFFCURVE",
"245.333 59 OFFCURVE",
"248 43 CURVE"
);
}
);
width = 549;
},
{
layerId = "77B00D75-0619-4FB7-8D17-EB9FCD2DF18B";
paths = (
{
closed = 1;
nodes = (
"428 -75 LINE",
"352 -74.333 OFFCURVE",
"309.333 -53 OFFCURVE",
"300 -11 CURVE",
"412 2.333 OFFCURVE",
"483 66.333 OFFCURVE",
"483 185 CURVE SMOOTH",
"483 506 LINE SMOOTH",
"483 636.667 OFFCURVE",
"407 716 OFFCURVE",
"275 716 CURVE SMOOTH",
"143 716 OFFCURVE",
"63 644.333 OFFCURVE",
"63 507 CURVE SMOOTH",
"63 185 LINE SMOOTH",
"63 51.667 OFFCURVE",
"157 -11 OFFCURVE",
"277 -11 CURVE",
"295 -66.333 OFFCURVE",
"345.333 -94 OFFCURVE",
"428 -94 CURVE"
);
},
{
closed = 1;
nodes = (
"164 8 OFFCURVE",
"84 70 OFFCURVE",
"84 184 CURVE SMOOTH",
"84 516 LINE SMOOTH",
"84 641.333 OFFCURVE",
"165.833 696 OFFCURVE",
"274.5 696 CURVE SMOOTH",
"383.167 696 OFFCURVE",
"463 634.667 OFFCURVE",
"463 516 CURVE SMOOTH",
"463 186 LINE SMOOTH",
"463 87.333 OFFCURVE",
"401.333 14.333 OFFCURVE",
"296 9 CURVE",
"292.667 27.667 OFFCURVE",
"291 52 OFFCURVE",
"291 81 CURVE SMOOTH",
"290 174 LINE",
"270 174 LINE",
"270 81 LINE SMOOTH",
"270 48.333 OFFCURVE",
"271.333 24 OFFCURVE",
"274 8 CURVE"
);
}
);
width = 549;
},
{
layerId = "8A94633D-DA21-409C-A8B7-00A83612E8B2";
paths = (
{
closed = 1;
nodes = (
"431 -22 LINE",
"381.667 -22 OFFCURVE",
"365.333 -19 OFFCURVE",
"348 1 CURVE",
"417.333 14.333 OFFCURVE",
"483 73 OFFCURVE",
"483 185 CURVE SMOOTH",
"483 506 LINE SMOOTH",
"483 636.667 OFFCURVE",
"407 716 OFFCURVE",
"275 716 CURVE SMOOTH",
"143 716 OFFCURVE",
"63 644.333 OFFCURVE",
"63 507 CURVE SMOOTH",
"63 185 LINE SMOOTH",
"63 59.503 OFFCURVE",
"144.854 1.115 OFFCURVE",
"236 -8 CURVE",
"265 -88 OFFCURVE",
"325 -116 OFFCURVE",
"417 -116 CURVE"
);
},
{
closed = 1;
nodes = (
"188 101 OFFCURVE",
"173 129.333 OFFCURVE",
"173 186 CURVE SMOOTH",
"173 505 LINE SMOOTH",
"173 562.333 OFFCURVE",
"193 599 OFFCURVE",
"273 599 CURVE SMOOTH",
"348.136 599 OFFCURVE",
"373 553.785 OFFCURVE",
"373 505 CURVE SMOOTH",
"373 187 LINE SMOOTH",
"373 130.333 OFFCURVE",
"357.667 102 OFFCURVE",
"327 102 CURVE",
"327 120 OFFCURVE",
"327 139 OFFCURVE",
"327 157 CURVE SMOOTH",
"327 174 LINE",
"217 174 LINE",
"217 156 LINE SMOOTH",
"217 143 OFFCURVE",
"217 123 OFFCURVE",
"218 101 CURVE"
);
}
);
width = 549;
}
);
leftKerningGroup = O;
rightKerningGroup = O;
unicode = 0051;
},
{
glyphname = R;
lastChange = "2018-08-09 17:25:35 +0000";
layers = (
{
layerId = "BADA37E3-C95E-4946-BA48-1F986F6D85A7";
paths = (
{
closed = 1;
nodes = (
"134 0 LINE",
"134 245 LINE",
"331 245 LINE SMOOTH",
"345.667 245 OFFCURVE",
"359 246 OFFCURVE",
"371 248 CURVE",
"456 0 LINE",
"513 0 LINE",
"424 265 LINE",
"492 305 OFFCURVE",
"512 380 OFFCURVE",
"512 486 CURVE SMOOTH",
"512 616.667 OFFCURVE",
"450.667 700 OFFCURVE",
"324 700 CURVE SMOOTH",
"78 700 LINE",
"78 0 LINE"
);
},
{
closed = 1;
nodes = (
"134 647 LINE",
"328 647 LINE SMOOTH",
"406.667 647 OFFCURVE",
"456 594 OFFCURVE",
"456 486 CURVE SMOOTH",
"456 377 OFFCURVE",
"433 300 OFFCURVE",
"332 300 CURVE SMOOTH",
"134 300 LINE"
);
}
);
width = 564;
},
{
layerId = "77B00D75-0619-4FB7-8D17-EB9FCD2DF18B";
paths = (
{
closed = 1;
nodes = (
"98 0 LINE",
"98 281 LINE",
"332 281 LINE SMOOTH",
"336.667 281 OFFCURVE",
"345 281.667 OFFCURVE",
"357 283 CURVE",
"492 0 LINE",
"513 0 LINE",
"376 287 LINE",
"468 314 OFFCURVE",
"512 389 OFFCURVE",
"512 486 CURVE SMOOTH",
"512 616.667 OFFCURVE",
"449 700 OFFCURVE",
"317 700 CURVE SMOOTH",
"78 700 LINE",
"78 0 LINE"
);
},
{
closed = 1;
nodes = (
"98 680 LINE",
"316 680 LINE SMOOTH",
"432 680 OFFCURVE",
"492 606 OFFCURVE",
"492 494 CURVE SMOOTH",
"492 382 OFFCURVE",
"437.333 300 OFFCURVE",
"316 300 CURVE SMOOTH",
"98 300 LINE"
);
}
);
width = 564;
},
{
layerId = "8A94633D-DA21-409C-A8B7-00A83612E8B2";
paths = (
{
closed = 1;
nodes = (
"188 0 LINE",
"188 195 LINE",
"294 195 LINE SMOOTH",
"307 195 OFFCURVE",
"321 195 OFFCURVE",
"334 195 CURVE",
"401 0 LINE",
"513 0 LINE",
"435 232 LINE",
"503 293 OFFCURVE",
"512 370 OFFCURVE",
"512 462 CURVE SMOOTH",
"512 596.667 OFFCURVE",
"444.333 700 OFFCURVE",
"315 700 CURVE SMOOTH",
"78 700 LINE",
"78 0 LINE"
);
},
{
closed = 1;
nodes = (
"188 589 LINE",
"269 589 LINE SMOOTH",
"355.667 589 OFFCURVE",
"396 564.667 OFFCURVE",
"396 462 CURVE SMOOTH",
"396 348 OFFCURVE",
"371 300 OFFCURVE",
"289 300 CURVE SMOOTH",
"188 300 LINE"
);
}
);
width = 564;
}
);
leftKerningGroup = H;
rightKerningGroup = R;
unicode = 0052;
},
{
glyphname = Racute;
lastChange = "2018-08-09 15:14:16 +0000";
layers = (
{
layerId = "BADA37E3-C95E-4946-BA48-1F986F6D85A7";
paths = (
{
closed = 1;
nodes = (
"134 0 LINE",
"134 245 LINE",
"331 245 LINE SMOOTH",
"345.667 245 OFFCURVE",
"359 246 OFFCURVE",
"371 248 CURVE",
"456 0 LINE",
"513 0 LINE",
"424 265 LINE",
"495.313 303.399 OFFCURVE",
"512 409.903 OFFCURVE",
"512 486 CURVE SMOOTH",
"512 616.667 OFFCURVE",
"450.667 700 OFFCURVE",
"324 700 CURVE SMOOTH",
"78 700 LINE",
"78 0 LINE"
);
},
{
closed = 1;
nodes = (
"134 647 LINE",
"328 647 LINE SMOOTH",
"406.667 647 OFFCURVE",
"456 594 OFFCURVE",
"456 486 CURVE SMOOTH",
"456 449.333 OFFCURVE",
"453.333 419.333 OFFCURVE",
"448 396 CURVE SMOOTH",
"437.183 340.114 OFFCURVE",
"401.44 300 OFFCURVE",
"332 300 CURVE SMOOTH",
"134 300 LINE"
);
},
{
closed = 1;
nodes = (
"271 730 LINE",
"340 822 LINE",
"343.333 826 OFFCURVE",
"345 830.333 OFFCURVE",
"345 835 CURVE SMOOTH",
"345 839.667 OFFCURVE",
"344.667 844 OFFCURVE",
"344 848 CURVE",
"339.333 863.333 OFFCURVE",
"328 871 OFFCURVE",
"310 871 CURVE SMOOTH",
"296 871 OFFCURVE",
"285.333 863.333 OFFCURVE",
"278 848 CURVE",
"227 730 LINE"
);
}
);
width = 564;
},
{
layerId = "77B00D75-0619-4FB7-8D17-EB9FCD2DF18B";
paths = (
{
closed = 1;
nodes = (
"98 0 LINE",
"98 281 LINE",
"332 281 LINE SMOOTH",
"336.667 281 OFFCURVE",
"345 281.667 OFFCURVE",
"357 283 CURVE",
"492 0 LINE",
"513 0 LINE",
"376 287 LINE",
"430.667 303 OFFCURVE",
"470.667 336.667 OFFCURVE",
"488 378 CURVE SMOOTH",
"504 415.333 OFFCURVE",
"512 451.333 OFFCURVE",
"512 486 CURVE SMOOTH",
"512 616.667 OFFCURVE",
"449 700 OFFCURVE",
"317 700 CURVE SMOOTH",
"78 700 LINE",
"78 0 LINE"
);
},
{
closed = 1;
nodes = (
"98 680 LINE",
"316 680 LINE SMOOTH",
"432 680 OFFCURVE",
"492 606 OFFCURVE",
"492 494 CURVE SMOOTH",
"492 382 OFFCURVE",
"437.333 300 OFFCURVE",
"316 300 CURVE SMOOTH",
"98 300 LINE"
);
},
{
closed = 1;
nodes = (
"246 730 LINE",
"309 843 LINE",
"317 855.667 OFFCURVE",
"315.667 864.333 OFFCURVE",
"305 869 CURVE",
"302.333 870.333 OFFCURVE",
"299.667 871 OFFCURVE",
"297 871 CURVE SMOOTH",
"290.333 871 OFFCURVE",
"285.333 866.667 OFFCURVE",
"282 858 CURVE",
"227 730 LINE"
);
}
);
width = 564;
},
{
layerId = "8A94633D-DA21-409C-A8B7-00A83612E8B2";
paths = (
{
closed = 1;
nodes = (
"188 0 LINE",
"188 195 LINE",
"334 195 LINE",
"401 0 LINE",
"513 0 LINE",
"435 232 LINE",
"502.318 289.969 OFFCURVE",
"512 384.821 OFFCURVE",
"512 462 CURVE SMOOTH",
"512 596.667 OFFCURVE",
"444.333 700 OFFCURVE",
"315 700 CURVE SMOOTH",
"78 700 LINE",
"78 0 LINE"
);
},
{
closed = 1;
nodes = (
"188 589 LINE",
"269 589 LINE SMOOTH",
"355.667 589 OFFCURVE",
"396 564.667 OFFCURVE",
"396 462 CURVE SMOOTH",
"396 427.333 OFFCURVE",
"397 414.833 OFFCURVE",
"389 379.5 CURVE SMOOTH",
"385 361.833 OFFCURVE",
"379.667 348.167 OFFCURVE",
"373 338.5 CURVE SMOOTH",
"366.333 328.833 OFFCURVE",
"338.333 316 OFFCURVE",
"289 300 CURVE",
"188 300 LINE"
);
},
{
closed = 1;
nodes = (
"300 730 LINE",
"349 793 LINE SMOOTH",
"359.667 807 OFFCURVE",
"365 820 OFFCURVE",
"365 832 CURVE SMOOTH",
"365 834 OFFCURVE",
"364.667 836 OFFCURVE",
"364 838 CURVE",
"361.333 851.333 OFFCURVE",
"353.333 861.333 OFFCURVE",
"340 868 CURVE",
"336 870.667 OFFCURVE",
"331 872 OFFCURVE",
"325 872 CURVE SMOOTH",
"319.667 872 OFFCURVE",
"313.333 870.667 OFFCURVE",
"306 868 CURVE",
"290.667 863.333 OFFCURVE",
"279.667 853.333 OFFCURVE",
"273 838 CURVE SMOOTH",
"227 730 LINE"
);
}
);
width = 564;
}
);
unicode = 0154;
},
{
glyphname = Rcaron;
lastChange = "2018-08-09 15:14:16 +0000";
layers = (
{
layerId = "BADA37E3-C95E-4946-BA48-1F986F6D85A7";
paths = (
{
closed = 1;
nodes = (
"134 0 LINE",
"134 245 LINE",
"331 245 LINE SMOOTH",
"345.667 245 OFFCURVE",
"359 246 OFFCURVE",
"371 248 CURVE",
"456 0 LINE",
"513 0 LINE",
"424 265 LINE",
"495.313 303.399 OFFCURVE",
"512 409.903 OFFCURVE",
"512 486 CURVE SMOOTH",
"512 616.667 OFFCURVE",
"450.667 700 OFFCURVE",
"324 700 CURVE SMOOTH",
"78 700 LINE",
"78 0 LINE"
);
},
{
closed = 1;
nodes = (
"134 647 LINE",
"328 647 LINE SMOOTH",
"406.667 647 OFFCURVE",
"456 594 OFFCURVE",
"456 486 CURVE SMOOTH",
"456 449.333 OFFCURVE",
"453.333 419.333 OFFCURVE",
"448 396 CURVE SMOOTH",
"437.183 340.114 OFFCURVE",
"401.44 300 OFFCURVE",
"332 300 CURVE SMOOTH",
"134 300 LINE"
);
},
{
closed = 1;
nodes = (
"427 875 LINE",
"389 914 LINE",
"284 810 LINE",
"175 914 LINE",
"137 875 LINE",
"285 734 LINE"
);
}
);
width = 564;
},
{
layerId = "77B00D75-0619-4FB7-8D17-EB9FCD2DF18B";
paths = (
{
closed = 1;
nodes = (
"98 0 LINE",
"98 281 LINE",
"332 281 LINE SMOOTH",
"336.667 281 OFFCURVE",
"345 281.667 OFFCURVE",
"357 283 CURVE",
"492 0 LINE",
"513 0 LINE",
"376 287 LINE",
"430.667 303 OFFCURVE",
"470.667 336.667 OFFCURVE",
"488 378 CURVE SMOOTH",
"504 415.333 OFFCURVE",
"512 451.333 OFFCURVE",
"512 486 CURVE SMOOTH",
"512 616.667 OFFCURVE",
"449 700 OFFCURVE",
"317 700 CURVE SMOOTH",
"78 700 LINE",
"78 0 LINE"
);
},
{
closed = 1;
nodes = (
"98 680 LINE",
"316 680 LINE SMOOTH",
"432 680 OFFCURVE",
"492 606 OFFCURVE",
"492 494 CURVE SMOOTH",
"492 382 OFFCURVE",
"437.333 300 OFFCURVE",
"316 300 CURVE SMOOTH",
"98 300 LINE"
);
},
{
closed = 1;
nodes = (
"427 875 LINE",
"412 890 LINE",
"284 764 LINE",
"152 890 LINE",
"137 875 LINE",
"285 734 LINE"
);
}
);
width = 564;
},
{
layerId = "8A94633D-DA21-409C-A8B7-00A83612E8B2";
paths = (
{
closed = 1;
nodes = (
"188 0 LINE",
"188 195 LINE",
"334 195 LINE",
"401 0 LINE",
"513 0 LINE",
"435 232 LINE",
"502.318 289.969 OFFCURVE",
"512 384.821 OFFCURVE",
"512 462 CURVE SMOOTH",
"512 596.667 OFFCURVE",
"444.333 700 OFFCURVE",
"315 700 CURVE SMOOTH",
"78 700 LINE",
"78 0 LINE"
);
},
{
closed = 1;
nodes = (
"188 589 LINE",
"269 589 LINE SMOOTH",
"355.667 589 OFFCURVE",
"396 564.667 OFFCURVE",
"396 462 CURVE SMOOTH",
"396 427.333 OFFCURVE",
"397 414.833 OFFCURVE",
"389 379.5 CURVE SMOOTH",
"385 361.833 OFFCURVE",
"379.667 348.167 OFFCURVE",
"373 338.5 CURVE SMOOTH",
"366.333 328.833 OFFCURVE",
"338.333 316 OFFCURVE",
"289 300 CURVE",
"188 300 LINE"
);
},
{
closed = 1;
nodes = (
"426 875 LINE",
"359 914 LINE",
"283 831 LINE",
"202 914 LINE",
"136 875 LINE",
"284 734 LINE"
);
}
);
width = 564;
}
);
unicode = 0158;
},
{
glyphname = Rcommaaccent;
lastChange = "2018-08-09 15:14:16 +0000";
layers = (
{
layerId = "BADA37E3-C95E-4946-BA48-1F986F6D85A7";
paths = (
{
closed = 1;
nodes = (
"134 0 LINE",
"134 245 LINE",
"331 245 LINE SMOOTH",
"345.667 245 OFFCURVE",
"359 246 OFFCURVE",
"371 248 CURVE",
"456 0 LINE",
"513 0 LINE",
"424 265 LINE",
"495.313 303.399 OFFCURVE",
"512 409.903 OFFCURVE",
"512 486 CURVE SMOOTH",
"512 616.667 OFFCURVE",
"450.667 700 OFFCURVE",
"324 700 CURVE SMOOTH",
"78 700 LINE",
"78 0 LINE"
);
},
{
closed = 1;
nodes = (
"293.667 -148.667 OFFCURVE",
"315 -111.667 OFFCURVE",
"315 -73 CURVE SMOOTH",
"315 -44.854 OFFCURVE",
"292.101 -34 OFFCURVE",
"273 -34 CURVE SMOOTH",
"250.886 -34 OFFCURVE",
"231.692 -76.666 OFFCURVE",
"264 -100 CURVE",
"274 -103 LINE",
"269 -110 LINE",
"260.333 -123.333 OFFCURVE",
"241 -138.667 OFFCURVE",
"211 -156 CURVE",
"251 -184 LINE"
);
},
{
closed = 1;
nodes = (
"134 647 LINE",
"328 647 LINE SMOOTH",
"406.667 647 OFFCURVE",
"456 594 OFFCURVE",
"456 486 CURVE SMOOTH",
"456 449.333 OFFCURVE",
"453.333 419.333 OFFCURVE",
"448 396 CURVE SMOOTH",
"437.183 340.114 OFFCURVE",
"401.44 300 OFFCURVE",
"332 300 CURVE SMOOTH",
"134 300 LINE"
);
}
);
width = 564;
},
{
layerId = "77B00D75-0619-4FB7-8D17-EB9FCD2DF18B";
paths = (
{
closed = 1;
nodes = (
"98 0 LINE",
"98 281 LINE",
"332 281 LINE SMOOTH",
"336.667 281 OFFCURVE",
"345 281.667 OFFCURVE",
"357 283 CURVE",
"492 0 LINE",
"513 0 LINE",
"376 287 LINE",
"430.667 303 OFFCURVE",
"470.667 336.667 OFFCURVE",
"488 378 CURVE SMOOTH",
"504 415.333 OFFCURVE",
"512 451.333 OFFCURVE",
"512 486 CURVE SMOOTH",
"512 616.667 OFFCURVE",
"449 700 OFFCURVE",
"317 700 CURVE SMOOTH",
"78 700 LINE",
"78 0 LINE"
);
},
{
closed = 1;
nodes = (
"286.667 -150.667 OFFCURVE",
"307 -118 OFFCURVE",
"307 -86 CURVE SMOOTH",
"307 -46.493 OFFCURVE",
"251.368 -92.085 OFFCURVE",
"290 -101 CURVE",
"292 -101 LINE",
"289 -112 LINE SMOOTH",
"285 -126.667 OFFCURVE",
"263.333 -154.333 OFFCURVE",
"230 -173 CURVE",
"246 -184 LINE"
);
},
{
closed = 1;
nodes = (
"98 680 LINE",
"316 680 LINE SMOOTH",
"432 680 OFFCURVE",
"492 606 OFFCURVE",
"492 494 CURVE SMOOTH",
"492 382 OFFCURVE",
"437.333 300 OFFCURVE",
"316 300 CURVE SMOOTH",
"98 300 LINE"
);
}
);
width = 564;
},
{
layerId = "8A94633D-DA21-409C-A8B7-00A83612E8B2";
paths = (
{
closed = 1;
nodes = (
"188 0 LINE",
"188 195 LINE",
"334 195 LINE",
"401 0 LINE",
"513 0 LINE",
"435 232 LINE",
"502.318 289.969 OFFCURVE",
"512 384.821 OFFCURVE",
"512 462 CURVE SMOOTH",
"512 596.667 OFFCURVE",
"444.333 700 OFFCURVE",
"315 700 CURVE SMOOTH",
"78 700 LINE",
"78 0 LINE"
);
},
{
closed = 1;
nodes = (
"318 -175.667 OFFCURVE",
"337 -144.333 OFFCURVE",
"337 -99 CURVE SMOOTH",
"337 -69.667 OFFCURVE",
"321.667 -37.333 OFFCURVE",
"287 -36 CURVE",
"286.333 -36 OFFCURVE",
"285.333 -36 OFFCURVE",
"284 -36 CURVE SMOOTH",
"269.333 -36 OFFCURVE",
"257 -40.667 OFFCURVE",
"247 -50 CURVE SMOOTH",
"236.333 -60.667 OFFCURVE",
"231 -73.667 OFFCURVE",
"231 -89 CURVE SMOOTH",
"231 -111.667 OFFCURVE",
"241 -127.667 OFFCURVE",
"261 -137 CURVE",
"273 -140 LINE",
"266 -147 LINE",
"255.333 -156.333 OFFCURVE",
"229 -176 OFFCURVE",
"201 -192 CURVE",
"270 -221 LINE"
);
},
{
closed = 1;
nodes = (
"188 589 LINE",
"269 589 LINE SMOOTH",
"355.667 589 OFFCURVE",
"396 564.667 OFFCURVE",
"396 462 CURVE SMOOTH",
"396 427.333 OFFCURVE",
"397 414.833 OFFCURVE",
"389 379.5 CURVE SMOOTH",
"385 361.833 OFFCURVE",
"379.667 348.167 OFFCURVE",
"373 338.5 CURVE SMOOTH",
"366.333 328.833 OFFCURVE",
"338.333 316 OFFCURVE",
"289 300 CURVE",
"188 300 LINE"
);
}
);
width = 564;
}
);
unicode = 0156;
},
{
glyphname = S;
lastChange = "2018-08-09 17:25:45 +0000";
layers = (
{
layerId = "BADA37E3-C95E-4946-BA48-1F986F6D85A7";
paths = (
{
closed = 1;
nodes = (
"433.5 -11 OFFCURVE",
"512 69.333 OFFCURVE",
"512 186 CURVE SMOOTH",
"512 321 OFFCURVE",
"396 362 OFFCURVE",
"289 398 CURVE SMOOTH",
"198 429 OFFCURVE",
"113 457 OFFCURVE",
"113 535 CURVE SMOOTH",
"113 611 OFFCURVE",
"180.5 656 OFFCURVE",
"278.5 656 CURVE SMOOTH",
"327.5 656 OFFCURVE",
"371 646.333 OFFCURVE",
"409 627 CURVE",
"426 680 LINE",
"384 700 OFFCURVE",
"335.333 710 OFFCURVE",
"280 710 CURVE SMOOTH",
"134.667 710 OFFCURVE",
"55 631.333 OFFCURVE",
"55 538 CURVE SMOOTH",
"55 421 OFFCURVE",
"161 384 OFFCURVE",
"263 348 CURVE SMOOTH",
"359 314 OFFCURVE",
"452 282 OFFCURVE",
"452 181 CURVE SMOOTH",
"452 85 OFFCURVE",
"374 43 OFFCURVE",
"267 43 CURVE SMOOTH",
"187 43 OFFCURVE",
"101 97 OFFCURVE",
"94 178 CURVE",
"37 178 LINE",
"39.667 79.333 OFFCURVE",
"121 -11 OFFCURVE",
"279.5 -11 CURVE SMOOTH"
);
}
);
width = 561;
},
{
layerId = "77B00D75-0619-4FB7-8D17-EB9FCD2DF18B";
paths = (
{
closed = 1;
nodes = (
"434.667 -11 OFFCURVE",
"512 65.667 OFFCURVE",
"512 178 CURVE SMOOTH",
"512 306 OFFCURVE",
"392 346 OFFCURVE",
"278 383 CURVE SMOOTH",
"174 417 OFFCURVE",
"76 449 OFFCURVE",
"76 538 CURVE SMOOTH",
"76 634 OFFCURVE",
"166.667 691 OFFCURVE",
"276 691 CURVE SMOOTH",
"330.667 691 OFFCURVE",
"378 680.667 OFFCURVE",
"418 660 CURVE",
"426 680 LINE",
"384 700 OFFCURVE",
"335.333 710 OFFCURVE",
"280 710 CURVE SMOOTH",
"134.667 710 OFFCURVE",
"55 632 OFFCURVE",
"55 541 CURVE SMOOTH",
"55 435 OFFCURVE",
"162 399 OFFCURVE",
"271 363 CURVE SMOOTH",
"380 327 OFFCURVE",
"491 292 OFFCURVE",
"491 178 CURVE SMOOTH",
"491 61.667 OFFCURVE",
"403.333 7 OFFCURVE",
"276 7 CURVE SMOOTH",
"131 7 OFFCURVE",
"59 95.333 OFFCURVE",
"59 178 CURVE",
"37 178 LINE",
"39.667 79.333 OFFCURVE",
"125.333 -11 OFFCURVE",
"280 -11 CURVE SMOOTH"
);
}
);
width = 561;
},
{
layerId = "8A94633D-DA21-409C-A8B7-00A83612E8B2";
paths = (
{
closed = 1;
nodes = (
"434.333 -11 OFFCURVE",
"512 75.333 OFFCURVE",
"512 194 CURVE SMOOTH",
"512 341 OFFCURVE",
"389 396 OFFCURVE",
"291 439 CURVE SMOOTH",
"223 469 OFFCURVE",
"173 492 OFFCURVE",
"173 533 CURVE SMOOTH",
"173 576 OFFCURVE",
"221 598 OFFCURVE",
"282 598 CURVE SMOOTH",
"315 598 OFFCURVE",
"352 592 OFFCURVE",
"391 576 CURVE",
"426 680 LINE",
"384 700 OFFCURVE",
"335.333 710 OFFCURVE",
"280 710 CURVE SMOOTH",
"134.667 710 OFFCURVE",
"54 637 OFFCURVE",
"54 536 CURVE SMOOTH",
"54 420 OFFCURVE",
"143 383 OFFCURVE",
"230 347 CURVE SMOOTH",
"312 313 OFFCURVE",
"391 278 OFFCURVE",
"391 193 CURVE SMOOTH",
"391 141 OFFCURVE",
"353.333 97 OFFCURVE",
"272 97 CURVE SMOOTH",
"203 97 OFFCURVE",
"161.667 136.333 OFFCURVE",
"155 195 CURVE",
"37 178 LINE",
"39.667 79.333 OFFCURVE",
"127.667 -11 OFFCURVE",
"273 -11 CURVE SMOOTH"
);
}
);
width = 561;
}
);
leftKerningGroup = S;
rightKerningGroup = S;
unicode = 0053;
},
{
glyphname = Sacute;
lastChange = "2018-08-09 15:14:23 +0000";
layers = (
{
layerId = "BADA37E3-C95E-4946-BA48-1F986F6D85A7";
paths = (
{
closed = 1;
nodes = (
"433.5 -11 OFFCURVE",
"512 69.333 OFFCURVE",
"512 192 CURVE SMOOTH",
"512 256 OFFCURVE",
"479.667 306.833 OFFCURVE",
"433 335.5 CURVE SMOOTH",
"409.667 349.833 OFFCURVE",
"383.667 362.667 OFFCURVE",
"355 374 CURVE SMOOTH",
"326.333 385.333 OFFCURVE",
"272 405.667 OFFCURVE",
"192 435 CURVE",
"139.333 459 OFFCURVE",
"113 492.333 OFFCURVE",
"113 535 CURVE SMOOTH",
"113 611 OFFCURVE",
"180.5 656 OFFCURVE",
"278.5 656 CURVE SMOOTH",
"327.5 656 OFFCURVE",
"371 646.333 OFFCURVE",
"409 627 CURVE",
"420.333 661 OFFCURVE",
"426 678.667 OFFCURVE",
"426 680 CURVE",
"384 700 OFFCURVE",
"335.333 710 OFFCURVE",
"280 710 CURVE SMOOTH",
"134.667 710 OFFCURVE",
"55 631.333 OFFCURVE",
"55 538 CURVE SMOOTH",
"55 467.333 OFFCURVE",
"99.333 415.333 OFFCURVE",
"158 390 CURVE SMOOTH",
"187.333 377.333 OFFCURVE",
"219.167 364.5 OFFCURVE",
"253.5 351.5 CURVE SMOOTH",
"322.167 325.5 OFFCURVE",
"383.167 308.833 OFFCURVE",
"422.5 265.5 CURVE SMOOTH",
"442.167 243.833 OFFCURVE",
"452 217.667 OFFCURVE",
"452 187 CURVE SMOOTH",
"452 -26.813 OFFCURVE",
"109.081 18.137 OFFCURVE",
"94 178 CURVE",
"37 178 LINE",
"39.667 79.333 OFFCURVE",
"125.5 -11 OFFCURVE",
"279.5 -11 CURVE SMOOTH"
);
},
{
closed = 1;
nodes = (
"284 735 LINE",
"353 827 LINE",
"356.333 831 OFFCURVE",
"358 835.333 OFFCURVE",
"358 840 CURVE SMOOTH",
"358 844.667 OFFCURVE",
"357.333 849 OFFCURVE",
"356 853 CURVE",
"352 868.333 OFFCURVE",
"341 876 OFFCURVE",
"323 876 CURVE SMOOTH",
"309 876 OFFCURVE",
"298.333 868.333 OFFCURVE",
"291 853 CURVE",
"240 735 LINE"
);
}
);
width = 561;
},
{
layerId = "77B00D75-0619-4FB7-8D17-EB9FCD2DF18B";
paths = (
{
closed = 1;
nodes = (
"434.667 -11 OFFCURVE",
"512 65.667 OFFCURVE",
"512 187 CURVE SMOOTH",
"512 269.667 OFFCURVE",
"443.333 324.5 OFFCURVE",
"358 354.5 CURVE SMOOTH",
"315.333 369.5 OFFCURVE",
"272.667 383.667 OFFCURVE",
"230 397 CURVE SMOOTH",
"187.333 410.333 OFFCURVE",
"136 456.333 OFFCURVE",
"76 535 CURVE",
"76 633.667 OFFCURVE",
"166.667 691 OFFCURVE",
"276 691 CURVE SMOOTH",
"330.667 691 OFFCURVE",
"378 680.667 OFFCURVE",
"418 660 CURVE",
"426 680 LINE",
"384 700 OFFCURVE",
"335.333 710 OFFCURVE",
"280 710 CURVE SMOOTH",
"134.667 710 OFFCURVE",
"55 631.333 OFFCURVE",
"55 538 CURVE SMOOTH",
"55 472.667 OFFCURVE",
"104 425 OFFCURVE",
"168 401 CURVE SMOOTH",
"200 389 OFFCURVE",
"235 376.333 OFFCURVE",
"273 363 CURVE SMOOTH",
"349 336.333 OFFCURVE",
"415.167 318.833 OFFCURVE",
"458.5 271.5 CURVE SMOOTH",
"480.167 247.833 OFFCURVE",
"491 219.667 OFFCURVE",
"491 187 CURVE SMOOTH",
"491 61.667 OFFCURVE",
"403.333 7 OFFCURVE",
"270 7 CURVE SMOOTH",
"136.667 7 OFFCURVE",
"59 95.333 OFFCURVE",
"59 178 CURVE",
"37 178 LINE",
"39.667 79.333 OFFCURVE",
"125.333 -11 OFFCURVE",
"280 -11 CURVE SMOOTH"
);
},
{
closed = 1;
nodes = (
"259 735 LINE",
"322 848 LINE",
"330 860.667 OFFCURVE",
"328.667 869.333 OFFCURVE",
"318 874 CURVE",
"315.333 875.333 OFFCURVE",
"312.667 876 OFFCURVE",
"310 876 CURVE SMOOTH",
"303.333 876 OFFCURVE",
"298.333 871.667 OFFCURVE",
"295 863 CURVE",
"240 735 LINE"
);
}
);
width = 561;
},
{
layerId = "8A94633D-DA21-409C-A8B7-00A83612E8B2";
paths = (
{
closed = 1;
nodes = (
"434.333 -11 OFFCURVE",
"512 75.333 OFFCURVE",
"512 194 CURVE SMOOTH",
"512 283.333 OFFCURVE",
"460.167 350.833 OFFCURVE",
"395.5 387.5 CURVE SMOOTH",
"363.167 405.833 OFFCURVE",
"330.5 422 OFFCURVE",
"297.5 436 CURVE SMOOTH",
"264.5 450 OFFCURVE",
"223 480.333 OFFCURVE",
"173 527 CURVE",
"173 529 OFFCURVE",
"173 531 OFFCURVE",
"173 533 CURVE SMOOTH",
"173 551 OFFCURVE",
"181 566 OFFCURVE",
"197 578 CURVE SMOOTH",
"215 591.333 OFFCURVE",
"243 598 OFFCURVE",
"281 598 CURVE SMOOTH",
"309 598 OFFCURVE",
"345.667 590.667 OFFCURVE",
"391 576 CURVE",
"394.333 585.333 OFFCURVE",
"399 599 OFFCURVE",
"405 617 CURVE SMOOTH",
"411 635 OFFCURVE",
"416 650 OFFCURVE",
"420 662 CURVE SMOOTH",
"426 680 LINE",
"384 700 OFFCURVE",
"335.333 710 OFFCURVE",
"280 710 CURVE SMOOTH",
"134.667 710 OFFCURVE",
"54 630.333 OFFCURVE",
"54 537 CURVE SMOOTH",
"54 475.667 OFFCURVE",
"81 429.833 OFFCURVE",
"121 402.5 CURVE SMOOTH",
"141 388.833 OFFCURVE",
"163 376.5 OFFCURVE",
"187 365.5 CURVE SMOOTH",
"225.299 347.946 OFFCURVE",
"290.467 321.178 OFFCURVE",
"324 300.5 CURVE SMOOTH",
"344 288.167 OFFCURVE",
"366.333 249.333 OFFCURVE",
"391 184 CURVE",
"391 141.333 OFFCURVE",
"353.333 97 OFFCURVE",
"272 97 CURVE SMOOTH",
"205.333 97 OFFCURVE",
"161.667 136.333 OFFCURVE",
"155 195 CURVE",
"37 178 LINE",
"39.667 79.333 OFFCURVE",
"127.667 -11 OFFCURVE",
"273 -11 CURVE SMOOTH"
);
},
{
closed = 1;
nodes = (
"312 734 LINE",
"361 797 LINE SMOOTH",
"371.667 811 OFFCURVE",
"377 824 OFFCURVE",
"377 836 CURVE SMOOTH",
"377 838 OFFCURVE",
"376.667 840 OFFCURVE",
"376 842 CURVE",
"373.333 855.333 OFFCURVE",
"365.333 865.333 OFFCURVE",
"352 872 CURVE",
"348 874.667 OFFCURVE",
"343 876 OFFCURVE",
"337 876 CURVE SMOOTH",
"331.667 876 OFFCURVE",
"325.333 874.667 OFFCURVE",
"318 872 CURVE",
"302.667 867.333 OFFCURVE",
"291.667 857.333 OFFCURVE",
"285 842 CURVE SMOOTH",
"239 734 LINE"
);
}
);
width = 561;
}
);
unicode = 015A;
},
{
glyphname = Scaron;
lastChange = "2018-08-09 15:14:23 +0000";
layers = (
{
layerId = "BADA37E3-C95E-4946-BA48-1F986F6D85A7";
paths = (
{
closed = 1;
nodes = (
"433.5 -11 OFFCURVE",
"512 69.333 OFFCURVE",
"512 192 CURVE SMOOTH",
"512 256 OFFCURVE",
"479.667 306.833 OFFCURVE",
"433 335.5 CURVE SMOOTH",
"409.667 349.833 OFFCURVE",
"383.667 362.667 OFFCURVE",
"355 374 CURVE SMOOTH",
"326.333 385.333 OFFCURVE",
"272 405.667 OFFCURVE",
"192 435 CURVE",
"139.333 459 OFFCURVE",
"113 492.333 OFFCURVE",
"113 535 CURVE SMOOTH",
"113 611 OFFCURVE",
"180.5 656 OFFCURVE",
"278.5 656 CURVE SMOOTH",
"327.5 656 OFFCURVE",
"371 646.333 OFFCURVE",
"409 627 CURVE",
"420.333 661 OFFCURVE",
"426 678.667 OFFCURVE",
"426 680 CURVE",
"384 700 OFFCURVE",
"335.333 710 OFFCURVE",
"280 710 CURVE SMOOTH",
"134.667 710 OFFCURVE",
"55 631.333 OFFCURVE",
"55 538 CURVE SMOOTH",
"55 467.333 OFFCURVE",
"99.333 415.333 OFFCURVE",
"158 390 CURVE SMOOTH",
"187.333 377.333 OFFCURVE",
"219.167 364.5 OFFCURVE",
"253.5 351.5 CURVE SMOOTH",
"322.167 325.5 OFFCURVE",
"383.167 308.833 OFFCURVE",
"422.5 265.5 CURVE SMOOTH",
"442.167 243.833 OFFCURVE",
"452 217.667 OFFCURVE",
"452 187 CURVE SMOOTH",
"452 -26.813 OFFCURVE",
"109.081 18.137 OFFCURVE",
"94 178 CURVE",
"37 178 LINE",
"39.667 79.333 OFFCURVE",
"125.5 -11 OFFCURVE",
"279.5 -11 CURVE SMOOTH"
);
},
{
closed = 1;
nodes = (
"444 925 LINE",
"406 964 LINE",
"301 860 LINE",
"192 964 LINE",
"154 925 LINE",
"302 784 LINE"
);
}
);
width = 561;
},
{
layerId = "77B00D75-0619-4FB7-8D17-EB9FCD2DF18B";
paths = (
{
closed = 1;
nodes = (
"434.667 -11 OFFCURVE",
"512 65.667 OFFCURVE",
"512 187 CURVE SMOOTH",
"512 269.667 OFFCURVE",
"443.333 324.5 OFFCURVE",
"358 354.5 CURVE SMOOTH",
"315.333 369.5 OFFCURVE",
"272.667 383.667 OFFCURVE",
"230 397 CURVE SMOOTH",
"187.333 410.333 OFFCURVE",
"136 456.333 OFFCURVE",
"76 535 CURVE",
"76 633.667 OFFCURVE",
"166.667 691 OFFCURVE",
"276 691 CURVE SMOOTH",
"330.667 691 OFFCURVE",
"378 680.667 OFFCURVE",
"418 660 CURVE",
"426 680 LINE",
"384 700 OFFCURVE",
"335.333 710 OFFCURVE",
"280 710 CURVE SMOOTH",
"134.667 710 OFFCURVE",
"55 631.333 OFFCURVE",
"55 538 CURVE SMOOTH",
"55 472.667 OFFCURVE",
"104 425 OFFCURVE",
"168 401 CURVE SMOOTH",
"200 389 OFFCURVE",
"235 376.333 OFFCURVE",
"273 363 CURVE SMOOTH",
"349 336.333 OFFCURVE",
"415.167 318.833 OFFCURVE",
"458.5 271.5 CURVE SMOOTH",
"480.167 247.833 OFFCURVE",
"491 219.667 OFFCURVE",
"491 187 CURVE SMOOTH",
"491 61.667 OFFCURVE",
"403.333 7 OFFCURVE",
"270 7 CURVE SMOOTH",
"136.667 7 OFFCURVE",
"59 95.333 OFFCURVE",
"59 178 CURVE",
"37 178 LINE",
"39.667 79.333 OFFCURVE",
"125.333 -11 OFFCURVE",
"280 -11 CURVE SMOOTH"
);
},
{
closed = 1;
nodes = (
"444 925 LINE",
"429 940 LINE",
"301 814 LINE",
"169 940 LINE",
"154 925 LINE",
"302 784 LINE"
);
}
);
width = 561;
},
{
layerId = "8A94633D-DA21-409C-A8B7-00A83612E8B2";
paths = (
{
closed = 1;
nodes = (
"434.333 -11 OFFCURVE",
"512 75.333 OFFCURVE",
"512 194 CURVE SMOOTH",
"512 283.333 OFFCURVE",
"460.167 350.833 OFFCURVE",
"395.5 387.5 CURVE SMOOTH",
"363.167 405.833 OFFCURVE",
"330.5 422 OFFCURVE",
"297.5 436 CURVE SMOOTH",
"264.5 450 OFFCURVE",
"223 480.333 OFFCURVE",
"173 527 CURVE",
"173 529 OFFCURVE",
"173 531 OFFCURVE",
"173 533 CURVE SMOOTH",
"173 551 OFFCURVE",
"181 566 OFFCURVE",
"197 578 CURVE SMOOTH",
"215 591.333 OFFCURVE",
"243 598 OFFCURVE",
"281 598 CURVE SMOOTH",
"309 598 OFFCURVE",
"345.667 590.667 OFFCURVE",
"391 576 CURVE",
"394.333 585.333 OFFCURVE",
"399 599 OFFCURVE",
"405 617 CURVE SMOOTH",
"411 635 OFFCURVE",
"416 650 OFFCURVE",
"420 662 CURVE SMOOTH",
"426 680 LINE",
"384 700 OFFCURVE",
"335.333 710 OFFCURVE",
"280 710 CURVE SMOOTH",
"134.667 710 OFFCURVE",
"54 630.333 OFFCURVE",
"54 537 CURVE SMOOTH",
"54 475.667 OFFCURVE",
"81 429.833 OFFCURVE",
"121 402.5 CURVE SMOOTH",
"141 388.833 OFFCURVE",
"163 376.5 OFFCURVE",
"187 365.5 CURVE SMOOTH",
"225.299 347.946 OFFCURVE",
"290.467 321.178 OFFCURVE",
"324 300.5 CURVE SMOOTH",
"344 288.167 OFFCURVE",
"366.333 249.333 OFFCURVE",
"391 184 CURVE",
"391 141.333 OFFCURVE",
"353.333 97 OFFCURVE",
"272 97 CURVE SMOOTH",
"205.333 97 OFFCURVE",
"161.667 136.333 OFFCURVE",
"155 195 CURVE",
"37 178 LINE",
"39.667 79.333 OFFCURVE",
"127.667 -11 OFFCURVE",
"273 -11 CURVE SMOOTH"
);
},
{
closed = 1;
nodes = (
"443 923 LINE",
"376 962 LINE",
"300 879 LINE",
"219 962 LINE",
"153 923 LINE",
"301 782 LINE"
);
}
);
width = 561;
}
);
unicode = 0160;
},
